<svg width="81" height="112" viewBox="0 0 81 112" fill="none" 
    xmlns="http://www.w3.org/2000/svg">
    <path fill-rule="evenodd" clip-rule="evenodd" d="M40.2521 111.434C62.4828 111.434 80.5043 93.4279 80.5043 71.2168C80.5043 49.0057 62.4828 31 40.2521 31C18.0214 31 -6.10352e-05 49.0057 -6.10352e-05 71.2168C-6.10352e-05 93.4279 18.0214 111.434 40.2521 111.434Z" fill="#FF9B21"/>
    <mask id="mask0" mask-type="alpha" maskUnits="userSpaceOnUse" x="0" y="0" width="81" height="112">
        <path fill-rule="evenodd" clip-rule="evenodd" d="M40.2522 111.434C62.4828 111.434 80.5043 93.4279 80.5043 71.2168C80.5043 49.0057 62.4828 31 40.2522 31C18.0215 31 0 49.0057 0 71.2168C0 93.4279 18.0215 111.434 40.2522 111.434Z" fill="#FF9B21"/>
        <path fill-rule="evenodd" clip-rule="evenodd" d="M40.2522 80.4336C62.4828 80.4336 80.5043 62.4279 80.5043 40.2168C80.5043 18.0057 62.4828 0 40.2522 0C18.0215 0 0 18.0057 0 40.2168C0 62.4279 18.0215 80.4336 40.2522 80.4336Z" fill="#FF9B21"/>
    </mask>
    <g mask="url(#mask0)">
        <path fill-rule="evenodd" clip-rule="evenodd" d="M41.9816 53.5038C47.4469 56.7979 52.8167 58.3895 55.3373 57.7398C61.658 56.1105 62.2392 32.9876 57.3486 23.8718C52.4579 14.756 27.316 10.7828 26.0487 28.8441C25.6089 35.1126 28.241 40.7068 32.1299 45.2716L25.1569 77.7726H45.4121L41.9816 53.5038Z" fill="#D4A181"/>
        <path fill-rule="evenodd" clip-rule="evenodd" d="M42.9944 30.8385C44.7464 28.2298 46.4284 26.2399 48.6165 25.0844C57.5212 25.2251 58.5637 23.6287 58.5637 18.2482C57.1255 17.2191 52.0507 15.4861 46.3675 14.9987C43.4683 14.169 40.0339 14.325 36.7254 15.709C32.6412 16.8678 29.183 19.3634 27.6554 24.0356C22.1288 33.573 26.3236 43.5012 31.9765 46.8927C33.4812 45.1099 34.7943 43.3823 35.966 41.7285C35.0248 40.809 34.4405 39.5257 34.4405 38.106C34.4405 35.3093 36.7077 33.0422 39.5043 33.0422C39.7099 33.0422 39.9126 33.0544 40.1118 33.0782C40.2377 36.5748 40.7555 48.4046 42.1159 52.5137C43.7197 57.3582 53.0784 58.5477 56.3425 58.5477C59.1617 58.5477 59.0656 55.878 58.9967 53.9648C58.9868 53.6892 58.9775 53.4294 58.9775 53.1954C58.9775 52.7067 58.3418 52.7079 57.6235 52.7094C56.6908 52.7112 55.6189 52.7134 55.6189 51.6432C55.6189 50.4768 57.2309 49.582 58.6734 48.7813C59.5734 48.2818 60.4073 47.8189 60.7427 47.3495C61.8007 45.8686 62.1571 43.8711 60.5609 43.8711C59.6885 43.8711 58.4914 44.3741 57.0513 44.9792C54.8772 45.8928 52.1491 47.0391 49.1473 47.0391C44.1883 47.0391 43.0089 31.0387 42.9944 30.8385Z" fill="#191847"/>
        <path fill-rule="evenodd" clip-rule="evenodd" d="M36.715 65.393L44.0129 64.1412C55.5092 104.78 114.577 132.481 118.203 147.672C119.533 153.244 115.524 156.06 117.595 157.757L108.109 164.701C106.503 162.827 103.075 166.255 95.9161 163.857C88.7575 161.459 36.715 113.512 36.715 65.393Z" fill="#DB2721"/>
        <path fill-rule="evenodd" clip-rule="evenodd" d="M24.3579 56.9523C22.1542 56.7982 20.2427 58.4598 20.0886 60.6635L19.7865 64.9846C6.05216 75.5538 -27.9881 107.137 -36.8585 165.931C-37.7903 172.107 -36.1052 175.415 -34.7588 178.058C-33.8378 179.866 -33.0752 181.363 -33.4172 183.254L-21.0028 186.681C-21.0028 185.284 -19.4382 184.222 -17.4196 182.852C-14.4845 180.859 -10.5896 178.215 -9.14943 172.944C-7.78434 167.948 -5.78539 161.708 -3.3972 154.767C-3.17169 163.96 -1.42821 172.415 2.36976 179.418C11.8452 196.889 66.603 177.729 72.3238 159.906C75.3765 150.395 71.0449 142.41 65.316 131.85C58.0439 118.445 48.5204 100.89 48.9911 70.7959L49.5555 62.724C49.7096 60.5203 48.048 58.6089 45.8443 58.4548L24.3579 56.9523Z" fill="#FF4133"/>
    </g>
</svg>
