<svg width="81" height="112" viewBox="0 0 81 112" fill="none" 
    xmlns="http://www.w3.org/2000/svg">
    <path fill-rule="evenodd" clip-rule="evenodd" d="M40.2525 111.434C62.4831 111.434 80.5046 93.4279 80.5046 71.2168C80.5046 49.0057 62.4831 31 40.2525 31C18.0218 31 0.000305176 49.0057 0.000305176 71.2168C0.000305176 93.4279 18.0218 111.434 40.2525 111.434Z" fill="#FF9B21"/>
    <mask id="mask0" mask-type="alpha" maskUnits="userSpaceOnUse" x="0" y="0" width="81" height="112">
        <path fill-rule="evenodd" clip-rule="evenodd" d="M40.2525 111.434C62.4832 111.434 80.5047 93.4279 80.5047 71.2168C80.5047 49.0057 62.4832 31 40.2525 31C18.0219 31 0.000366211 49.0057 0.000366211 71.2168C0.000366211 93.4279 18.0219 111.434 40.2525 111.434Z" fill="#FF9B21"/>
        <path fill-rule="evenodd" clip-rule="evenodd" d="M40.2525 80.4336C62.4832 80.4336 80.5047 62.4279 80.5047 40.2168C80.5047 18.0057 62.4832 0 40.2525 0C18.0219 0 0.000366211 18.0057 0.000366211 40.2168C0.000366211 62.4279 18.0219 80.4336 40.2525 80.4336Z" fill="#FF9B21"/>
    </mask>
    <g mask="url(#mask0)">
        <path fill-rule="evenodd" clip-rule="evenodd" d="M45.2888 51.7988C50.8285 55.1379 56.2715 56.7512 58.8266 56.0926C65.2334 54.4411 65.8225 31.003 60.8652 21.763C55.9079 12.523 30.4233 8.49559 29.1388 26.803C28.693 33.157 31.3609 38.8274 35.3029 43.4544L28.2347 76.3984H48.766L45.2888 51.7988Z" fill="#D4A181"/>
        <path fill-rule="evenodd" clip-rule="evenodd" d="M35.934 22.5039C47.7816 22.5888 56.0249 22.0895 60.7426 20.793C60.5275 16.7776 56.3532 12.2383 45.3441 12.2383C33.0955 12.2383 26.5238 19.3776 26.5238 27.6367C26.5238 35.1824 31.3813 44.3721 35.0785 44.7461C36.0366 44.5365 36.8545 43.3824 37.6678 41.7921C36.1449 41.0514 35.0785 39.3052 35.0785 37.0469C35.0785 34.8761 36.9935 32.7695 39.3558 32.7695C40.2175 32.7695 41.0197 33.0498 41.6911 33.5112C43.2433 31.0115 45.1885 29.1444 47.9105 29.3477L46.1996 24.2148L35.934 23.3594V22.5039Z" fill="#191847"/>
        <path fill-rule="evenodd" clip-rule="evenodd" d="M38.2395 65.5616L45.6368 64.2928C58.3726 96.1079 80.6081 125.016 112.343 151.017L88.3625 180.151C56.6312 143.129 37.072 104.933 38.2395 65.5616Z" fill="#191847"/>
        <path fill-rule="evenodd" clip-rule="evenodd" d="M5.99255 158.523H71.8637C71.8637 158.523 48.9724 102.865 48.9724 63.9605L29.1024 61C13.4864 86.1152 9.07637 117.037 5.99255 158.523Z" fill="#DDE3E9"/>
        <path fill-rule="evenodd" clip-rule="evenodd" d="M-23.9489 186.754C-16.7451 105.481 28.6659 61 28.6659 61L28.6817 61.014C28.6843 61.0094 28.6869 61.0047 28.6895 61H29.9865C32.3146 61.0802 37.0783 61.2889 37.0783 61.2889L41.8796 75.0099C42.6414 100.104 50.7773 176.151 50.7773 176.151H7.66063C7.73399 179.638 7.89638 183.174 8.15741 186.754H-23.9489Z" fill="#2F3676"/>
    </g>
</svg>
