<svg width="81" height="112" viewBox="0 0 81 112" fill="none" 
    xmlns="http://www.w3.org/2000/svg">
    <path fill-rule="evenodd" clip-rule="evenodd" d="M40.2522 111.434C62.4828 111.434 80.5043 93.4279 80.5043 71.2168C80.5043 49.0057 62.4828 31 40.2522 31C18.0215 31 0 49.0057 0 71.2168C0 93.4279 18.0215 111.434 40.2522 111.434Z" fill="#FF9B21"/>
    <mask id="mask0" mask-type="alpha" maskUnits="userSpaceOnUse" x="0" y="0" width="81" height="112">
        <path fill-rule="evenodd" clip-rule="evenodd" d="M40.2522 111.434C62.4828 111.434 80.5043 93.4279 80.5043 71.2168C80.5043 49.0057 62.4828 31 40.2522 31C18.0215 31 0 49.0057 0 71.2168C0 93.4279 18.0215 111.434 40.2522 111.434Z" fill="#FF9B21"/>
        <path fill-rule="evenodd" clip-rule="evenodd" d="M40.2522 80.4336C62.4828 80.4336 80.5043 62.4279 80.5043 40.2168C80.5043 18.0057 62.4828 0 40.2522 0C18.0215 0 0 18.0057 0 40.2168C0 62.4279 18.0215 80.4336 40.2522 80.4336Z" fill="#FF9B21"/>
    </mask>
    <g mask="url(#mask0)">
        <path fill-rule="evenodd" clip-rule="evenodd" d="M45.2684 11.813C35.8501 11.813 28.215 19.4481 28.215 28.8664V43.4416C28.215 51.9844 34.4966 59.0601 42.6928 60.3017C42.6966 60.3714 42.7005 60.4414 42.7045 60.5117H64.6844C68.4222 56.8466 64.1978 31.9868 61.5638 23.7478C61.2276 22.6961 60.9011 21.9113 60.58 21.3495C57.8015 15.7005 51.9889 11.813 45.2684 11.813Z" fill="#191847"/>
        <path fill-rule="evenodd" clip-rule="evenodd" d="M45.5983 48.5101C50.5064 51.4791 55.3288 52.9136 57.5925 52.328C63.2688 50.8596 63.7907 30.0192 59.3986 21.8032C55.0066 13.5873 32.4278 10.0063 31.2897 26.2847C30.8947 31.9344 33.2585 36.9764 36.751 41.0906L30.4888 70.3835H48.679L45.5983 48.5101Z" fill="#D4A181"/>
        <path fill-rule="evenodd" clip-rule="evenodd" d="M28.8829 26.3794C29.411 25.8552 29.922 25.3481 30.429 24.8943L30.4046 24.3031C30.4046 24.3031 36.1137 12.5732 44.8905 12.5732C53.6595 12.5732 56.4327 16.6646 58.7901 20.1424L58.7964 20.1517C57.5634 24.3978 53.8472 26.1157 49.6443 28.0586C47.8353 28.8949 45.936 29.7729 44.1058 30.9121C43.3889 30.3274 42.4746 29.9769 41.4788 29.9769C39.1765 29.9769 37.3102 31.85 37.3102 34.1605C37.3102 36.4711 39.1765 38.3441 41.4788 38.3441C41.5422 38.3441 41.6054 38.3427 41.6681 38.3399C42.5063 47.375 42.1705 57.6931 39.6728 60.1423H17.6929C17.0619 49.1402 19.8978 46.0016 22.7957 42.7945C25.5223 39.7769 28.3039 36.6985 28.3039 26.9517C28.4995 26.7598 28.6923 26.5685 28.8829 26.3794L28.8829 26.3794Z" fill="#191847"/>
        <path fill-rule="evenodd" clip-rule="evenodd" d="M119.532 99.2314L89.6072 103.328L94.9762 116.783L119.258 107.122C129.724 108.158 134.785 107.909 134.441 106.374C134.15 105.079 133.038 104.688 132.013 104.328C131.215 104.048 130.47 103.786 130.208 103.131C129.611 101.634 133.013 98.5302 136.366 95.7248C139.719 92.9194 137.468 92.4032 136.053 92.4446C131.026 93.6274 125.519 95.8897 119.532 99.2314ZM-26.0541 173.002C-23.8331 168.48 -4.39874 110.28 -4.39874 110.28L12.1979 110.342C12.1979 110.342 -15.1001 171.994 -16.2693 174.902C-17.7881 178.68 -15.2082 184.168 -13.4588 187.89C-13.1881 188.465 -12.9374 188.999 -12.7247 189.477C-15.1521 190.567 -16.3182 189.25 -17.5475 187.861C-18.936 186.292 -20.4052 184.631 -23.8637 186.246C-25.2 186.87 -26.4644 187.608 -27.6997 188.328C-31.9668 190.818 -35.8868 193.104 -41.2194 189.802C-42.0649 189.279 -42.9913 187.308 -40.7529 185.767C-35.1763 181.93 -27.14 175.213 -26.0541 173.002Z" fill="#997659"/>
        <path fill-rule="evenodd" clip-rule="evenodd" d="M41.0614 57.4522L54.056 58.321C57.2564 87.379 74.6884 105.733 113.718 99.5195L118.903 136.94C82.4241 141.671 50.4321 127.014 43.8756 87.3296C42.1783 77.0566 40.8381 66.3655 41.0614 57.4522Z" fill="#1F28CF"/>
        <path fill-rule="evenodd" clip-rule="evenodd" d="M34.5976 53.649H33.3506C4.28732 80.0163 -14.7554 117.288 -23.7776 165.465H16.0368C16.2765 156.351 16.7365 147.476 17.4855 138.842H70.6589C68.9902 131.306 66.8436 124.071 64.6591 116.707C59.6005 99.6568 54.3389 81.9219 54.3389 58.1864L34.6503 53.661L34.6401 53.649H34.598L34.5977 53.6489C34.5977 53.649 34.5976 53.649 34.5976 53.649Z" fill="#2B44FF"/>
        <path fill-rule="evenodd" clip-rule="evenodd" d="M23.4645 145.782C25.1137 126.772 28.0586 108.838 32.927 91.9814C31.8599 110.008 31.5638 132.372 35.1519 145.782H23.4645Z" fill="black" fill-opacity="0.1"/>
    </g>
</svg>
