<svg width="81" height="112" viewBox="0 0 81 112" fill="none" 
    xmlns="http://www.w3.org/2000/svg">
    <path fill-rule="evenodd" clip-rule="evenodd" d="M40.3128 111.434C62.5434 111.434 80.5649 93.4279 80.5649 71.2168C80.5649 49.0057 62.5434 31 40.3128 31C18.0821 31 0.0606079 49.0057 0.0606079 71.2168C0.0606079 93.4279 18.0821 111.434 40.3128 111.434Z" fill="#FF9B21"/>
    <mask id="mask0" mask-type="alpha" maskUnits="userSpaceOnUse" x="0" y="0" width="81" height="112">
        <path fill-rule="evenodd" clip-rule="evenodd" d="M40.3128 111.434C62.5435 111.434 80.565 93.4279 80.565 71.2168C80.565 49.0057 62.5435 31 40.3128 31C18.0822 31 0.0606689 49.0057 0.0606689 71.2168C0.0606689 93.4279 18.0822 111.434 40.3128 111.434Z" fill="#FF9B21"/>
        <path fill-rule="evenodd" clip-rule="evenodd" d="M40.3128 80.4336C62.5435 80.4336 80.565 62.4279 80.565 40.2168C80.565 18.0057 62.5435 0 40.3128 0C18.0822 0 0.0606689 18.0057 0.0606689 40.2168C0.0606689 62.4279 18.0822 80.4336 40.3128 80.4336Z" fill="#FF9B21"/>
    </mask>
    <g mask="url(#mask0)">
        <path fill-rule="evenodd" clip-rule="evenodd" d="M45.1592 49.9885C50.4926 53.2044 55.7328 54.7582 58.1927 54.1239C64.3609 52.5333 64.928 29.9596 60.1554 21.0603C55.3827 12.161 30.8475 8.28215 29.6108 25.9145C29.1816 32.0341 31.7502 37.4954 35.5452 41.9518L28.7404 73.6809H48.5069L45.1592 49.9885Z" fill="#D4A181"/>
        <path fill-rule="evenodd" clip-rule="evenodd" d="M56.8784 11.2882C61.0509 11.7923 64.4864 12.2073 65.9895 11.2498C67.0622 17.9761 63.6022 23.3996 51.4378 22.351C48.7555 23.8521 46.8465 26.6647 44.5486 30.3541C43.9889 30.134 43.3794 30.0132 42.7417 30.0132C40.0125 30.0132 37.8001 32.2265 37.8001 34.9567C37.8001 36.3427 38.3702 37.5955 39.2887 38.4931C38.1453 40.1077 36.8639 41.7943 35.3955 43.5347C29.9158 40.2458 25.8401 30.6603 31.0722 21.4067C34.1951 8.5481 47.4274 10.1466 56.8784 11.2882Z" fill="#191847"/>
        <path fill-rule="evenodd" clip-rule="evenodd" d="M39.5684 61.8177L46.6776 60.6015C73.0549 83.3276 83.889 126.987 116.221 150.115L108.439 159.736C52.3488 152.81 38.4464 99.5554 39.5684 61.8177Z" fill="#191847"/>
        <path fill-rule="evenodd" clip-rule="evenodd" d="M8.57751 150.103C8.57751 150.103 51.3355 150.103 71.4813 150.103C74.3557 150.103 73.8141 145.964 73.3986 143.875C68.6031 119.767 49.8834 93.78 49.8834 59.4632L31.7389 56.6255C16.7312 80.6988 11.5412 110.338 8.57751 150.103Z" fill="#2F3676"/>
        <path fill-rule="evenodd" clip-rule="evenodd" d="M10.9877 80.8252C7.6862 80.5899 4.70622 79.212 2.8225 75.822C-3.80932 63.8871 -1.41426 57.316 5.67305 55.1561C9.57028 53.9684 13.2356 54.7791 17.6232 55.7495C21.2147 56.5439 25.2901 57.4452 30.3727 57.4452C30.8651 57.4452 31.3132 57.4782 31.7199 57.5411L37.7405 57.8837C37.7405 57.8837 62.1859 140.514 51.2243 168.142H1.50447C-1.32259 174.914 -4.09483 180.823 -6.70705 185.362H-20.1977C-21.6491 138.556 -3.88178 102.541 10.9877 80.8252Z" fill="#2F3676"/>
    </g>
</svg>
