<svg width="81" height="112" viewBox="0 0 81 112" fill="none" 
    xmlns="http://www.w3.org/2000/svg">
    <path fill-rule="evenodd" clip-rule="evenodd" d="M40.3127 111.434C62.5434 111.434 80.5649 93.4279 80.5649 71.2168C80.5649 49.0057 62.5434 31 40.3127 31C18.0821 31 0.0605469 49.0057 0.0605469 71.2168C0.0605469 93.4279 18.0821 111.434 40.3127 111.434Z" fill="#FF9B21"/>
    <mask id="mask0" mask-type="alpha" maskUnits="userSpaceOnUse" x="0" y="0" width="81" height="112">
        <path fill-rule="evenodd" clip-rule="evenodd" d="M40.3127 111.434C62.5434 111.434 80.5649 93.4279 80.5649 71.2168C80.5649 49.0057 62.5434 31 40.3127 31C18.0821 31 0.0605469 49.0057 0.0605469 71.2168C0.0605469 93.4279 18.0821 111.434 40.3127 111.434Z" fill="#FF9B21"/>
        <path fill-rule="evenodd" clip-rule="evenodd" d="M40.3127 80.4336C62.5434 80.4336 80.5649 62.4279 80.5649 40.2168C80.5649 18.0057 62.5434 0 40.3127 0C18.0821 0 0.0605469 18.0057 0.0605469 40.2168C0.0605469 62.4279 18.0821 80.4336 40.3127 80.4336Z" fill="#FF9B21"/>
    </mask>
    <g mask="url(#mask0)">
        <path fill-rule="evenodd" clip-rule="evenodd" d="M46.364 51.4901C51.9141 54.8354 57.3673 56.4518 59.9272 55.7919C66.346 54.1374 66.9362 30.6552 61.9696 21.3978C57.003 12.1404 31.4705 8.10545 30.1836 26.4473C29.7369 32.8132 32.4099 38.4943 36.3592 43.13L29.2778 76.136H49.8477L46.364 51.4901Z" fill="#B28B67"/>
        <path fill-rule="evenodd" clip-rule="evenodd" d="M47.3924 28.4728C49.1716 25.8236 50.8798 23.8028 53.1019 22.6293C62.1449 22.7722 63.2037 21.151 63.2037 15.687C61.7431 14.6418 56.5894 12.8819 50.818 12.3869C47.8737 11.5444 44.3859 11.7028 41.0261 13.1082C36.8784 14.285 33.3665 16.8194 31.8152 21.5642C26.2028 31.2498 30.4627 41.3322 36.2034 44.7764C37.7315 42.966 39.065 41.2115 40.2549 39.5319C39.299 38.5982 38.7057 37.295 38.7057 35.8532C38.7057 33.0131 41.0081 30.7107 43.8482 30.7107C44.057 30.7107 44.2628 30.7232 44.4651 30.7473C44.5929 34.2982 45.1188 46.3118 46.5003 50.4848C48.1291 55.4045 57.6331 56.6124 60.9479 56.6124C63.8109 56.6124 63.7133 53.9013 63.6434 51.9583C63.6333 51.6785 63.6238 51.4146 63.6238 51.1771C63.6238 50.6807 62.9782 50.682 62.2488 50.6834C61.3016 50.6853 60.2131 50.6875 60.2131 49.6008C60.2131 48.4162 61.8501 47.5075 63.315 46.6944C64.229 46.1871 65.0759 45.717 65.4165 45.2403C66.4909 43.7364 66.8528 41.7079 65.2319 41.7079C64.3459 41.7079 63.1302 42.2187 61.6677 42.8332C59.4599 43.761 56.6894 44.9251 53.6409 44.9251C48.6048 44.9251 47.4072 28.6756 47.3924 28.4728Z" fill="#191847"/>
        <path fill-rule="evenodd" clip-rule="evenodd" d="M129.757 112.737L98.7011 126.375L108.617 139.079L131.876 121.247C143.494 119.113 148.882 117.28 148.04 115.747C147.33 114.455 146.009 114.382 144.793 114.315C143.845 114.263 142.961 114.214 142.477 113.595C141.374 112.181 144.097 107.815 146.859 103.781C149.62 99.7479 147.032 99.8936 145.517 100.376C140.451 103.195 135.197 107.316 129.757 112.737ZM-9.29057 133.617L-26.8535 130.132C-38.7647 161.526 -45.8658 178.73 -48.157 181.744C-49.8371 183.953 -60.1987 189.645 -67.212 192.685C-70.027 193.905 -69.4226 196.284 -68.597 197.045C-63.3891 201.845 -58.5475 200.162 -53.2772 198.331C-51.7514 197.801 -50.1898 197.258 -48.5728 196.856C-44.3877 195.817 -43.1142 197.969 -41.9106 200.003C-40.845 201.804 -39.8342 203.512 -36.9062 202.83C-37.0393 202.256 -37.203 201.612 -37.3795 200.917C-38.521 196.426 -40.2043 189.802 -37.7069 185.954C-36.4253 183.979 -26.9531 166.533 -9.29057 133.617Z" fill="#B28B67"/>
        <path fill-rule="evenodd" clip-rule="evenodd" d="M38.4443 64.4216L45.8555 63.1504C61.998 78.8093 68.5854 116.429 79.3431 121.409C89.5142 126.117 103.932 121.561 121.071 115.41L126.319 127.136C110.747 143.983 77.5735 158.216 64.1267 150.09C42.6281 137.1 37.665 90.701 38.4443 64.4216Z" fill="#C5CFD6"/>
        <path fill-rule="evenodd" clip-rule="evenodd" d="M6.13684 157.558C6.13684 157.558 50.7114 157.558 71.7131 157.558C74.7096 157.558 74.1449 153.231 73.7118 151.048C68.7126 125.85 49.1975 98.687 49.1975 62.8177L30.2822 59.8516C14.6369 85.014 9.22646 115.994 6.13684 157.558Z" fill="#2F3676"/>
        <path fill-rule="evenodd" clip-rule="evenodd" d="M29.2779 59.8516H29.062C-13.3646 85.9962 -39.0049 126.524 -47.859 181.435L-34.1137 184.128C-25.0085 173.52 -13.7719 156.159 -0.403721 132.046C-4.50515 146.572 -7.49957 161.47 -8.43346 175.557H50.5954C62.0227 146.678 36.5514 59.8516 36.5514 59.8516H32.4761H29.2779Z" fill="#C5CFD6"/>
    </g>
</svg>
