<svg width="81" height="112" viewBox="0 0 81 112" fill="none" 
    xmlns="http://www.w3.org/2000/svg">
    <path fill-rule="evenodd" clip-rule="evenodd" d="M40.2521 111.434C62.4828 111.434 80.5043 93.4279 80.5043 71.2168C80.5043 49.0057 62.4828 31 40.2521 31C18.0214 31 -6.10352e-05 49.0057 -6.10352e-05 71.2168C-6.10352e-05 93.4279 18.0214 111.434 40.2521 111.434Z" fill="#FF9B21"/>
    <mask id="mask0" mask-type="alpha" maskUnits="userSpaceOnUse" x="0" y="0" width="81" height="112">
        <path fill-rule="evenodd" clip-rule="evenodd" d="M40.2522 111.434C62.4828 111.434 80.5043 93.4279 80.5043 71.2168C80.5043 49.0057 62.4828 31 40.2522 31C18.0215 31 0 49.0057 0 71.2168C0 93.4279 18.0215 111.434 40.2522 111.434Z" fill="#FF9B21"/>
        <path fill-rule="evenodd" clip-rule="evenodd" d="M40.2522 80.4336C62.4828 80.4336 80.5043 62.4279 80.5043 40.2168C80.5043 18.0057 62.4828 0 40.2522 0C18.0215 0 0 18.0057 0 40.2168C0 62.4279 18.0215 80.4336 40.2522 80.4336Z" fill="#FF9B21"/>
    </mask>
    <g mask="url(#mask0)">
        <path fill-rule="evenodd" clip-rule="evenodd" d="M41.4051 48.4632C46.6947 51.6515 51.892 53.192 54.3316 52.5631C60.4493 50.9862 61.0117 28.6062 56.2782 19.7833C51.5447 10.9604 27.2106 7.11483 25.9841 24.5958C25.5584 30.6629 28.1059 36.0774 31.8699 40.4955L25.1208 71.9523H44.7252L41.4051 48.4632Z" fill="#D4A181"/>
        <path fill-rule="evenodd" clip-rule="evenodd" d="M53.0281 10.0953C57.1665 10.595 60.5738 11.0064 62.0646 10.0572C63.1285 16.7257 59.6969 22.1027 47.6322 21.0631C44.9719 22.5513 43.0786 25.3398 40.7995 28.9975C40.2444 28.7793 39.6399 28.6595 39.0074 28.6595C36.3006 28.6595 34.1063 30.8538 34.1063 33.5606C34.1063 34.9347 34.6718 36.1767 35.5828 37.0667C34.4487 38.6674 33.1778 40.3395 31.7214 42.065C26.2866 38.8043 22.2443 29.3011 27.4335 20.1269C30.5308 7.37866 43.6546 8.9634 53.0281 10.0953Z" fill="#191847"/>
        <path fill-rule="evenodd" clip-rule="evenodd" d="M121.087 106.199L88.8352 110.598L94.6216 125.047L120.791 114.672C132.071 115.785 137.525 115.517 137.154 113.869C136.841 112.479 135.642 112.059 134.538 111.672C133.677 111.371 132.875 111.09 132.593 110.386C131.949 108.778 135.615 105.446 139.229 102.433C142.843 99.4204 140.417 98.8661 138.892 98.9106C133.474 100.181 127.538 102.61 121.087 106.199ZM-35.8178 185.419C-33.4241 180.563 -12.4789 118.063 -12.4789 118.063L5.408 118.13C5.408 118.13 -24.0122 184.336 -25.2723 187.459C-26.9092 191.516 -24.1287 197.41 -22.2433 201.407C-21.9516 202.025 -21.6813 202.598 -21.4522 203.111C-24.0683 204.282 -25.325 202.867 -26.6498 201.375C-28.1463 199.69 -29.7297 197.908 -33.4571 199.642C-34.8972 200.312 -36.2599 201.104 -37.5913 201.878C-42.1902 204.551 -46.4149 207.007 -52.1621 203.46C-53.0732 202.898 -54.0717 200.781 -51.6593 199.127C-45.6491 195.006 -36.9881 187.793 -35.8178 185.419Z" fill="#997659"/>
        <path fill-rule="evenodd" clip-rule="evenodd" d="M36.5155 61.3335L50.5203 62.2665C53.9694 93.4712 72.7566 113.181 114.82 106.509L120.408 146.693C81.0937 151.774 46.6147 136.034 39.5484 93.4181C37.7192 82.3861 36.2748 70.9052 36.5155 61.3335Z" fill="#F2F2F2"/>
        <path fill-rule="evenodd" clip-rule="evenodd" d="M-33.3642 177.326C-23.6407 125.59 -3.11752 85.5643 28.2052 57.249H29.5492H29.5949L29.6061 57.262L50.8252 62.1218C50.8252 87.6107 56.4958 106.656 61.9476 124.966C64.302 132.873 66.6155 140.643 68.4139 148.736H11.1067C10.2995 158.008 9.80371 167.538 9.54539 177.326H-33.3642Z" fill="#F2F2F2"/>
        <path fill-rule="evenodd" clip-rule="evenodd" d="M11.1067 148.736C12.7502 129.859 15.685 112.051 20.5367 95.3125C19.4733 113.213 19.1781 135.42 22.754 148.736H11.1067Z" fill="black" fill-opacity="0.1"/>
    </g>
</svg>
