<svg width="36" height="36" viewBox="0 0 36 36" fill="none" 
    xmlns="http://www.w3.org/2000/svg">
    <path d="M26.1264 13.1053C25.2098 11.5348 23.9664 10.2913 22.396 9.37479C20.8253 8.45818 19.1106 8 17.2507 8C15.3909 8 13.6757 8.45833 12.1053 9.37479C10.5348 10.2913 9.29144 11.5348 8.37479 13.1053C7.45828 14.6759 7 16.3909 7 18.2504C7 20.484 7.65168 22.4926 8.95536 24.2766C10.2589 26.0607 11.9429 27.2952 14.0072 27.9803C14.2475 28.0249 14.4253 27.9936 14.541 27.887C14.6567 27.7804 14.7145 27.6467 14.7145 27.4868C14.7145 27.4601 14.7122 27.2199 14.7078 26.766C14.7032 26.3122 14.701 25.9162 14.701 25.5783L14.394 25.6315C14.1983 25.6673 13.9514 25.6825 13.6532 25.6782C13.3553 25.674 13.0459 25.6428 12.7257 25.5847C12.4052 25.5272 12.1072 25.3937 11.8313 25.1846C11.5556 24.9755 11.3599 24.7018 11.2442 24.3639L11.1107 24.0568C11.0218 23.8523 10.8817 23.6251 10.6903 23.3761C10.499 23.1269 10.3055 22.958 10.1098 22.869L10.0163 22.8021C9.95406 22.7577 9.89627 22.704 9.84284 22.6418C9.78945 22.5796 9.74948 22.5173 9.72279 22.455C9.69605 22.3926 9.71821 22.3414 9.7895 22.3012C9.86079 22.261 9.98963 22.2416 10.1766 22.2416L10.4434 22.2814C10.6214 22.3171 10.8415 22.4236 11.1041 22.6017C11.3666 22.7796 11.5823 23.0109 11.7514 23.2956C11.9562 23.6605 12.2029 23.9385 12.4922 24.1299C12.7813 24.3212 13.0728 24.4167 13.3663 24.4167C13.6599 24.4167 13.9135 24.3945 14.1271 24.3502C14.3405 24.3057 14.5408 24.2388 14.7277 24.1499C14.8078 23.5535 15.0258 23.0953 15.3816 22.775C14.8745 22.7217 14.4186 22.6414 14.0136 22.5347C13.6088 22.4278 13.1906 22.2544 12.7591 22.0139C12.3274 21.7738 11.9692 21.4756 11.6846 21.1198C11.3999 20.7639 11.1662 20.2966 10.9839 19.7183C10.8016 19.1399 10.7104 18.4726 10.7104 17.7163C10.7104 16.6394 11.0619 15.723 11.7649 14.9666C11.4356 14.1571 11.4667 13.2495 11.8582 12.244C12.1163 12.1638 12.499 12.224 13.0061 12.4241C13.5133 12.6243 13.8847 12.7959 14.1206 12.9381C14.3565 13.0802 14.5455 13.2007 14.6879 13.2984C15.5156 13.0671 16.3697 12.9515 17.2506 12.9515C18.1314 12.9515 18.9857 13.0671 19.8135 13.2984L20.3206 12.9782C20.6675 12.7646 21.077 12.5688 21.5484 12.3908C22.02 12.213 22.3806 12.164 22.6299 12.2441C23.0301 13.2497 23.0658 14.1572 22.7364 14.9668C23.4393 15.7232 23.791 16.6398 23.791 17.7164C23.791 18.4727 23.6995 19.1421 23.5174 19.725C23.3351 20.308 23.0994 20.7749 22.8103 21.1265C22.5209 21.4781 22.1604 21.774 21.729 22.0141C21.2974 22.2544 20.879 22.4278 20.4742 22.5347C20.0693 22.6415 19.6133 22.7219 19.1062 22.7752C19.5687 23.1755 19.8001 23.8073 19.8001 24.6704V27.4864C19.8001 27.6464 19.8557 27.7799 19.967 27.8867C20.0783 27.9932 20.2539 28.0246 20.4942 27.9799C22.5587 27.2949 24.2427 26.0603 25.5462 24.2762C26.8496 22.4922 27.5015 20.4837 27.5015 18.25C27.501 16.3908 27.0425 14.6759 26.1264 13.1053Z" fill="#C8C8C8"/>
</svg>
