<svg width="36" height="36" viewBox="0 0 36 36" fill="none" 
    xmlns="http://www.w3.org/2000/svg">
    <path d="M21.3085 9.22632H13.6913C11.1045 9.22632 9 11.3309 9 13.9177V21.5349C9 24.1218 11.1045 26.2263 13.6913 26.2263H21.3085C23.8955 26.2263 26 24.1217 26 21.5349V13.9177C26.0001 11.3309 23.8955 9.22632 21.3085 9.22632ZM24.4918 21.5349C24.4918 23.2901 23.0638 24.718 21.3086 24.718H13.6913C11.9362 24.7181 10.5083 23.2901 10.5083 21.5349V13.9177C10.5083 12.1626 11.9362 10.7346 13.6913 10.7346H21.3085C23.0637 10.7346 24.4917 12.1626 24.4917 13.9177V21.5349H24.4918Z" fill="#C8C8C8"/>
    <path d="M17.5001 13.3461C15.0847 13.3461 13.1196 15.3111 13.1196 17.7265C13.1196 20.1419 15.0847 22.1068 17.5001 22.1068C19.9155 22.1068 21.8806 20.1419 21.8806 17.7265C21.8806 15.3111 19.9155 13.3461 17.5001 13.3461ZM17.5001 20.5984C15.9165 20.5984 14.628 19.3101 14.628 17.7264C14.628 16.1427 15.9164 14.8543 17.5001 14.8543C19.0838 14.8543 20.3722 16.1427 20.3722 17.7264C20.3722 19.3101 19.0837 20.5984 17.5001 20.5984Z" fill="#C8C8C8"/>
    <path d="M22.0641 12.0671C21.7735 12.0671 21.488 12.1847 21.2828 12.3909C21.0766 12.596 20.958 12.8816 20.958 13.1732C20.958 13.4639 21.0767 13.7494 21.2828 13.9555C21.4879 14.1606 21.7735 14.2793 22.0641 14.2793C22.3557 14.2793 22.6403 14.1606 22.8464 13.9555C23.0526 13.7494 23.1702 13.4638 23.1702 13.1732C23.1702 12.8816 23.0526 12.596 22.8464 12.3909C22.6413 12.1847 22.3557 12.0671 22.0641 12.0671Z" fill="#C8C8C8"/>
</svg>
