<svg width="36" height="36" viewBox="0 0 36 36" fill="none" 
    xmlns="http://www.w3.org/2000/svg">
    <path fill-rule="evenodd" clip-rule="evenodd" d="M24.4394 13.4866C25.1519 13.037 25.6986 12.324 25.9552 11.4748C25.2881 11.8921 24.5509 12.1939 23.7644 12.3573C23.1368 11.6496 22.2398 11.2083 21.247 11.2083C19.3425 11.2083 17.7991 12.8371 17.7991 14.8459C17.7991 15.131 17.8277 15.4089 17.8869 15.6743C15.0211 15.5224 12.4801 14.0757 10.7778 11.8734C10.4808 12.4125 10.311 13.037 10.311 13.7031C10.311 14.9645 10.9199 16.0782 11.8455 16.7318C11.2801 16.713 10.7482 16.5476 10.2824 16.277V16.3217C10.2824 18.0848 11.4705 19.5554 13.0505 19.8885C12.7603 19.9738 12.4564 20.0165 12.1406 20.0165C11.9186 20.0165 11.7015 19.9946 11.4923 19.952C11.9304 21.3966 13.2044 22.4499 14.7142 22.478C13.533 23.4542 12.0459 24.035 10.4304 24.035C10.1521 24.035 9.87683 24.0194 9.60742 23.985C11.134 25.0165 12.9468 25.6191 14.8948 25.6191C21.2401 25.6191 24.7078 20.0758 24.7078 15.2684C24.7078 15.1102 24.7059 14.9531 24.699 14.798C25.373 14.2849 25.9591 13.6438 26.42 12.9142C25.8012 13.2035 25.1361 13.3992 24.4394 13.4866Z" fill="#C8C8C8"/>
</svg>
