<svg width="593" height="529" viewBox="0 0 593 529" fill="none" xmlns="http://www.w3.org/2000/svg">
<g opacity="0.504511">
<path fill-rule="evenodd" clip-rule="evenodd" d="M592.754 353.366C600.962 405.702 401.9 439.838 230.562 416.015C59.2244 392.192 -19.3772 299.16 62.3823 249.589C144.142 200.018 584.546 301.031 592.754 353.366Z" fill="#F2F2F2"/>
</g>
<path fill-rule="evenodd" clip-rule="evenodd" d="M346.505 135.283C349.602 133.265 354.407 134.551 357.525 135.742C358.727 136.202 361.797 137.671 364.074 139.325C363.773 138.179 363.505 137.022 363.27 135.857C362.307 131.064 361.643 126.18 361.324 121.325C361.241 120.058 361.35 118.643 361.459 117.21C361.496 116.724 361.534 116.236 361.564 115.751C361.439 115.637 361.355 115.479 361.32 115.264C361.306 115.353 361.299 115.424 361.293 115.479C361.284 115.566 361.279 115.61 361.263 115.615C361.247 115.62 361.218 115.582 361.16 115.506C361.138 115.477 361.111 115.442 361.079 115.402C358.775 112.463 356.839 109.152 356.574 105.512C356.348 102.425 359.323 96.5836 363.54 100.627C365.426 102.433 364.936 115.116 362.103 115.893C362.86 120.095 363.811 124.291 365.003 128.433C365.182 128.406 365.364 128.404 365.544 128.425C365.527 127.395 365.526 126.271 365.575 125.885C366 122.556 369.26 115.798 374.451 117.11C378.44 118.119 375.995 122.269 374.637 124.086C372.452 127.011 369.981 128.278 366.85 129.799C366.788 130.427 366.312 130.793 365.751 130.912C367.847 137.601 370.601 144.125 374.205 150.288L374.301 149.896C374.758 148.025 375.292 145.845 375.629 145.387C377.396 142.989 381.306 140.061 384.911 141.48C392.484 144.463 384.264 153.037 377.817 153.97C377.549 154.286 377.266 154.54 376.964 154.686C378.217 156.546 379.555 158.367 380.988 160.142C383.136 162.811 385.445 165.472 387.866 168.117C387.941 166.048 388.899 161.436 389.17 160.941C390.824 157.932 395.588 154.836 399.454 156.974C403.802 159.384 399.859 163.938 397.38 165.999C396.363 166.844 391.336 169.941 389.563 169.955C395.411 176.192 401.866 182.323 408.429 188.232C407.886 185.587 407.175 178.302 407.255 177.493C407.662 173.32 410.878 166.644 417.214 168.271C423.36 169.847 420.641 176.781 418.537 180.087C417.263 182.087 415.5 184.12 413.375 185.516C412.992 185.767 412.492 185.972 411.993 186.177C411.39 186.424 410.789 186.671 410.397 186.997C410.047 187.288 409.939 187.622 409.833 187.953C409.72 188.303 409.609 188.65 409.213 188.939C412.76 192.119 416.332 195.232 419.853 198.259C421.514 199.688 423.205 201.089 424.913 202.472C425.847 202.142 427.18 202.576 427.11 203.705C427.1 203.869 427.056 204.01 426.996 204.14C428.29 205.167 429.593 206.187 430.906 207.196C430.876 206.902 430.885 206.488 430.945 205.915C430 207.062 430.039 205.392 430.069 204.118L430.069 204.118C430.08 203.668 430.089 203.268 430.054 203.059C429.915 202.241 429.735 201.43 429.556 200.621C429.173 198.893 428.791 197.17 428.81 195.387C428.851 191.601 431.662 185.254 437.577 187.509C443.016 189.578 441.037 195.189 438.985 198.707C437.686 200.933 435.909 202.921 434.051 204.824C433.72 205.164 433.352 205.624 432.989 206.079C432.448 206.755 431.916 207.421 431.522 207.669C436.572 211.53 441.741 215.279 446.91 219.027L446.91 219.027C449.226 220.706 451.541 222.385 453.846 224.075C453.946 223.704 454.029 223.336 454.101 222.992C453.956 223.131 453.76 223.196 453.509 223.183C453.442 222.899 453.345 222.522 453.228 222.068C451.805 216.531 447.469 199.666 459.208 202.935C467.809 205.336 461.738 220.021 455.323 225.158C459.216 228.026 463.072 230.931 466.838 233.922C469.562 236.087 472.207 238.326 474.751 240.639C473.434 237.644 472.194 233.766 473.008 230.68C474.193 226.189 479.747 221.948 485.168 224.504C491.928 227.703 486.728 232.073 481.851 236.171L481.851 236.171C479.361 238.263 476.956 240.284 476.27 242.043C484.356 249.631 491.26 258.061 495.872 267.664C500.889 278.108 505.546 292.14 502.971 303.824C503.446 298.686 501.412 292.236 499.984 287.706C499.789 287.089 499.606 286.507 499.442 285.97C497.296 278.944 494.247 272.108 490.229 265.709C483.793 255.461 475.292 246.761 465.477 238.863C463.242 239.527 460.815 240.758 458.804 241.777L458.804 241.777L458.804 241.777C457.571 242.402 456.495 242.948 455.716 243.234C451.961 244.617 444.751 246.599 442.358 242.244C440.006 237.961 446.01 235.566 449.731 234.606C453.327 233.68 456.569 233.792 459.924 234.551C454.729 230.62 449.406 226.814 444.085 223.008C443.107 222.309 442.129 221.609 441.151 220.908C439.798 221.855 438.305 223.223 436.719 224.675L436.718 224.675C431.684 229.285 425.721 234.747 420.394 230.285C412.356 223.551 427.729 216.706 434.279 217.241C435.083 217.306 435.861 217.451 436.62 217.647C429.94 212.808 423.364 207.87 417.145 202.584C416.029 202.758 414.252 204.159 412.118 205.843L412.118 205.843C407.321 209.627 400.718 214.836 395.744 210.735C392.154 207.774 393.383 203.162 396.854 200.526C400.338 197.878 405.39 197.882 409.683 198.774C411.539 199.158 413.251 199.89 414.848 200.782C414.916 200.785 414.981 200.789 415.046 200.792C408.926 195.535 402.769 190.161 396.839 184.603L396.674 184.648L396.523 184.69C396.164 185.065 395.564 185.202 395.014 185.119C394.712 185.208 394.403 185.299 394.088 185.392L394.086 185.392C389.388 186.776 383.351 188.555 378.669 187.788C375.223 187.223 372.097 184.832 375.014 181.889C377.385 179.495 383.818 179.839 386.956 180.406C388.487 180.683 390.154 181.485 391.826 182.291C392.529 182.629 393.232 182.968 393.927 183.269C394.108 182.958 394.423 182.758 394.782 182.662C388.925 177.077 383.338 171.299 378.269 165.27C376.736 165.473 375.034 166.048 373.279 166.641C369.057 168.068 364.525 169.6 361.273 166.301C356.471 161.429 365.501 158.586 369.794 159.049C371.243 159.205 372.673 159.555 374.052 160.019C370.365 155.055 367.548 149.749 365.569 144.176C365.55 144.185 365.532 144.193 365.515 144.202C365.487 144.215 365.459 144.228 365.425 144.241C365.454 144.227 365.481 144.213 365.507 144.199C365.526 144.188 365.545 144.177 365.566 144.167C365.369 143.61 365.179 143.05 364.999 142.488C364.663 142.328 364.35 142.211 364.2 142.163C366.15 143.31 357.922 143.872 356.381 143.977C352.975 144.209 348.411 144.296 345.912 141.914C343.813 139.913 343.936 136.957 346.505 135.283ZM503.337 303.84C503.192 305.533 502.833 307.083 502.164 308.362C502.666 306.906 503.051 305.394 503.337 303.84Z" fill="#F2F2F2"/>
<path opacity="0.2" fill-rule="evenodd" clip-rule="evenodd" d="M191.831 27.1536C189.571 25.6953 186.061 26.6269 183.784 27.4892C182.907 27.8218 180.665 28.8852 179.001 30.0817C179.221 29.2528 179.418 28.4166 179.59 27.5736C180.295 24.1076 180.782 20.5759 181.017 17.0649C181.078 16.1491 181 15.1259 180.92 14.0894L180.92 14.0892C180.893 13.7381 180.866 13.3855 180.844 13.0349C180.936 12.9521 180.997 12.8377 181.023 12.6828C181.032 12.747 181.038 12.7985 181.042 12.8379C181.049 12.9008 181.052 12.9328 181.064 12.9362C181.076 12.9397 181.097 12.9126 181.139 12.8575C181.156 12.8364 181.175 12.8112 181.199 12.782C182.882 10.6564 184.297 8.26146 184.492 5.62928C184.658 3.39692 182.489 -0.825805 179.408 2.09939C178.03 3.4058 178.382 12.5764 180.451 13.1375C179.896 16.1766 179.2 19.2106 178.328 22.2062C178.197 22.1868 178.064 22.1851 177.932 22.2003C177.945 21.4557 177.947 20.6431 177.911 20.3637C177.603 17.957 175.225 13.0714 171.434 14.0217C168.522 14.7522 170.305 17.7528 171.295 19.0661C172.889 21.1804 174.694 22.0955 176.978 23.1944C177.024 23.6489 177.371 23.913 177.78 23.9987C176.247 28.8365 174.234 33.555 171.6 38.0123L171.53 37.7293C171.197 36.3768 170.808 34.7998 170.562 34.4686C169.273 32.7357 166.419 30.6195 163.786 31.6464C158.256 33.806 164.254 40.0035 168.961 40.6759C169.156 40.9043 169.363 41.0879 169.583 41.1931C168.668 42.5386 167.689 43.8562 166.643 45.1399C165.073 47.0707 163.386 48.9954 161.617 50.9088C161.564 49.4127 160.866 46.0784 160.668 45.7202C159.462 43.545 155.985 41.3078 153.161 42.8546C149.986 44.5987 152.862 47.8906 154.672 49.3801C155.414 49.9908 159.083 52.2285 160.378 52.238C156.105 56.7503 151.389 61.1855 146.595 65.4605C146.993 63.5475 147.514 58.2793 147.457 57.6947C147.161 54.6771 144.816 49.8512 140.19 51.0293C135.701 52.1706 137.683 57.1841 139.218 59.5737C140.148 61.02 141.434 62.4894 142.985 63.4977C143.264 63.6794 143.629 63.8276 143.994 63.9756C144.433 64.1541 144.872 64.3322 145.159 64.568C145.414 64.7783 145.492 65.0198 145.57 65.2592C145.652 65.5122 145.733 65.7628 146.022 65.972C143.431 68.2723 140.821 70.5246 138.25 72.7145C137.036 73.7481 135.801 74.7617 134.553 75.7626C133.871 75.5238 132.898 75.8386 132.948 76.6547C132.955 76.7733 132.988 76.8755 133.031 76.9693C132.086 77.7124 131.134 78.4503 130.175 79.1802C130.197 78.9677 130.191 78.668 130.147 78.2542C130.837 79.0832 130.809 77.8753 130.787 76.9545C130.78 76.6291 130.773 76.3396 130.799 76.1885C130.901 75.5967 131.032 75.0108 131.164 74.4258L131.164 74.4257C131.444 73.1758 131.724 71.9299 131.711 70.6403C131.683 67.9027 129.633 63.3145 125.313 64.9465C121.341 66.4445 122.783 70.5013 124.28 73.0444C125.227 74.6537 126.524 76.0905 127.88 77.4659C128.121 77.7115 128.39 78.0439 128.655 78.3731C129.049 78.8617 129.438 79.3432 129.725 79.5224C126.036 82.3162 122.261 85.0281 118.485 87.7401L118.485 87.7402L118.482 87.742C116.792 88.9563 115.101 90.1705 113.419 91.3922C113.345 91.1242 113.285 90.8584 113.233 90.6098C113.338 90.7101 113.481 90.757 113.665 90.7477C113.714 90.5421 113.785 90.2691 113.871 89.941C114.912 85.9368 118.085 73.7405 109.513 76.1078C103.232 77.8471 107.658 88.4638 112.339 92.1762C109.496 94.2514 106.679 96.353 103.929 98.5173C101.938 100.083 100.006 101.703 98.1481 103.376C99.1105 101.21 100.018 98.4058 99.4247 96.1745C98.5613 92.9275 94.5084 89.863 90.5486 91.7126C85.6121 94.0283 89.4069 97.1863 92.9654 100.148C94.7825 101.66 96.5379 103.121 97.0379 104.392C91.1307 109.882 86.0866 115.98 82.7144 122.925C79.0469 130.478 75.6405 140.627 77.516 149.074C77.171 145.359 78.6588 140.694 79.7037 137.418L79.7041 137.417C79.8463 136.971 79.9802 136.551 80.1002 136.163C81.6702 131.082 83.8995 126.137 86.8359 121.509C91.5395 114.097 97.7504 107.804 104.92 102.089C106.551 102.569 108.323 103.458 109.791 104.194C110.691 104.646 111.476 105.04 112.045 105.247C114.786 106.246 120.05 107.676 121.798 104.527C123.518 101.429 119.135 99.6994 116.418 99.0065C113.793 98.3379 111.426 98.4198 108.976 98.9699C112.771 96.1259 116.658 93.372 120.545 90.6186L120.545 90.6183C121.26 90.112 121.975 89.6056 122.689 89.0987C123.676 89.7826 124.766 90.7714 125.924 91.8212C129.597 95.1532 133.949 99.1006 137.84 95.8723C143.712 91.0004 132.49 86.0561 127.708 86.4446C127.121 86.4919 126.553 86.5968 125.999 86.7394C130.878 83.2382 135.681 79.6651 140.224 75.841C141.039 75.9663 142.336 76.9792 143.894 78.1959C147.394 80.9306 152.213 84.6952 155.847 81.7278C158.47 79.5858 157.574 76.2517 155.041 74.3462C152.498 72.4326 148.81 72.4373 145.675 73.0837C144.319 73.3616 143.069 73.8916 141.903 74.5374C141.853 74.5397 141.806 74.5421 141.758 74.5443C146.229 70.7413 150.726 66.8532 155.059 62.8325C155.134 62.853 155.212 62.8741 155.289 62.8955C155.551 63.1665 155.989 63.2655 156.391 63.2054C156.612 63.2693 156.838 63.3352 157.069 63.4024C160.498 64.4015 164.905 65.6857 168.324 65.1295C170.84 64.7202 173.124 62.9905 170.996 60.863C169.265 59.1328 164.568 59.3834 162.277 59.7944C161.159 59.9952 159.941 60.5761 158.72 61.159L158.72 61.1591C158.207 61.4039 157.693 61.6491 157.185 61.8666C157.054 61.642 156.824 61.4978 156.562 61.4286C160.84 57.3882 164.922 53.2083 168.625 48.847C169.745 48.9932 170.987 49.4085 172.268 49.8369C175.351 50.8677 178.659 51.9739 181.035 49.5873C184.543 46.0631 177.951 44.0099 174.816 44.3459C173.758 44.4591 172.714 44.7131 171.707 45.0484C174.402 41.4579 176.46 37.6203 177.907 33.5903C177.921 33.5963 177.934 33.6024 177.947 33.6085C177.968 33.6182 177.988 33.6279 178.013 33.6371C178.003 33.6324 177.993 33.6277 177.984 33.6229C177.973 33.6174 177.963 33.6119 177.953 33.6063L177.953 33.6063C177.939 33.5987 177.925 33.591 177.91 33.5836C178.054 33.1804 178.193 32.7754 178.325 32.369C178.57 32.2537 178.799 32.1688 178.908 32.1338C177.484 32.9643 183.491 33.3678 184.616 33.4434C187.103 33.6101 190.435 33.6714 192.261 31.9482C193.794 30.5008 193.706 28.3634 191.831 27.1536ZM77.1435 148.741C77.2534 149.869 77.5798 150.899 78.2225 151.742C77.7507 150.778 77.3969 149.774 77.1435 148.741Z" fill="#C1DEE2"/>
<g opacity="0.5">
<path fill-rule="evenodd" clip-rule="evenodd" d="M159.61 124.694C163.364 120.132 170.329 108.546 175.612 106.916C179.015 105.866 178.023 116.727 178.065 118.798C178.228 126.811 177.313 134.772 176.183 142.717C174.147 157.046 167.49 169.807 158.359 182.002C153.66 188.277 148.149 194.628 140.516 198.544C137.002 200.347 132.774 200.649 129.305 202.202C125.263 204.011 127.464 202.549 125.643 206.138C123.114 211.122 122.305 217.551 121.135 222.869C115.762 247.28 102.754 376.321 105.009 401.152C105.209 403.352 101.609 403.879 101.429 401.192C100.474 386.946 108.74 288.292 112.911 256.029C117.081 223.767 121.301 195.264 125.533 184.102C130.667 170.56 139.938 154.275 147.657 141.647C151.241 135.78 155.149 130.116 159.61 124.694Z" fill="#C5CFD6"/>
<path fill-rule="evenodd" clip-rule="evenodd" d="M187.47 282.929C197.237 276.817 207.809 288.352 198.971 294.465C194.085 297.844 188.977 296.642 186.101 293.826C184.235 295.766 182.487 297.794 180.808 299.507C175.693 304.727 170.859 310.071 166.238 315.54C156.64 326.902 148.415 338.906 139.814 350.69C131.327 362.32 122.908 374.01 115.215 385.934C108.698 396.038 100.011 407.923 97.7803 418.999C101.166 395.509 114.011 372.93 129.308 352.222C144.481 331.683 161.893 309.253 185.386 293.044C182.995 290.047 182.929 285.769 187.47 282.929Z" fill="#C5CFD6"/>
<path fill-rule="evenodd" clip-rule="evenodd" d="M2.13049 225.639C7.59619 226.55 16.5271 237.089 21.0324 241.105C26.3867 245.877 31.2444 250.963 35.8234 256.292C45.6809 267.762 54.4968 279.958 61.9932 292.675C74.2144 313.408 84.0052 334.69 91.1108 357.267C95.4604 371.087 98.2765 385.41 99.9455 399.634C100.261 402.316 103.56 422.998 98.8059 423.556C94.5299 424.057 95.8506 407.852 95.6443 405.647C93.3124 380.777 86.3269 356.579 76.6101 333.138C74.4936 328.032 72.5273 321.777 69.1426 317.182C66.7051 313.872 69.1251 315.026 64.8416 313.774C61.1634 312.698 56.9728 312.961 53.2063 311.643C45.024 308.783 38.4724 303.231 32.7294 297.645C21.5688 286.791 12.7245 275.049 8.11442 261.14C5.55704 253.429 3.20694 245.672 1.90278 237.722C1.56542 235.668 -1.38992 225.052 2.13049 225.639Z" fill="#C5CFD6"/>
<path fill-rule="evenodd" clip-rule="evenodd" d="M23.6995 50.2887C44.2876 80.7233 61.2061 114.155 72.1305 148.016C78.7494 168.532 83.3781 189.585 87.9772 210.485C95.098 242.847 101.833 275.206 103.749 308.143C105.677 341.27 109.489 379.479 96.7625 411.386C103.119 378.991 97.0672 344.51 95.9957 311.915C95.4836 296.354 93.9997 280.946 92.0531 265.477C90.1641 250.47 87.0781 235.535 84.2043 220.647C82.8044 213.396 81.3342 206.156 79.8373 198.92C79.3904 196.761 79.2017 190.355 77.5951 188.88C75.978 187.396 67.7278 186.791 65.1376 185.701C59.9218 183.507 55.0157 180.391 50.6736 177.098C42.3498 170.786 35.1085 162.539 29.3931 154.408C16.1692 135.596 10.8823 112.639 11.1495 90.8521C11.2008 86.6221 19.1817 41.0717 15.9765 40.4445C16.1694 40.2518 16.352 40.0529 16.5241 39.846C18.9508 43.3092 21.332 46.7959 23.6995 50.2887Z" fill="#C5CFD6"/>
<path fill-rule="evenodd" clip-rule="evenodd" d="M245.914 160.054C246.231 159.663 248.299 156.947 247.258 157.121C249.377 156.767 244.342 160.117 249.624 158.062C247.116 160.08 248.563 162.703 248.597 165.42C248.651 169.832 247.785 174.207 246.811 178.524C245.27 185.347 242.976 191.982 239.645 198.329C232.386 212.16 220.06 225.475 205.427 234.122C198.203 238.391 191.123 239.845 182.884 241.81C177.68 243.052 177.267 245.346 174.504 249.651C168.753 258.617 163.105 267.55 158.033 276.818C151.977 287.885 146.097 298.964 140.552 310.226C121.869 348.161 106.663 387.463 98.6776 428.136C98.4821 404.167 104.987 379.482 113.192 356.636C119.169 339.991 126.95 323.945 135.25 308.062C137.261 304.215 140.308 299.265 141.162 295.017C141.76 292.04 139.932 289.178 139.095 286.042C135.832 273.832 136.065 260.153 138.931 247.878C142.091 234.342 151.228 228.059 166.686 226.142C172.339 225.441 179.524 225.698 184.708 223.643C190.356 221.406 192.685 214.051 195.897 209.33C204.522 196.649 214.771 184.487 226.539 173.802C229.798 170.843 233.302 168.114 237.019 165.584C239.364 163.987 244.316 162.021 245.914 160.054Z" fill="#C5CFD6"/>
<path fill-rule="evenodd" clip-rule="evenodd" d="M68.4242 408.102C67.8953 405.045 70.2488 402.249 73.351 402.249H126.676C129.778 402.249 132.131 405.045 131.602 408.102L128.241 427.533C126.582 437.121 118.263 444.124 108.533 444.124H91.4933C81.7632 444.124 73.4449 437.121 71.7861 427.533L68.4242 408.102Z" fill="#C5CFD6"/>
</g>
<path fill-rule="evenodd" clip-rule="evenodd" d="M23.1248 414.777C23.1248 430.984 24.6252 444.123 44.765 444.123C64.9048 444.123 66.4053 430.984 66.4053 414.777" fill="#F2F2F2"/>
<path fill-rule="evenodd" clip-rule="evenodd" d="M50.7563 404.665C50.018 405.753 49.3598 406.863 48.7784 407.989C48.7578 405.669 48.9083 403.333 49.3193 400.964C50.0217 396.906 51.0946 392.87 52.1028 388.84C52.8273 385.944 52.7815 380.742 55.5313 378.434C56.2853 377.935 56.4669 378.913 56.4669 379.338C56.4763 379.428 56.4648 377.605 55.7328 377.922C51.3824 379.838 49.9728 385.86 48.58 388.875C46.5479 393.276 44.8189 397.775 44.107 402.353C43.927 403.51 43.8291 404.666 43.8065 405.821C43.6587 405.512 43.5198 405.201 43.3661 404.893C40.8552 399.873 37.4666 394.975 33.2404 390.458C32.2001 389.347 19.1199 378.38 18.0959 380.058C18.197 380.302 18.4085 380.504 18.731 380.665C18.75 380.683 18.7505 380.673 18.7395 380.646C19.5077 381.704 21.6918 383.338 22.3722 384.264C24.0844 386.597 25.4151 389.072 26.7673 391.5C29.6245 396.631 32.2748 401.813 34.8442 407.007C35.4424 408.217 36.0659 409.42 36.7021 410.619C30.1443 402.556 21.3961 395.237 9.35352 391.047C13.4666 392.83 16.1633 396.186 18.941 398.755C22.2912 401.855 25.8197 404.87 29.1762 407.966C33.1351 411.618 37.7934 415.464 41.6013 419.505C45.2898 426.106 48.8741 432.714 51.0867 439.652C50.1801 437.255 51.0157 433.942 50.8605 431.426C50.7373 429.424 50.4627 427.437 50.0864 425.455C50.5516 426.349 50.9525 427.244 51.1341 428.076C50.9683 426.68 50.7773 425.293 50.5721 423.913C51.0988 422.621 51.616 421.415 51.9654 420.422C53.756 415.327 55.8881 410.321 58.7915 405.441C61.4782 400.926 64.56 396.47 67.918 392.149C69.4845 390.134 71.0725 388.127 72.6505 386.117C73.6834 384.801 74.6668 382.694 76.1048 381.432C66.8094 388.677 56.6537 395.973 50.7563 404.665Z" fill="#F2F2F2"/>
<path fill-rule="evenodd" clip-rule="evenodd" d="M190.257 261.051C195.447 264.166 200.546 265.671 202.94 265.057C208.943 263.516 209.494 241.65 204.85 233.03C200.206 224.41 176.33 220.653 175.126 237.732C174.709 243.66 177.208 248.95 180.901 253.266L174.279 284H193.515L190.257 261.051Z" fill="#D4A181"/>
<path fill-rule="evenodd" clip-rule="evenodd" d="M207.14 224.943C207.14 229.205 203.784 232.687 199.559 232.912C197.143 233.654 194.038 234.199 190.594 234.429C190.929 235.681 191.11 237.103 191.11 238.711C191.11 240.13 190.953 241.635 190.663 243.163C189.917 242.279 188.918 241.702 187.904 241.702C185.069 241.702 183.096 244.025 183.096 246.491C183.096 249.62 184.91 251.884 187.559 252.065C185.174 256.625 181.875 260.058 178.579 260.058C172.319 260.058 167.868 251.724 167.868 242.763C167.868 242.448 167.874 242.136 167.886 241.825C165.767 243.273 163.803 245.172 161.826 247.083L161.826 247.083L161.826 247.083C157.623 251.146 153.357 255.269 147.399 255.269C135.478 255.269 130.744 231.327 147.399 231.327C158.725 231.327 164.297 232.972 169.098 235.403C170.045 232.745 171.489 230.51 173.255 228.949C173.68 228.473 174.331 228.017 175.171 227.595C175.685 227.315 176.217 227.087 176.763 226.915C179.659 225.856 183.853 225.108 188.538 224.945C189.413 224.915 190.272 224.906 191.11 224.917C191.124 220.521 194.707 216.962 199.125 216.962C203.551 216.962 207.14 220.535 207.14 224.943Z" fill="#191847"/>
<path fill-rule="evenodd" clip-rule="evenodd" d="M133.636 384.185C124.8 384.185 117.636 391.349 117.636 400.185V459.338C117.636 468.174 124.8 475.338 133.636 475.338H209.62C218.456 475.338 225.62 468.174 225.62 459.338V400.185C225.62 391.349 218.456 384.185 209.62 384.185H133.636ZM142.204 404.768C139.995 404.768 138.204 406.559 138.204 408.768V450.755C138.204 452.964 139.995 454.755 142.204 454.755H201.051C203.261 454.755 205.051 452.964 205.051 450.755V408.768C205.051 406.559 203.261 404.768 201.051 404.768H142.204Z" fill="#2F3676"/>
<path fill-rule="evenodd" clip-rule="evenodd" d="M298.46 471.662C283.978 453.964 274.178 440.843 269.062 432.3C260.302 417.672 253.133 404.656 250.87 399.684C245.475 387.828 263.291 382.276 267.323 387.806C273.426 396.177 286.46 422.515 306.424 466.823L298.46 471.662Z" fill="#D4A181"/>
<path fill-rule="evenodd" clip-rule="evenodd" d="M268.782 466.516L241.829 398.62C236.064 386.243 263.903 378.108 268.14 383.868C277.759 396.945 300.62 448.531 303.486 452.427L268.782 466.516Z" fill="#AFB9C5"/>
<path fill-rule="evenodd" clip-rule="evenodd" d="M196.996 452.898C202.246 445.234 221.342 419.45 231.744 408.782C234.733 405.716 237.65 402.774 240.408 400.032C248.608 391.882 264.937 405.583 256.753 413.006C236.371 431.493 206.633 456.45 204.148 458.675C200.665 461.794 193.696 457.715 196.996 452.898Z" fill="#D4A181"/>
<path fill-rule="evenodd" clip-rule="evenodd" d="M200.744 450.209C200.034 449.277 198.692 449.049 197.806 449.815C196.656 450.808 195.244 452.134 194.694 453.089C193.7 454.811 192.368 458.446 192.368 458.446C194.364 459.599 228.248 479.176 228.248 479.176C228.248 479.176 232.317 475.357 229.516 473.247C226.716 471.137 224.894 469.688 224.894 469.688L212.67 452.834C212.339 452.378 211.697 452.285 211.251 452.629L208.893 454.445C208.893 454.445 205.352 454.136 203.608 453.128C202.682 452.593 201.577 451.302 200.744 450.209Z" fill="#E4E4E4"/>
<path fill-rule="evenodd" clip-rule="evenodd" d="M294.799 468.424C293.718 467.972 292.442 468.446 292.057 469.553C291.558 470.988 290.998 472.843 290.998 473.945C290.998 475.933 291.66 479.748 291.66 479.748C293.965 479.748 333.091 479.748 333.091 479.748C333.091 479.748 334.706 474.405 331.227 473.979C327.747 473.553 325.446 473.21 325.446 473.21L306.438 464.73C305.924 464.501 305.321 464.741 305.106 465.262L303.973 468.015C303.973 468.015 300.751 469.519 298.738 469.519C297.668 469.519 296.066 468.954 294.799 468.424Z" fill="#E4E4E4"/>
<path fill-rule="evenodd" clip-rule="evenodd" d="M232.13 402.011C232.13 402.011 198.526 396.533 187.113 394.519C165.426 390.693 159.102 379.014 162.841 353.533L202.799 353.533C210.731 355.826 269.083 381.886 269.083 381.886C276.082 385.363 274.779 395.614 273.499 398.992C273.421 399.198 238.102 459.689 238.102 459.689L205.415 438.851L232.191 404.467C232.191 404.467 233.252 402.329 232.13 402.011Z" fill="#C5CFD6"/>
<path fill-rule="evenodd" clip-rule="evenodd" d="M125.275 385.588C127.427 381.218 138.183 324.973 138.183 324.973L154.268 325.034C154.268 325.034 135.891 384.614 134.758 387.424C133.286 391.075 135.787 396.379 137.482 399.975C137.744 400.532 137.987 401.047 138.194 401.51C135.841 402.563 134.711 401.29 133.519 399.947C132.174 398.431 130.75 396.827 127.398 398.387C126.103 398.99 124.877 399.703 123.68 400.399C119.544 402.805 115.745 405.015 110.577 401.824C109.757 401.318 108.859 399.413 111.029 397.924C116.434 394.216 124.222 387.725 125.275 385.588ZM260.749 363.673L239.939 343.358L233.028 355.326L254.667 368.092C260.092 376.645 263.279 380.341 264.227 379.179C265.025 378.199 264.659 377.126 264.322 376.137C264.059 375.366 263.814 374.647 264.151 374.064C264.92 372.732 269.264 373.495 273.356 374.395C277.448 375.295 276.501 373.284 275.631 372.234C271.764 369.111 266.803 366.257 260.749 363.673Z" fill="#D4A181"/>
<path fill-rule="evenodd" clip-rule="evenodd" d="M187.198 279.311L193.55 278.22C203.556 313.617 254.969 337.744 258.125 350.976C259.282 355.829 255.792 358.282 257.595 359.76L249.339 365.808C247.941 364.176 244.957 367.162 238.726 365.073C232.495 362.984 187.198 321.223 187.198 279.311Z" fill="#E87613"/>
<path fill-rule="evenodd" clip-rule="evenodd" d="M176.96 271.995C174.756 271.841 172.844 273.502 172.69 275.706L172.463 278.955C160.509 288.161 130.881 315.67 123.16 366.879C122.349 372.258 123.816 375.14 124.988 377.442C125.789 379.017 126.453 380.32 126.155 381.968L136.961 384.952C136.961 383.736 138.323 382.811 140.08 381.617C142.634 379.882 146.024 377.579 147.278 372.988C148.466 368.637 150.206 363.202 152.285 357.155C152.481 365.163 153.998 372.527 157.304 378.626C165.552 393.844 213.212 377.155 218.192 361.631C220.849 353.348 217.078 346.393 212.092 337.195C205.762 325.519 197.473 310.228 197.883 284.015L198.338 277.501C198.492 275.297 196.831 273.385 194.627 273.231L176.96 271.995Z" fill="#FF9B21"/>
<path fill-rule="evenodd" clip-rule="evenodd" d="M388.931 220.603C384.574 224.718 379.962 227.26 377.515 227.18C371.379 226.977 366.182 206.002 368.837 196.693C371.492 187.385 393.79 178.653 398.596 194.872C400.265 200.501 398.974 206.138 396.322 211.092L409.283 239.324L390.674 243.438L388.931 220.603Z" fill="#B28B67"/>
<path fill-rule="evenodd" clip-rule="evenodd" d="M391.582 192.364C380.86 194.815 373.289 196.017 368.755 195.796C368.151 192.139 371.032 187.218 381.01 185.012C392.112 182.557 399.489 187.665 401.132 195.098C402.634 201.889 400.059 211.132 396.783 212.21C395.872 212.213 394.901 211.338 393.848 210.07C395.081 209.098 395.7 207.313 395.251 205.281C394.819 203.327 392.664 201.815 390.523 202.289C389.742 202.461 389.07 202.874 388.554 203.424C386.649 201.485 384.515 200.195 382.088 200.923L382.618 195.961L391.752 193.134L391.582 192.364Z" fill="#191847"/>
<path fill-rule="evenodd" clip-rule="evenodd" d="M418.106 314L392.953 400.616L381.122 465.649H369.248L381.101 314H418.106Z" fill="#997659"/>
<path fill-rule="evenodd" clip-rule="evenodd" d="M429.411 314C427.656 358.997 428.348 383.539 428.741 387.627C429.133 391.715 431.363 419.095 446.56 467.021H434.209C414.084 421.044 407.059 393.664 404.751 387.627C402.443 381.59 395.626 357.047 385.673 314H429.411Z" fill="#B28B67"/>
<path fill-rule="evenodd" clip-rule="evenodd" d="M418.646 314C412.104 343.805 400.788 391.381 384.698 456.728H367.33C366.047 389.655 371.504 345.51 380.955 314H418.646Z" fill="#191847"/>
<path fill-rule="evenodd" clip-rule="evenodd" d="M429.499 314C427.78 358.997 432.234 403.327 446.033 457.429H427.503C407.341 412.138 392.89 368.026 383.014 314H429.499Z" fill="#2F3676"/>
<path fill-rule="evenodd" clip-rule="evenodd" d="M448.32 475.941L447.716 466.211C447.676 465.571 447.052 465.133 446.421 465.247C440.507 466.314 432.646 463.59 432.646 463.59C424.801 469.143 413.666 471.843 408.973 472.789C407.793 473.027 407.041 474.22 407.369 475.377L408.113 478H432.646H446.957L448.32 475.941Z" fill="#191847"/>
<path fill-rule="evenodd" clip-rule="evenodd" d="M383.773 475.941L383.169 466.211C383.13 465.571 382.505 465.133 381.874 465.247C375.96 466.314 368.1 463.59 368.1 463.59C360.255 469.143 349.12 471.843 344.426 472.789C343.247 473.027 342.494 474.22 342.823 475.377L343.567 478H368.1H382.411L383.773 475.941Z" fill="#191847"/>
<path fill-rule="evenodd" clip-rule="evenodd" d="M319.385 233.973L348.161 238.367L342.758 251.082L319.516 241.486C309.41 242.299 304.536 241.978 304.894 240.523C305.195 239.296 306.274 238.942 307.268 238.617C308.042 238.363 308.765 238.127 309.028 237.507C309.629 236.092 306.402 233.083 303.217 230.358C300.033 227.633 302.211 227.179 303.574 227.242C308.4 228.45 313.671 230.694 319.385 233.973ZM336.587 306.922L357.431 286.622L364.349 298.576L342.676 311.336C337.241 319.882 334.048 323.574 333.1 322.414C332.3 321.435 332.667 320.363 333.005 319.375C333.268 318.605 333.514 317.886 333.177 317.304C332.407 315.974 328.056 316.737 323.958 317.637C319.86 318.537 320.809 316.527 321.68 315.478C325.554 312.357 330.523 309.505 336.587 306.922Z" fill="#B28B67"/>
<path fill-rule="evenodd" clip-rule="evenodd" d="M387.079 235.675C377.734 261.008 361.973 281.636 338.082 304.134L349.715 314.028C377.792 298.877 392.493 290.05 397.043 266.717C398.185 260.861 397.029 242.867 396.868 233.337L387.079 235.675Z" fill="#2026A2"/>
<path fill-rule="evenodd" clip-rule="evenodd" d="M433.485 309.179L377.39 317.063C377.39 317.063 388.295 256.358 385.669 234.676C385.579 233.939 386.757 232.452 387.383 232.538C394.243 233.471 401.31 229.161 401.31 229.161C417.61 248.642 425.903 274.282 433.485 309.179Z" fill="#FF9B21"/>
<path fill-rule="evenodd" clip-rule="evenodd" d="M391.817 263.711C388.328 302.457 393.048 333.11 412.391 330.391L442.301 326.188C442.572 293.652 423.878 251.221 409.171 230.561C408.609 229.772 407.443 228.3 405.226 228.611L396.535 229.833C396.533 229.845 396.531 229.857 396.528 229.869C393.916 230.258 391.049 230.758 387.945 231.299C371.963 234.088 349.678 237.977 323.35 233.444L322.462 248.677C347.253 260.08 371.867 268.153 391.817 263.711Z" fill="#1F28CF"/>
</svg>
