<svg width="528" height="486" viewBox="0 0 528 486" fill="none" xmlns="http://www.w3.org/2000/svg">
<rect x="69.1586" width="391.171" height="341.78" rx="8" fill="#F2F2F2"/>
<path d="M69.1586 8C69.1586 3.58173 72.7403 0 77.1586 0H452.329C456.748 0 460.329 3.58172 460.329 8V26.6707H69.1586V8Z" fill="#C5CFD6"/>
<path fill-rule="evenodd" clip-rule="evenodd" d="M82 17.7805C84.1822 17.7805 85.9513 16.0115 85.9513 13.8293C85.9513 11.6471 84.1822 9.87805 82 9.87805C79.8178 9.87805 78.0488 11.6471 78.0488 13.8293C78.0488 16.0115 79.8178 17.7805 82 17.7805Z" fill="#F2F2F2"/>
<path fill-rule="evenodd" clip-rule="evenodd" d="M93.8537 17.7805C96.0359 17.7805 97.8049 16.0115 97.8049 13.8293C97.8049 11.6471 96.0359 9.87805 93.8537 9.87805C91.6715 9.87805 89.9025 11.6471 89.9025 13.8293C89.9025 16.0115 91.6715 17.7805 93.8537 17.7805Z" fill="#F2F2F2"/>
<path fill-rule="evenodd" clip-rule="evenodd" d="M105.707 17.7805C107.89 17.7805 109.659 16.0115 109.659 13.8293C109.659 11.6471 107.89 9.87805 105.707 9.87805C103.525 9.87805 101.756 11.6471 101.756 13.8293C101.756 16.0115 103.525 17.7805 105.707 17.7805Z" fill="#F2F2F2"/>
<rect x="375.378" y="130.39" width="69.1463" height="191.634" rx="8" fill="white"/>
<rect x="393.159" y="148.171" width="33.5854" height="25.6829" rx="4" fill="#DDE3E9"/>
<rect x="393.159" y="181.756" width="33.5854" height="24.6951" rx="4" fill="#AFB9C5"/>
<rect x="393.159" y="214.354" width="33.5854" height="24.6951" rx="4" fill="#DDE3E9"/>
<rect x="393.159" y="279.549" width="33.5854" height="24.6951" rx="4" fill="#DDE3E9"/>
<rect x="393.159" y="246.951" width="33.5854" height="24.6951" rx="4" fill="#C5CFD6"/>
<rect x="375.378" y="42.4756" width="69.1463" height="80.0122" rx="8" fill="white"/>
<path fill-rule="evenodd" clip-rule="evenodd" d="M409.951 88.9024C418.68 88.9024 425.756 81.8263 425.756 73.0975C425.756 64.3687 418.68 57.2927 409.951 57.2927C401.222 57.2927 394.146 64.3687 394.146 73.0975C394.146 81.8263 401.222 88.9024 409.951 88.9024Z" fill="#DDE3E9"/>
<rect x="385.256" y="92.8536" width="49.3902" height="5.92683" rx="2.96341" fill="#DDE3E9"/>
<rect x="393.159" y="102.732" width="33.5854" height="5.92683" rx="2.96341" fill="#DDE3E9"/>
<rect x="84.9635" y="42.4756" width="282.512" height="46.4268" rx="4" fill="white"/>
<rect x="93.8538" y="56.4037" width="225.22" height="6.96403" rx="3" fill="#DDE3E9"/>
<rect x="93.8538" y="68.0104" width="151.175" height="6.96403" rx="3" fill="#DDE3E9"/>
<path fill-rule="evenodd" clip-rule="evenodd" d="M337.284 72.6037C341.102 72.6037 344.198 69.5079 344.198 65.689C344.198 61.8702 341.102 58.7744 337.284 58.7744C333.465 58.7744 330.369 61.8702 330.369 65.689C330.369 69.5079 333.465 72.6037 337.284 72.6037Z" fill="#DDE3E9"/>
<path fill-rule="evenodd" clip-rule="evenodd" d="M337.283 68.6524C338.92 68.6524 340.247 67.3256 340.247 65.689C340.247 64.0524 338.92 62.7256 337.283 62.7256C335.647 62.7256 334.32 64.0524 334.32 65.689C334.32 67.3256 335.647 68.6524 337.283 68.6524Z" fill="#F2F2F2"/>
<rect x="84.9635" y="96.8049" width="282.512" height="38.5244" rx="4" fill="white"/>
<rect x="93.8538" y="108.362" width="225.22" height="5.77866" rx="2.88933" fill="#DDE3E9"/>
<rect x="93.8538" y="117.993" width="151.175" height="5.77866" rx="2.88933" fill="#DDE3E9"/>
<path fill-rule="evenodd" clip-rule="evenodd" d="M337.284 122.982C341.102 122.982 344.198 119.886 344.198 116.067C344.198 112.248 341.102 109.153 337.284 109.153C333.465 109.153 330.369 112.248 330.369 116.067C330.369 119.886 333.465 122.982 337.284 122.982Z" fill="#DDE3E9"/>
<path fill-rule="evenodd" clip-rule="evenodd" d="M337.283 119.031C338.92 119.031 340.247 117.704 340.247 116.067C340.247 114.431 338.92 113.104 337.283 113.104C335.647 113.104 334.32 114.431 334.32 116.067C334.32 117.704 335.647 119.031 337.283 119.031Z" fill="#F2F2F2"/>
<rect x="84.9635" y="143.232" width="282.512" height="38.5244" rx="4" fill="white"/>
<rect x="93.8538" y="154.789" width="225.22" height="5.77866" rx="2.88933" fill="#DDE3E9"/>
<rect x="93.8538" y="164.42" width="151.175" height="5.77866" rx="2.88933" fill="#DDE3E9"/>
<path fill-rule="evenodd" clip-rule="evenodd" d="M337.284 169.409C341.102 169.409 344.198 166.313 344.198 162.494C344.198 158.675 341.102 155.579 337.284 155.579C333.465 155.579 330.369 158.675 330.369 162.494C330.369 166.313 333.465 169.409 337.284 169.409Z" fill="#DDE3E9"/>
<path fill-rule="evenodd" clip-rule="evenodd" d="M337.283 165.457C338.92 165.457 340.247 164.131 340.247 162.494C340.247 160.857 338.92 159.531 337.283 159.531C335.647 159.531 334.32 160.857 334.32 162.494C334.32 164.131 335.647 165.457 337.283 165.457Z" fill="#AFB9C5"/>
<rect x="84.9635" y="282.512" width="282.512" height="38.5244" rx="4" fill="white"/>
<rect x="93.8538" y="294.07" width="225.22" height="5.77866" rx="2.88933" fill="#DDE3E9"/>
<rect x="93.8538" y="303.701" width="151.175" height="5.77866" rx="2.88933" fill="#DDE3E9"/>
<path fill-rule="evenodd" clip-rule="evenodd" d="M337.284 308.689C341.102 308.689 344.198 305.593 344.198 301.774C344.198 297.956 341.102 294.86 337.284 294.86C333.465 294.86 330.369 297.956 330.369 301.774C330.369 305.593 333.465 308.689 337.284 308.689Z" fill="#DDE3E9"/>
<path fill-rule="evenodd" clip-rule="evenodd" d="M337.283 304.738C338.92 304.738 340.247 303.411 340.247 301.774C340.247 300.138 338.92 298.811 337.283 298.811C335.647 298.811 334.32 300.138 334.32 301.774C334.32 303.411 335.647 304.738 337.283 304.738Z" fill="#F2F2F2"/>
<rect x="84.9635" y="236.085" width="282.512" height="38.5244" rx="4" fill="white"/>
<rect x="93.8538" y="247.643" width="225.22" height="5.77866" rx="2.88933" fill="#DDE3E9"/>
<rect x="93.8538" y="257.274" width="151.175" height="5.77866" rx="2.88933" fill="#DDE3E9"/>
<path fill-rule="evenodd" clip-rule="evenodd" d="M337.284 262.262C341.102 262.262 344.198 259.167 344.198 255.348C344.198 251.529 341.102 248.433 337.284 248.433C333.465 248.433 330.369 251.529 330.369 255.348C330.369 259.167 333.465 262.262 337.284 262.262Z" fill="#DDE3E9"/>
<path fill-rule="evenodd" clip-rule="evenodd" d="M337.283 258.311C338.92 258.311 340.247 256.984 340.247 255.348C340.247 253.711 338.92 252.384 337.283 252.384C335.647 252.384 334.32 253.711 334.32 255.348C334.32 256.984 335.647 258.311 337.283 258.311Z" fill="#F2F2F2"/>
<rect x="84.9635" y="189.659" width="282.512" height="38.5244" rx="4" fill="white"/>
<rect x="93.8538" y="201.216" width="225.22" height="5.77866" rx="2.88933" fill="#DDE3E9"/>
<rect x="93.8538" y="210.847" width="151.175" height="5.77866" rx="2.88933" fill="#DDE3E9"/>
<path fill-rule="evenodd" clip-rule="evenodd" d="M337.284 215.835C341.102 215.835 344.198 212.74 344.198 208.921C344.198 205.102 341.102 202.006 337.284 202.006C333.465 202.006 330.369 205.102 330.369 208.921C330.369 212.74 333.465 215.835 337.284 215.835Z" fill="#DDE3E9"/>
<path fill-rule="evenodd" clip-rule="evenodd" d="M337.283 211.884C338.92 211.884 340.247 210.557 340.247 208.921C340.247 207.284 338.92 205.957 337.283 205.957C335.647 205.957 334.32 207.284 334.32 208.921C334.32 210.557 335.647 211.884 337.283 211.884Z" fill="#F2F2F2"/>
<path fill-rule="evenodd" clip-rule="evenodd" d="M121.31 173.753C128.269 176.467 134.779 177.236 137.557 175.985C144.524 172.85 140.599 146.064 133.147 136.521C125.694 126.978 95.9049 127.392 98.0323 148.476C98.7707 155.794 102.918 161.723 108.311 166.216L106.727 205.09L130.09 201.064L121.31 173.753Z" fill="#B28B67"/>
<path fill-rule="evenodd" clip-rule="evenodd" d="M117.974 147.41C119.477 144.052 121.022 141.423 123.316 139.655C133.615 138.048 134.5 136 133.431 129.793C131.567 128.892 125.369 127.902 118.717 128.469C115.209 128.088 111.278 128.951 107.737 131.204C103.256 133.352 99.7635 136.918 98.93 142.611C94.4507 154.71 101.262 165.328 108.456 168.116C109.837 165.761 111.009 163.507 112.032 161.367C110.763 160.494 109.834 159.129 109.552 157.492C108.996 154.266 111.161 151.201 114.387 150.645C114.624 150.604 114.86 150.578 115.095 150.566C115.935 154.574 118.883 168.116 121.268 172.585C124.081 177.854 135.112 177.366 138.877 176.718C142.129 176.158 141.487 173.097 141.028 170.904C140.962 170.588 140.899 170.291 140.853 170.021C140.756 169.457 140.023 169.585 139.194 169.729C138.119 169.917 136.883 170.132 136.67 168.898C136.439 167.552 138.12 166.2 139.625 164.99C140.564 164.235 141.433 163.535 141.727 162.927C142.653 161.009 142.667 158.634 140.826 158.951C139.82 159.124 138.539 159.942 136.998 160.927C134.672 162.412 131.753 164.277 128.291 164.873C122.571 165.859 118.031 147.639 117.974 147.41Z" fill="#191847"/>
<path fill-rule="evenodd" clip-rule="evenodd" d="M115.289 276.516L180.615 385.401L229.591 477.454H240.14L158.08 276.516L115.289 276.516Z" fill="#997659"/>
<path fill-rule="evenodd" clip-rule="evenodd" d="M225.815 472.328C224.742 471.866 223.47 472.341 223.076 473.442C222.448 475.194 221.666 477.661 221.666 479.081C221.666 481.451 222.458 486 222.458 486C225.217 486 272.044 486 272.044 486C272.044 486 273.976 479.629 269.812 479.121C265.648 478.613 262.893 478.204 262.893 478.204L239.958 468.01C239.444 467.782 238.843 468.022 238.628 468.542L237.194 472.01C237.194 472.01 233.339 473.803 230.929 473.803C229.534 473.803 227.381 473.003 225.815 472.328Z" fill="#E4E4E4"/>
<path fill-rule="evenodd" clip-rule="evenodd" d="M215.989 462.714L236.333 456.578C236.333 456.578 222.963 416.731 203.56 368.877C184.157 321.023 161.884 276.516 161.884 276.516H104.426C104.426 276.516 129.189 332.815 156.931 378.826C184.672 424.837 215.989 462.714 215.989 462.714Z" fill="#AFB9C5"/>
<path fill-rule="evenodd" clip-rule="evenodd" d="M110.996 276.516C104.83 314.779 92.9386 363.664 91.8164 365.173C91.0682 366.179 64.1339 375.177 11.0134 392.168L13.2921 401.442C76.6381 392.33 110.016 385.26 113.426 380.233C118.541 372.692 144.08 313.121 153.972 276.516H110.996Z" fill="#B28B67"/>
<path fill-rule="evenodd" clip-rule="evenodd" d="M29.6862 384.151L33.6998 399.088C81.079 403.231 110.109 400.237 120.791 390.107C131.472 379.977 143.645 342.113 157.311 276.516H102.522C93.8639 330.231 89.0233 358.217 88.0005 360.471C86.9777 362.726 67.5396 370.619 29.6862 384.151Z" fill="#C5CFD6"/>
<path fill-rule="evenodd" clip-rule="evenodd" d="M14.9417 390.791C15.213 389.651 14.5207 388.476 13.3643 388.28C11.525 387.968 8.9553 387.63 7.55461 387.876C5.2127 388.287 0.857359 389.855 0.857359 389.855C1.3364 392.564 9.46778 438.541 9.46778 438.541C9.46778 438.541 16.0962 439.332 15.8748 435.155C15.6535 430.978 15.5795 428.203 15.5795 428.203L21.6645 403.92C21.8016 403.373 21.459 402.821 20.9077 402.7L17.2354 401.895C17.2354 401.895 14.7946 398.421 14.3761 396.054C14.1345 394.688 14.5485 392.444 14.9417 390.791Z" fill="#E4E4E4"/>
<path fill-rule="evenodd" clip-rule="evenodd" d="M177.093 199.243L149.194 219.99L162.032 230.363L181.172 207.233C192.292 202.43 197.255 199.361 196.06 198.028C195.053 196.904 193.717 197.136 192.485 197.35C191.526 197.516 190.631 197.671 190.005 197.166C188.577 196.012 190.293 191.033 192.124 186.378C193.955 181.722 191.402 182.464 189.999 183.294C185.584 187.271 181.282 192.587 177.093 199.243ZM210.73 218.125L198.478 227.261L201.1 240.435C201.1 240.435 208.828 233.04 215.935 229.945C224.997 225.998 228.531 223.46 232.316 216.958C234.342 213.48 235.549 206.889 232.914 205.168C231.904 204.508 228.81 206.838 225.654 209.215C223.249 211.027 220.807 212.866 219.223 213.43C217.09 214.189 216.948 211.315 216.835 209.018C216.754 207.37 216.687 206.02 215.91 206.522C212.034 207.134 210.73 218.125 210.73 218.125Z" fill="#997659"/>
<path fill-rule="evenodd" clip-rule="evenodd" d="M133.961 218.383C144.53 216.784 158.331 212.571 172.051 200.924L179.814 213.243C170.87 224.981 157.451 235.478 144.629 236.916C134.525 238.048 127.675 226.634 133.961 218.383Z" fill="#E87613"/>
<path fill-rule="evenodd" clip-rule="evenodd" d="M206.317 219.639C206.317 219.639 169.279 238.947 151.165 237.441C149.628 234.07 148.048 230.697 146.47 227.33C139.712 212.908 132.998 198.578 129.974 184.897L127.571 185.235L106.578 188.185L105.818 188.292C103.169 188.664 90.0014 225.602 93.1263 247.959C94.1994 255.636 92.4325 262.638 90.5723 270.01C87.4859 282.242 84.1424 295.492 93.0876 314.533C98.4155 312.688 107.83 312.59 118.076 312.484C137.252 312.285 159.34 312.056 162.996 300.283C165.725 291.496 165.615 282.315 163.774 272.908C179.747 270.309 198.453 262.307 219.482 247.302C219.01 238.554 206.317 219.639 206.317 219.639Z" fill="#FF9B21"/>
<path fill-rule="evenodd" clip-rule="evenodd" d="M379.74 179.853C374.506 183.942 369.156 186.264 366.467 185.915C359.726 185.038 356.198 161.276 360.101 151.258C364.004 141.241 389.496 133.953 393.092 152.41C394.34 158.816 392.327 164.917 388.884 170.116L400.207 202.733L379.265 205.305L379.74 179.853Z" fill="#B28B67"/>
<path fill-rule="evenodd" clip-rule="evenodd" d="M370.708 138.963C373.413 138.173 380.806 136.95 382.177 136.782C383.053 136.674 384.026 136.757 384.447 135.892C384.791 135.183 384.499 134.092 384.532 133.314C384.571 132.411 384.672 131.512 384.777 130.614C385.074 128.06 385.695 125.589 386.696 123.218C388.575 118.769 391.676 115.084 395.862 112.647C400.486 109.956 405.949 108.799 411.25 108.579C416.923 108.343 422.235 109.568 427.752 110.656C433.009 111.693 438.383 111.696 443.57 110.237C448.795 108.768 452.466 105.396 456.623 102.113C460.878 98.7519 465.909 96.2777 471.397 96.0306C476.52 95.8 481.454 97.3148 485.993 99.5903C490.24 101.719 493.865 104.463 496.237 108.66C498.789 113.174 499.428 118.395 496.708 122.996C492.767 129.664 484.253 132.309 476.991 133.041C472.79 133.465 468.581 133.208 464.455 132.307C458.953 131.105 454.009 128.529 448.762 126.591C446.299 125.681 443.785 124.995 441.189 124.597C438.669 124.21 436.232 124.19 434.208 125.928C432.066 127.765 430.163 129.546 427.614 130.845C425.169 132.091 422.521 132.945 419.792 133.259C414.481 133.87 409.048 132.863 403.759 132.392C399.446 132.008 394.84 131.663 390.662 133.054C388.918 133.635 386.398 134.701 385.98 136.633C397.089 137.262 403.003 150.138 401.147 160.351C400.145 165.863 390.967 173.29 386.76 170.973C384.094 169.506 385.296 167.002 386.07 165.351C387.551 162.19 387.719 158.343 384.059 156.718C380.902 155.317 378.325 159.882 378.266 159.884C377.45 159.92 369.983 156.84 364.466 151.685C359.754 152.548 358.651 149.517 359.471 146.826C360.291 144.135 366.971 140.055 370.708 138.963Z" fill="#191847"/>
<path fill-rule="evenodd" clip-rule="evenodd" d="M424.953 276.516C423.368 298.086 321.246 361.592 320.651 363.374C320.253 364.562 352.437 438.474 352.437 438.474L343.51 441.933C343.51 441.933 294.146 363.654 296.681 355.313C300.311 343.372 375.916 276.745 375.916 276.745L424.953 276.516Z" fill="#B28B67"/>
<path fill-rule="evenodd" clip-rule="evenodd" d="M350.088 427.346L335.513 432.636C304.78 398.064 292.734 369.54 294.93 355.006C297.127 340.472 373.892 276.569 373.892 276.569L425.998 276.569C424.22 326.523 329.566 363.564 328.3 365.693C327.034 367.822 339.494 388.67 350.088 427.346Z" fill="#2F3676"/>
<path fill-rule="evenodd" clip-rule="evenodd" d="M352.907 436.865C353.757 436.064 355.116 436.077 355.865 436.976C357.056 438.409 358.637 440.46 359.123 441.794C359.937 444.022 360.753 448.566 360.753 448.566C358.16 449.507 314.158 465.474 314.158 465.474C314.158 465.474 310.156 460.147 313.895 458.25C317.634 456.352 320.081 455.028 320.081 455.028L338.136 437.629C338.541 437.239 339.189 437.26 339.569 437.675L342.106 440.445C342.106 440.445 346.343 440.815 348.608 439.993C349.919 439.518 351.667 438.032 352.907 436.865Z" fill="#E4E4E4"/>
<path fill-rule="evenodd" clip-rule="evenodd" d="M413.211 276.516L458.703 385.401L503.415 477.454H492.866L377.453 276.516H413.211Z" fill="#997659"/>
<path fill-rule="evenodd" clip-rule="evenodd" d="M501.372 472.328C502.445 471.866 503.717 472.341 504.111 473.442C504.739 475.194 505.521 477.661 505.521 479.081C505.521 481.452 504.729 486 504.729 486C501.97 486 455.143 486 455.143 486C455.143 486 453.211 479.629 457.375 479.121C461.539 478.614 464.294 478.204 464.294 478.204L487.229 468.01C487.743 467.782 488.344 468.022 488.559 468.542L489.993 472.01C489.993 472.01 493.848 473.803 496.258 473.803C497.653 473.803 499.806 473.003 501.372 472.328Z" fill="#E4E4E4"/>
<path fill-rule="evenodd" clip-rule="evenodd" d="M499.377 458.331L475.937 462.714C457.814 436.149 381.965 327.223 373.649 276.516H425.832C453.603 313.172 482.102 431.327 499.377 458.331Z" fill="#5C63AB"/>
<path fill-rule="evenodd" clip-rule="evenodd" d="M299.532 250.157L332.85 260.118L324.337 274.253L298.435 259.059C286.341 258.346 280.627 257.158 281.293 255.498C281.855 254.097 283.19 253.858 284.421 253.638C285.379 253.467 286.273 253.306 286.688 252.618C287.635 251.045 284.319 246.953 281.004 243.204C277.69 239.455 280.344 239.28 281.946 239.58C287.456 241.808 293.318 245.334 299.532 250.157ZM443.699 253.969L461.146 248.236C477.185 278.614 486.559 295.188 489.267 297.961C491.253 299.994 502.512 304.476 510.031 306.684C513.049 307.571 512.73 310.061 511.984 310.937C507.28 316.461 502.141 315.358 496.547 314.158C494.928 313.81 493.27 313.454 491.574 313.249C487.184 312.717 486.155 315.061 485.184 317.276C484.323 319.237 483.507 321.097 480.441 320.771C480.505 320.171 480.591 319.497 480.684 318.77C481.287 314.068 482.175 307.135 479.153 303.54C477.602 301.696 465.784 285.172 443.699 253.969Z" fill="#B28B67"/>
<path fill-rule="evenodd" clip-rule="evenodd" d="M386.476 189.7L378.772 189.336C364.289 207.248 362.271 246.258 351.939 252.657C342.171 258.708 326.924 255.885 308.709 251.784L304.827 264.343C322.78 279.496 358.328 289.796 371.006 279.868C391.275 263.994 390.545 216.277 386.476 189.7Z" fill="#1F28CF"/>
<path fill-rule="evenodd" clip-rule="evenodd" d="M430.976 280.199C430.976 280.199 385.595 285.771 364.213 288.397C361.162 288.771 361.198 284.309 361.367 282.038C363.316 255.836 379.799 225.825 375.328 189.416L394.216 184.041C413.281 207.626 422.651 238.396 430.976 280.199Z" fill="#FF9B21"/>
<path fill-rule="evenodd" clip-rule="evenodd" d="M395.239 183.915L395.459 183.888C441.912 205.123 473.067 243.055 488.926 297.685L475.267 302.136C464.675 292.507 451.071 276.29 434.456 253.485C440.442 267.717 445.347 282.464 448.054 296.647L387.956 304.026C372.723 276.141 387.834 184.825 387.834 184.825L391.983 184.315L395.239 183.915Z" fill="#2B44FF"/>
<path fill-rule="evenodd" clip-rule="evenodd" d="M231.322 186.408C231.321 186.413 231.32 186.418 231.319 186.425C231.32 186.419 231.319 186.399 231.322 186.408Z" fill="#C5CFD6"/>
<path fill-rule="evenodd" clip-rule="evenodd" d="M231.319 186.416C231.319 186.417 231.319 186.419 231.319 186.421C231.318 186.416 231.323 186.4 231.319 186.416Z" fill="#C5CFD6"/>
<path fill-rule="evenodd" clip-rule="evenodd" d="M231.332 186.327C231.33 186.347 231.326 186.368 231.323 186.389C231.324 186.378 231.326 186.37 231.328 186.359C231.29 186.633 231.313 186.456 231.332 186.327Z" fill="#C5CFD6"/>
<path fill-rule="evenodd" clip-rule="evenodd" d="M231.325 186.39C231.323 186.399 231.322 186.41 231.32 186.419C231.306 186.48 231.325 186.39 231.325 186.39Z" fill="#C5CFD6"/>
<path fill-rule="evenodd" clip-rule="evenodd" d="M231.32 186.416C231.319 186.415 231.319 186.415 231.32 186.414C231.319 186.415 231.319 186.415 231.32 186.416Z" fill="#C5CFD6"/>
<path fill-rule="evenodd" clip-rule="evenodd" d="M231.317 186.424C231.314 186.437 231.333 186.373 231.317 186.424V186.424Z" fill="#C5CFD6"/>
<path fill-rule="evenodd" clip-rule="evenodd" d="M231.319 186.416L231.321 186.414C231.32 186.415 231.32 186.416 231.319 186.416Z" fill="#C5CFD6"/>
<rect x="170.302" y="146.863" width="98.7805" height="65.1951" rx="4" transform="rotate(-14 170.302 146.863)" fill="#2B44FF"/>
<path fill-rule="evenodd" clip-rule="evenodd" d="M211.132 156.304L194.722 208.244L250.006 194.46L211.132 156.304Z" fill="black" fill-opacity="0.2"/>
<path fill-rule="evenodd" clip-rule="evenodd" d="M242.641 161.265L226.427 200.339L275.302 188.153L242.641 161.265Z" fill="black" fill-opacity="0.2"/>
<path fill-rule="evenodd" clip-rule="evenodd" d="M253.21 159.099C258.239 157.845 261.299 152.752 260.045 147.723C258.791 142.694 253.698 139.634 248.669 140.888C243.641 142.142 240.58 147.235 241.834 152.264C243.088 157.292 248.181 160.353 253.21 159.099Z" fill="white"/>
</svg>
