<svg width="141" height="35" viewBox="0 0 141 35" fill="none" xmlns="http://www.w3.org/2000/svg">
<path d="M17.291 31.2816L17.2713 31.4877L17.1442 32.822H4.82848L4.70086 31.4877L3.51991 19.0335C3.79792 19.1168 5.56425 19.6225 7.39349 19.6225C8.84645 19.6225 11.2107 18.0467 13.1215 17.254L13.1454 17.2445C13.2623 17.1965 13.3755 17.1522 13.4882 17.1102C13.5481 17.0887 13.6038 17.0689 13.6607 17.0503C13.6763 17.0449 13.6919 17.0395 13.7086 17.0347C13.7835 17.0084 13.8584 16.9856 13.9321 16.9634L14.0418 16.9335L14.1251 16.9119C14.2413 16.8832 14.3551 16.8592 14.4642 16.8424C14.5241 16.8328 14.584 16.8256 14.6439 16.8202C14.7158 16.8131 14.7847 16.8101 14.8512 16.8101C14.8842 16.8101 14.9178 16.8101 14.9507 16.8101C14.9741 16.8101 14.9968 16.8101 15.0208 16.8101C15.1293 16.8101 15.2401 16.8178 15.3527 16.8274C16.7272 16.9377 18.2832 17.4739 18.5882 17.5788L17.291 31.2816Z" fill="#F7DF1E"/>
<path d="M0 4.98315L0.888555 14.3409L2.84961 34.9999H19.1336L21.0851 14.3409L21.9742 4.98315H0ZM18.8969 14.3409L17.2912 31.2815L17.2726 31.4876L17.1468 32.822H4.82864L4.70222 31.4876L3.52007 19.0335L3.0743 14.3409L2.39545 7.1611H19.5776L18.8969 14.3409Z" fill="black"/>
<path d="M0 4.98315L0.888555 14.3409L1.47873 20.523L2.84961 34.9999H19.1426L20.5135 20.523L21.0941 14.3409L21.9838 4.98315H0ZM18.8969 14.3409L18.589 17.5817L18.3074 20.523L17.2888 31.2815L17.269 31.4876L17.1432 32.822H4.82864L3.66627 20.523L3.52367 19.0347L3.07609 14.3409L2.39545 7.1611H19.5776L18.8969 14.3409Z" fill="black"/>
<path d="M22.4014 0L22.1923 2.17855H16.665L16.4128 4.98322L16.2174 7.16117L15.3504 16.8304C15.2378 16.8209 15.127 16.8161 15.0185 16.8131C14.9945 16.8131 14.9718 16.8131 14.9484 16.8131C14.9155 16.8131 14.8819 16.8131 14.849 16.8131C14.7824 16.8131 14.7135 16.8161 14.6416 16.8232C14.5817 16.8286 14.5218 16.8358 14.4619 16.8454C14.3528 16.8622 14.239 16.8862 14.1228 16.9149L14.0437 16.9359L13.934 16.9658C13.8603 16.988 13.7854 17.0108 13.7105 17.0371C13.6938 17.0419 13.6782 17.0473 13.6626 17.0527C13.6057 17.0725 13.5482 17.0923 13.4901 17.1126C13.3774 17.1546 13.2642 17.1989 13.1473 17.2469L13.1234 17.2564L14.0311 7.16237L14.227 4.98442L14.6752 0.00119858L22.4014 0Z" fill="black"/>
<path d="M7.79968 29.7003L8.91233 29.061C9.08848 29.3726 9.27182 29.5404 9.70382 29.5404C10.2628 29.5404 10.4312 29.221 10.4312 28.8771V25.0808H11.7098V28.8771C11.7098 30.1078 10.8464 30.7872 9.69543 30.7872C8.80687 30.7872 8.16757 30.4115 7.79968 29.7003Z" fill="black"/>
<path d="M12.1478 29.4043L13.2509 28.765C13.451 29.2288 13.7943 29.5404 14.4258 29.5404C15.0334 29.5404 15.185 29.3007 15.185 29.085C15.185 28.7411 14.8656 28.6057 14.0262 28.3738C13.1868 28.1419 12.3797 27.7423 12.3797 26.6716C12.3797 25.6009 13.291 24.9688 14.2581 24.9688C15.1772 24.9688 15.8962 25.4085 16.3042 26.2318L15.2257 26.8633C15.034 26.4637 14.7703 26.2156 14.2587 26.2156C13.859 26.2156 13.6595 26.4157 13.6595 26.6392C13.6595 26.8951 13.7949 27.0706 14.6661 27.3348C15.5133 27.5907 16.4636 27.8861 16.4636 29.0688C16.4636 30.1473 15.6008 30.7872 14.3857 30.7872C13.2113 30.7872 12.46 30.2276 12.1478 29.4043Z" fill="black"/>
<path d="M14.033 7.16113L13.1252 17.2552C11.2145 18.0503 8.85262 19.6237 7.39726 19.6237C5.56802 19.6237 3.80229 19.118 3.52368 19.0347L3.07611 14.3409L2.39546 7.16113H14.033Z" fill="white"/>
<path d="M19.5775 7.16113L18.8969 14.3409L18.5889 17.5817C18.2809 17.4769 16.7249 16.9406 15.3534 16.8304L16.2204 7.16113H19.5775Z" fill="white"/>
<path d="M42.7402 14.3042V29.1039H39.3574V23.2258H34.7078V29.1039H31.325V14.3042H34.7078V19.97H39.3574V14.3042H42.7402Z" fill="black"/>
<path d="M43.6545 23.8174C43.6505 22.7086 43.9757 21.6234 44.5889 20.6995C45.2021 19.7756 46.0756 19.0544 47.099 18.6273C48.1223 18.2002 49.2494 18.0864 50.3374 18.3003C51.4255 18.5142 52.4256 19.0462 53.2111 19.8289C53.9966 20.6115 54.5322 21.6097 54.75 22.697C54.9678 23.7843 54.858 24.9118 54.4346 25.9366C54.0111 26.9615 53.2931 27.8376 52.3714 28.4541C51.4496 29.0706 50.3657 29.3997 49.2568 29.3997C48.5205 29.4079 47.79 29.2693 47.1078 28.992C46.4257 28.7146 45.8057 28.304 45.2841 27.7843C44.7625 27.2646 44.3498 26.646 44.0699 25.9649C43.7901 25.2838 43.6489 24.5538 43.6545 23.8174ZM51.6869 23.8174C51.6869 22.3132 50.6306 21.3238 49.2568 21.3238C47.883 21.3238 46.825 22.3166 46.825 23.8174C46.825 25.3183 47.8813 26.3127 49.2568 26.3127C50.6323 26.3127 51.6869 25.32 51.6869 23.8174Z" fill="black"/>
<path d="M62.009 18.3203V21.9154C60.697 21.7031 58.8335 22.2329 58.8335 24.3254V29.1038H55.658V18.5326H58.8335V20.4145C59.2597 18.9972 60.677 18.3203 62.009 18.3203Z" fill="black"/>
<path d="M62.4318 23.8174C62.4318 20.6686 64.8218 18.2368 68.0341 18.2368C70.0848 18.2368 71.9033 19.3148 72.8125 20.9427L70.0431 22.5489C69.6837 21.8101 68.9233 21.3656 67.9923 21.3656C66.6185 21.3656 65.604 22.36 65.604 23.8174C65.604 25.2748 66.6185 26.2709 67.9923 26.2709C68.9233 26.2709 69.7055 25.8263 70.0431 25.0859L72.8125 26.672C71.9033 28.3216 70.1066 29.3996 68.0341 29.3996C64.8218 29.3996 62.4318 26.9679 62.4318 23.8174Z" fill="black"/>
<path d="M83.8083 22.6124V29.1039H80.6328V23.0871C80.6328 21.7767 79.8071 21.1633 78.7943 21.1633C77.6244 21.1633 76.8272 21.8319 76.8272 23.3361V29.1072H73.6516V14.3042H76.8272V19.5254C77.3988 18.7449 78.4567 18.2368 79.8506 18.2368C81.9899 18.2368 83.8083 19.7594 83.8083 22.6124Z" fill="black"/>
<path d="M96.3049 18.5326V29.1038H93.1293V28.1094C92.4307 28.9133 91.3945 29.3996 89.9789 29.3996C87.2095 29.3996 84.9264 26.9679 84.9264 23.8174C84.9264 20.6669 87.2095 18.2368 89.9789 18.2368C91.3945 18.2368 92.4307 18.7232 93.1293 19.5254V18.5326H96.3049ZM93.1293 23.8174C93.1293 22.233 92.0714 21.2385 90.6123 21.2385C89.1532 21.2385 88.1053 22.233 88.1053 23.8174C88.1053 25.4018 89.1616 26.3979 90.6123 26.3979C92.063 26.3979 93.1344 25.4035 93.1344 23.8174H93.1293Z" fill="black"/>
<path d="M102.121 21.5777V25.3198C102.121 26.2273 102.903 26.3126 104.294 26.2273V29.1037C100.149 29.5265 98.9454 28.2797 98.9454 25.3198V21.5777H97.2573V18.5325H98.9487V16.5269L102.124 15.5759V18.5359H104.297V21.581L102.121 21.5777Z" fill="black"/>
<path d="M116.623 18.5326V29.1038H113.448V28.1094C112.751 28.9133 111.714 29.3996 110.299 29.3996C107.529 29.3996 105.246 26.9679 105.246 23.8174C105.246 20.6669 107.529 18.2368 110.299 18.2368C111.714 18.2368 112.751 18.7232 113.448 19.5254V18.5326H116.623ZM113.448 23.8174C113.448 22.233 112.391 21.2385 110.941 21.2385C109.49 21.2385 108.425 22.233 108.425 23.8174C108.425 25.4018 109.478 26.3979 110.941 26.3979C112.403 26.3979 113.448 25.4035 113.448 23.8174Z" fill="black"/>
<path d="M117.895 26.5317L120.833 24.8403C121.298 25.6642 121.786 26.1088 122.928 26.1088C124.407 26.1088 124.851 25.2631 124.851 24.3539V14.3042H128.234V24.3472C128.234 27.603 125.949 29.3997 122.906 29.3997C120.559 29.3997 118.868 28.4052 117.895 26.5317Z" fill="black"/>
<path d="M129.397 25.7428L132.315 24.0514C132.843 25.2765 133.753 26.1021 135.424 26.1021C137.03 26.1021 137.429 25.467 137.429 24.8971C137.429 23.9879 136.584 23.6285 134.364 23.0152C132.145 22.4018 130.009 21.3438 130.009 18.5026C130.009 15.6613 132.419 14 134.978 14C137.408 14 139.311 15.1699 140.389 17.3427L137.536 19.014C137.035 17.956 136.331 17.3009 134.978 17.3009C133.92 17.3009 133.392 17.8307 133.392 18.4223C133.392 19.0909 133.751 19.5639 136.056 20.2608C138.297 20.9293 140.812 21.7199 140.812 24.8486C140.812 27.7033 138.529 29.3946 135.315 29.3946C132.21 29.3997 130.223 27.9205 129.397 25.7428Z" fill="black"/>
</svg>
