<svg width="304" height="274" viewBox="0 0 304 274" fill="none" xmlns="http://www.w3.org/2000/svg">
<rect x="38.6222" y="11.304" width="74.8893" height="142.243" rx="8" fill="#F2F2F2"/>
<path fill-rule="evenodd" clip-rule="evenodd" d="M75.8314 144.597C79.7333 144.597 82.8965 141.434 82.8965 137.532C82.8965 133.631 79.7333 130.467 75.8314 130.467C71.9295 130.467 68.7664 133.631 68.7664 137.532C68.7664 141.434 71.9295 144.597 75.8314 144.597Z" fill="white"/>
<path fill-rule="evenodd" clip-rule="evenodd" d="M69.7084 20.7241C70.2287 20.7241 70.6504 20.3023 70.6504 19.7821C70.6504 19.2618 70.2287 18.8401 69.7084 18.8401C69.1882 18.8401 68.7664 19.2618 68.7664 19.7821C68.7664 20.3023 69.1882 20.7241 69.7084 20.7241Z" fill="white"/>
<rect x="73.0056" y="18.8401" width="9.89104" height="1.88401" rx="0.942003" fill="white"/>
<rect x="45.2163" y="24.4919" width="61.7012" height="25.4341" rx="4" fill="white"/>
<rect x="63.5853" y="32.1222" width="34.3831" height="3.81511" rx="1.90756" fill="#DDE3E9"/>
<rect x="63.5851" y="38.4807" width="23.0791" height="3.81511" rx="1.90756" fill="#DDE3E9"/>
<path fill-rule="evenodd" clip-rule="evenodd" d="M55.1072 42.861C58.2288 42.861 60.7592 40.3306 60.7592 37.209C60.7592 34.0875 58.2288 31.557 55.1072 31.557C51.9857 31.557 49.4552 34.0875 49.4552 37.209C49.4552 40.3306 51.9857 42.861 55.1072 42.861Z" fill="#C5CFD6"/>
<rect x="45.2162" y="53.6941" width="61.7012" height="19.7821" rx="4" fill="white"/>
<rect x="63.5851" y="59.6287" width="34.3831" height="2.96731" rx="1.48366" fill="#DDE3E9"/>
<rect x="63.5849" y="64.5742" width="23.0791" height="2.96731" rx="1.48366" fill="#DDE3E9"/>
<path fill-rule="evenodd" clip-rule="evenodd" d="M55.1071 69.2371C58.2286 69.2371 60.7591 66.7067 60.7591 63.5851C60.7591 60.4636 58.2286 57.9331 55.1071 57.9331C51.9856 57.9331 49.4551 60.4636 49.4551 63.5851C49.4551 66.7067 51.9856 69.2371 55.1071 69.2371Z" fill="#C5CFD6"/>
<rect x="45.2162" y="77.2441" width="61.7012" height="19.7821" rx="4" fill="white"/>
<rect x="63.5851" y="83.1787" width="34.3831" height="2.96731" rx="1.48366" fill="#DDE3E9"/>
<rect x="63.5849" y="88.1243" width="23.0791" height="2.96731" rx="1.48366" fill="#DDE3E9"/>
<path fill-rule="evenodd" clip-rule="evenodd" d="M55.1071 92.7872C58.2286 92.7872 60.7591 90.2567 60.7591 87.1352C60.7591 84.0137 58.2286 81.4832 55.1071 81.4832C51.9856 81.4832 49.4551 84.0137 49.4551 87.1352C49.4551 90.2567 51.9856 92.7872 55.1071 92.7872Z" fill="#AFB9C5"/>
<rect x="45.2162" y="100.794" width="61.7012" height="19.7821" rx="4" fill="white"/>
<rect x="63.5851" y="106.729" width="34.3831" height="2.96731" rx="1.48366" fill="#DDE3E9"/>
<rect x="63.5849" y="111.674" width="23.0791" height="2.96731" rx="1.48366" fill="#DDE3E9"/>
<path fill-rule="evenodd" clip-rule="evenodd" d="M55.1071 116.337C58.2286 116.337 60.7591 113.807 60.7591 110.685C60.7591 107.564 58.2286 105.033 55.1071 105.033C51.9856 105.033 49.4551 107.564 49.4551 110.685C49.4551 113.807 51.9856 116.337 55.1071 116.337Z" fill="#C5CFD6"/>
<rect x="69.7083" y="23.55" width="74.8893" height="142.243" rx="8" fill="#DDE3E9"/>
<path fill-rule="evenodd" clip-rule="evenodd" d="M106.917 156.844C110.819 156.844 113.982 153.68 113.982 149.779C113.982 145.877 110.819 142.714 106.917 142.714C103.015 142.714 99.8522 145.877 99.8522 149.779C99.8522 153.68 103.015 156.844 106.917 156.844Z" fill="white"/>
<path fill-rule="evenodd" clip-rule="evenodd" d="M100.794 32.9701C101.314 32.9701 101.736 32.5483 101.736 32.0281C101.736 31.5078 101.314 31.0861 100.794 31.0861C100.274 31.0861 99.8522 31.5078 99.8522 32.0281C99.8522 32.5483 100.274 32.9701 100.794 32.9701Z" fill="white"/>
<rect x="104.091" y="31.0861" width="9.89104" height="1.88401" rx="0.942003" fill="white"/>
<rect x="76.3028" y="36.7382" width="61.7012" height="25.4341" rx="4" fill="white"/>
<rect x="80.5415" y="44.3684" width="34.3831" height="3.81511" rx="1.90756" fill="#DDE3E9"/>
<rect x="80.5412" y="50.7269" width="23.0791" height="3.81511" rx="1.90756" fill="#DDE3E9"/>
<path fill-rule="evenodd" clip-rule="evenodd" d="M131.41 52.7522C133.23 52.7522 134.707 51.2761 134.707 49.4552C134.707 47.6343 133.23 46.1582 131.41 46.1582C129.589 46.1582 128.113 47.6343 128.113 49.4552C128.113 51.2761 129.589 52.7522 131.41 52.7522Z" fill="#DDE3E9"/>
<path fill-rule="evenodd" clip-rule="evenodd" d="M131.41 50.8682C132.19 50.8682 132.823 50.2356 132.823 49.4552C132.823 48.6749 132.19 48.0422 131.41 48.0422C130.629 48.0422 129.997 48.6749 129.997 49.4552C129.997 50.2356 130.629 50.8682 131.41 50.8682Z" fill="#F2F2F2"/>
<rect x="76.3022" y="65.9403" width="61.7012" height="19.7821" rx="4" fill="white"/>
<rect x="94.6713" y="71.8749" width="34.3831" height="2.96731" rx="1.48366" fill="#DDE3E9"/>
<rect x="94.6712" y="76.8204" width="23.0791" height="2.96731" rx="1.48366" fill="#DDE3E9"/>
<path fill-rule="evenodd" clip-rule="evenodd" d="M86.1932 81.4834C89.3148 81.4834 91.8453 78.9529 91.8453 75.8313C91.8453 72.7098 89.3148 70.1793 86.1932 70.1793C83.0717 70.1793 80.5412 72.7098 80.5412 75.8313C80.5412 78.9529 83.0717 81.4834 86.1932 81.4834Z" fill="#C5CFD6"/>
<rect x="76.3022" y="89.4904" width="61.7012" height="19.7821" rx="4" fill="white"/>
<rect x="80.5413" y="95.425" width="34.3831" height="2.96731" rx="1.48366" fill="#DDE3E9"/>
<rect x="80.541" y="100.371" width="23.0791" height="2.96731" rx="1.48366" fill="#AFB9C5"/>
<path fill-rule="evenodd" clip-rule="evenodd" d="M131.409 102.678C133.23 102.678 134.706 101.202 134.706 99.3814C134.706 97.5605 133.23 96.0844 131.409 96.0844C129.589 96.0844 128.112 97.5605 128.112 99.3814C128.112 101.202 129.589 102.678 131.409 102.678Z" fill="#DDE3E9"/>
<path fill-rule="evenodd" clip-rule="evenodd" d="M131.41 100.794C132.19 100.794 132.823 100.162 132.823 99.3814C132.823 98.601 132.19 97.9684 131.41 97.9684C130.629 97.9684 129.997 98.601 129.997 99.3814C129.997 100.162 130.629 100.794 131.41 100.794Z" fill="#F2F2F2"/>
<rect x="76.3022" y="113.04" width="61.7012" height="19.7821" rx="4" fill="white"/>
<rect x="94.6713" y="118.975" width="34.3831" height="2.96731" rx="1.48366" fill="#DDE3E9"/>
<rect x="94.6712" y="123.921" width="23.0791" height="2.96731" rx="1.48366" fill="#DDE3E9"/>
<path fill-rule="evenodd" clip-rule="evenodd" d="M86.1932 128.583C89.3148 128.583 91.8453 126.053 91.8453 122.931C91.8453 119.81 89.3148 117.279 86.1932 117.279C83.0717 117.279 80.5412 119.81 80.5412 122.931C80.5412 126.053 83.0717 128.583 86.1932 128.583Z" fill="#C5CFD6"/>
<rect x="100.794" y="35.3251" width="157.786" height="162.967" rx="8" fill="#F2F2F2"/>
<rect x="218.074" y="55.5781" width="32.9701" height="38.1511" rx="8" fill="white"/>
<path fill-rule="evenodd" clip-rule="evenodd" d="M234.559 77.7152C238.721 77.7152 242.095 74.3412 242.095 70.1792C242.095 66.0172 238.721 62.6432 234.559 62.6432C230.397 62.6432 227.023 66.0172 227.023 70.1792C227.023 74.3412 230.397 77.7152 234.559 77.7152Z" fill="#DDE3E9"/>
<rect x="222.784" y="79.5992" width="23.5501" height="2.82601" rx="1.41301" fill="#DDE3E9"/>
<rect x="226.552" y="84.3093" width="16.0141" height="2.82601" rx="1.41301" fill="#DDE3E9"/>
<path d="M100.794 43.3251C100.794 38.9068 104.376 35.3251 108.794 35.3251H250.58C254.998 35.3251 258.58 38.9068 258.58 43.3251V48.0421H100.794V43.3251Z" fill="#C5CFD6"/>
<path fill-rule="evenodd" clip-rule="evenodd" d="M106.917 43.803C107.958 43.803 108.801 42.9595 108.801 41.919C108.801 40.8785 107.958 40.035 106.917 40.035C105.877 40.035 105.033 40.8785 105.033 41.919C105.033 42.9595 105.877 43.803 106.917 43.803Z" fill="#F2F2F2"/>
<path fill-rule="evenodd" clip-rule="evenodd" d="M112.57 43.803C113.61 43.803 114.454 42.9595 114.454 41.919C114.454 40.8785 113.61 40.035 112.57 40.035C111.529 40.035 110.686 40.8785 110.686 41.919C110.686 42.9595 111.529 43.803 112.57 43.803Z" fill="#F2F2F2"/>
<path fill-rule="evenodd" clip-rule="evenodd" d="M118.222 43.803C119.262 43.803 120.106 42.9595 120.106 41.919C120.106 40.8785 119.262 40.035 118.222 40.035C117.181 40.035 116.338 40.8785 116.338 41.919C116.338 42.9595 117.181 43.803 118.222 43.803Z" fill="#F2F2F2"/>
<rect x="218.074" y="97.4973" width="32.9701" height="91.3743" rx="8" fill="white"/>
<rect x="226.552" y="105.975" width="16.0141" height="12.246" rx="4" fill="#DDE3E9"/>
<rect x="226.552" y="121.989" width="16.0141" height="11.775" rx="4" fill="#AFB9C5"/>
<rect x="226.552" y="137.532" width="16.0141" height="11.775" rx="4" fill="#DDE3E9"/>
<rect x="226.552" y="168.619" width="16.0141" height="11.775" rx="4" fill="#DDE3E9"/>
<rect x="226.552" y="153.076" width="16.0141" height="11.775" rx="4" fill="#C5CFD6"/>
<rect x="108.331" y="56.0492" width="105.975" height="22.1371" rx="4" fill="white"/>
<rect x="112.569" y="62.6903" width="78.6573" height="3.32056" rx="1.66028" fill="#DDE3E9"/>
<rect x="112.569" y="68.2246" width="52.7974" height="3.32056" rx="1.66028" fill="#DDE3E9"/>
<path fill-rule="evenodd" clip-rule="evenodd" d="M202.98 70.4147C204.801 70.4147 206.277 68.9386 206.277 67.1177C206.277 65.2968 204.801 63.8207 202.98 63.8207C201.159 63.8207 199.683 65.2968 199.683 67.1177C199.683 68.9386 201.159 70.4147 202.98 70.4147Z" fill="#DDE3E9"/>
<path fill-rule="evenodd" clip-rule="evenodd" d="M202.98 68.5307C203.76 68.5307 204.393 67.8981 204.393 67.1177C204.393 66.3373 203.76 65.7047 202.98 65.7047C202.199 65.7047 201.567 66.3373 201.567 67.1177C201.567 67.8981 202.199 68.5307 202.98 68.5307Z" fill="#F2F2F2"/>
<rect x="108.33" y="81.9543" width="105.975" height="18.3691" rx="4" fill="white"/>
<rect x="112.569" y="87.4651" width="78.6573" height="2.75536" rx="1.37768" fill="#DDE3E9"/>
<rect x="112.569" y="92.0574" width="52.7974" height="2.75536" rx="1.37768" fill="#DDE3E9"/>
<path fill-rule="evenodd" clip-rule="evenodd" d="M202.98 94.4359C204.801 94.4359 206.277 92.9598 206.277 91.1389C206.277 89.318 204.801 87.8419 202.98 87.8419C201.159 87.8419 199.683 89.318 199.683 91.1389C199.683 92.9598 201.159 94.4359 202.98 94.4359Z" fill="#DDE3E9"/>
<path fill-rule="evenodd" clip-rule="evenodd" d="M202.98 92.552C203.76 92.552 204.393 91.9193 204.393 91.139C204.393 90.3586 203.76 89.726 202.98 89.726C202.199 89.726 201.567 90.3586 201.567 91.139C201.567 91.9193 202.199 92.552 202.98 92.552Z" fill="#F2F2F2"/>
<rect x="108.33" y="104.091" width="105.975" height="18.3691" rx="4" fill="white"/>
<rect x="112.569" y="109.602" width="78.6573" height="2.75536" rx="1.37768" fill="#DDE3E9"/>
<rect x="112.569" y="114.194" width="52.7974" height="2.75536" rx="1.37768" fill="#DDE3E9"/>
<path fill-rule="evenodd" clip-rule="evenodd" d="M202.98 116.573C204.801 116.573 206.277 115.097 206.277 113.276C206.277 111.455 204.801 109.979 202.98 109.979C201.159 109.979 199.683 111.455 199.683 113.276C199.683 115.097 201.159 116.573 202.98 116.573Z" fill="#DDE3E9"/>
<path fill-rule="evenodd" clip-rule="evenodd" d="M202.98 114.689C203.76 114.689 204.393 114.056 204.393 113.276C204.393 112.496 203.76 111.863 202.98 111.863C202.199 111.863 201.567 112.496 201.567 113.276C201.567 114.056 202.199 114.689 202.98 114.689Z" fill="#AFB9C5"/>
<rect x="108.33" y="170.503" width="105.975" height="18.3691" rx="4" fill="white"/>
<rect x="112.569" y="176.013" width="78.6573" height="2.75536" rx="1.37768" fill="#DDE3E9"/>
<rect x="112.569" y="180.606" width="52.7974" height="2.75536" rx="1.37768" fill="#DDE3E9"/>
<path fill-rule="evenodd" clip-rule="evenodd" d="M202.98 182.984C204.801 182.984 206.277 181.508 206.277 179.687C206.277 177.866 204.801 176.39 202.98 176.39C201.159 176.39 199.683 177.866 199.683 179.687C199.683 181.508 201.159 182.984 202.98 182.984Z" fill="#DDE3E9"/>
<path fill-rule="evenodd" clip-rule="evenodd" d="M202.98 181.1C203.76 181.1 204.393 180.468 204.393 179.687C204.393 178.907 203.76 178.274 202.98 178.274C202.199 178.274 201.567 178.907 201.567 179.687C201.567 180.468 202.199 181.1 202.98 181.1Z" fill="#F2F2F2"/>
<rect x="108.33" y="148.366" width="105.975" height="18.3691" rx="4" fill="white"/>
<rect x="112.569" y="153.876" width="78.6573" height="2.75536" rx="1.37768" fill="#DDE3E9"/>
<rect x="112.569" y="158.469" width="52.7974" height="2.75536" rx="1.37768" fill="#DDE3E9"/>
<path fill-rule="evenodd" clip-rule="evenodd" d="M202.98 160.847C204.801 160.847 206.277 159.371 206.277 157.55C206.277 155.729 204.801 154.253 202.98 154.253C201.159 154.253 199.683 155.729 199.683 157.55C199.683 159.371 201.159 160.847 202.98 160.847Z" fill="#DDE3E9"/>
<path fill-rule="evenodd" clip-rule="evenodd" d="M202.98 158.963C203.76 158.963 204.393 158.331 204.393 157.55C204.393 156.77 203.76 156.137 202.98 156.137C202.199 156.137 201.567 156.77 201.567 157.55C201.567 158.331 202.199 158.963 202.98 158.963Z" fill="#F2F2F2"/>
<rect x="108.33" y="126.229" width="105.975" height="18.3691" rx="4" fill="white"/>
<rect x="112.569" y="131.739" width="78.6573" height="2.75536" rx="1.37768" fill="#DDE3E9"/>
<rect x="112.569" y="136.332" width="52.7974" height="2.75536" rx="1.37768" fill="#DDE3E9"/>
<path fill-rule="evenodd" clip-rule="evenodd" d="M202.98 138.71C204.801 138.71 206.277 137.234 206.277 135.413C206.277 133.592 204.801 132.116 202.98 132.116C201.159 132.116 199.683 133.592 199.683 135.413C199.683 137.234 201.159 138.71 202.98 138.71Z" fill="#DDE3E9"/>
<path fill-rule="evenodd" clip-rule="evenodd" d="M202.98 136.826C203.76 136.826 204.393 136.194 204.393 135.413C204.393 134.633 203.76 134 202.98 134C202.199 134 201.567 134.633 201.567 135.413C201.567 136.194 202.199 136.826 202.98 136.826Z" fill="#F2F2F2"/>
<rect x="218.545" y="15.072" width="2.82601" height="11.775" rx="1.41301" fill="#DDE3E9"/>
<rect x="225.139" y="7.53613" width="2.82601" height="19.3111" rx="1.41301" fill="#DDE3E9"/>
<rect x="231.733" y="3.76807" width="2.82601" height="23.0791" rx="1.41301" fill="#DDE3E9"/>
<rect x="238.327" y="7.53613" width="2.82601" height="19.3111" rx="1.41301" fill="#DDE3E9"/>
<rect x="244.921" width="2.82601" height="26.8471" rx="1.41301" fill="#C5CFD6"/>
<path fill-rule="evenodd" clip-rule="evenodd" d="M293.324 148.45C292.419 149.411 291.137 150.014 289.711 150.014C286.971 150.014 284.75 147.8 284.75 145.069C284.75 142.337 286.971 140.123 289.711 140.123V130.938C281.916 130.938 275.536 137.298 275.536 145.069C275.536 152.839 281.916 159.199 289.711 159.199C293.805 159.199 297.506 157.472 300.028 154.725L293.324 148.45Z" fill="#F2F2F2"/>
<path fill-rule="evenodd" clip-rule="evenodd" d="M289.666 130.938V140.123C292.397 140.123 294.612 142.337 294.612 145.069H303.796C303.796 137.298 297.436 130.938 289.666 130.938Z" fill="#AFB9C5"/>
<path fill-rule="evenodd" clip-rule="evenodd" d="M294.422 145.068C294.422 146.673 293.666 148.1 292.492 149.021L298.267 156.373C301.629 153.74 303.796 149.66 303.796 145.068H294.422Z" fill="#C5CFD6"/>
<path fill-rule="evenodd" clip-rule="evenodd" d="M203.497 18.6063C202.801 19.3429 201.814 19.8055 200.718 19.8055C198.61 19.8055 196.901 18.108 196.901 16.0139C196.901 13.9199 198.61 12.2224 200.718 12.2224V5.18091C194.722 5.18091 189.814 10.0569 189.814 16.0139C189.814 21.971 194.722 26.847 200.718 26.847C203.867 26.847 206.714 25.5232 208.654 23.4172L203.497 18.6063Z" fill="#F2F2F2"/>
<path fill-rule="evenodd" clip-rule="evenodd" d="M200.647 5.18091V12.2224C202.741 12.2224 204.439 13.9199 204.439 16.0139H211.48C211.48 10.0569 206.604 5.18091 200.647 5.18091Z" fill="#AFB9C5"/>
<path fill-rule="evenodd" clip-rule="evenodd" d="M204.449 16.0139C204.449 17.2174 203.883 18.2872 203.002 18.978L207.334 24.4919C209.855 22.5179 211.48 19.4579 211.48 16.0139H204.449Z" fill="#C5CFD6"/>
<path fill-rule="evenodd" clip-rule="evenodd" d="M256.693 227.958C256.695 227.963 256.696 227.968 256.699 227.974C256.696 227.969 256.693 227.95 256.693 227.958Z" fill="#C5CFD6"/>
<path fill-rule="evenodd" clip-rule="evenodd" d="M256.697 227.966C256.697 227.967 256.698 227.968 256.698 227.97C256.698 227.966 256.689 227.951 256.697 227.966Z" fill="#C5CFD6"/>
<path fill-rule="evenodd" clip-rule="evenodd" d="M256.664 227.886C256.671 227.905 256.679 227.923 256.687 227.941C256.683 227.932 256.679 227.925 256.676 227.915C256.774 228.16 256.711 228.001 256.664 227.886Z" fill="#C5CFD6"/>
<path fill-rule="evenodd" clip-rule="evenodd" d="M256.685 227.943C256.689 227.951 256.693 227.961 256.697 227.969C256.724 228.022 256.685 227.943 256.685 227.943Z" fill="#C5CFD6"/>
<path fill-rule="evenodd" clip-rule="evenodd" d="M256.696 227.966C256.696 227.965 256.696 227.965 256.695 227.964C256.696 227.965 256.696 227.965 256.696 227.966Z" fill="#C5CFD6"/>
<path fill-rule="evenodd" clip-rule="evenodd" d="M256.701 227.973C256.707 227.984 256.674 227.929 256.701 227.973V227.973Z" fill="#C5CFD6"/>
<path fill-rule="evenodd" clip-rule="evenodd" d="M256.697 227.966L256.695 227.964C256.696 227.965 256.696 227.966 256.697 227.966Z" fill="#C5CFD6"/>
<rect width="66.8822" height="44.2742" rx="4" transform="matrix(-1 0 0 1 290.137 191.698)" fill="#DDE3E9"/>
<path fill-rule="evenodd" clip-rule="evenodd" d="M265.303 204.415L284.64 235.972H245.966L265.303 204.415Z" fill="#AFB9C5"/>
<path fill-rule="evenodd" clip-rule="evenodd" d="M245.366 212.868L262.461 235.972H228.271L245.366 212.868Z" fill="#C5CFD6"/>
<path fill-rule="evenodd" clip-rule="evenodd" d="M238.091 212.893C234.58 212.893 231.733 210.046 231.733 206.534C231.733 203.023 234.58 200.176 238.091 200.176C241.603 200.176 244.45 203.023 244.45 206.534C244.45 210.046 241.603 212.893 238.091 212.893Z" fill="white"/>
<path fill-rule="evenodd" clip-rule="evenodd" d="M72.5642 95.3384C75.7406 97.2542 78.8615 98.1799 80.3265 97.802C84.0001 96.8544 84.3378 83.406 81.4954 78.1042C78.653 72.8024 64.0405 70.4915 63.304 80.9961C63.0483 84.6419 64.5781 87.8955 66.8384 90.5505L62.7857 109.453H74.558L72.5642 95.3384Z" fill="#D4A181"/>
<path fill-rule="evenodd" clip-rule="evenodd" d="M76.8455 72.3297C75.2368 71.8389 72.9017 71.6724 71.9194 71.785C72.4782 70.4453 72.6999 68.9526 72.5192 67.4993C72.3435 66.087 71.7129 64.8846 71.1297 63.6246C70.8609 63.0438 70.5562 62.4662 70.102 62.0219C69.6393 61.5693 69.0536 61.2706 68.4394 61.1281C67.8109 60.9822 67.1537 60.9943 66.5242 61.1267C66.2457 61.1853 65.9958 61.3127 65.7227 61.3835C65.4431 61.4561 65.3074 61.2809 65.1044 61.1049C64.6152 60.6807 63.898 60.4713 63.2791 60.3964C62.5847 60.3123 61.8642 60.4171 61.202 60.6456C60.5574 60.8679 59.9381 61.229 59.4721 61.7551C59.2646 61.9893 59.0762 62.2558 58.9538 62.5501C58.9036 62.6709 58.8953 62.7424 58.7749 62.7866C58.6635 62.8276 58.5333 62.8288 58.4183 62.8677C57.3069 63.2444 56.3566 64.1038 55.8392 65.2072C55.5374 65.8509 55.3944 66.9842 55.4335 68.2545C55.4727 69.5248 56.6189 72.8393 57.6909 74.0483C58.6478 75.1274 60.0543 75.8395 61.4118 76.1512C60.5108 77.1818 59.911 78.4696 59.4675 79.7793C58.9858 81.202 58.6876 82.6802 58.5775 84.1864C58.4729 85.6174 58.4633 87.1308 58.7985 88.5313C59.1121 89.841 59.7828 90.9154 60.9025 91.597C61.4153 91.9092 61.9671 92.1438 62.5221 92.3582C63.0691 92.5694 63.6177 92.7748 64.1906 92.8934C65.275 93.1176 66.5244 93.0791 67.3597 92.2154C67.6607 91.9041 67.9918 91.5128 68.2114 91.1324C68.2904 90.9957 68.338 90.9062 68.2421 90.7725C68.1271 90.6124 67.9412 90.4897 67.7936 90.3644C66.9516 89.6501 66.4304 88.6966 66.299 87.5634C66.1657 86.4137 66.4743 84.9297 67.5914 84.4279C68.9703 83.8085 70.4888 84.5195 71.7144 85.1822C72.2352 83.3426 73.3047 81.6862 74.9815 80.8423C76.8365 79.9088 78.9651 79.7996 80.8714 78.9986C81.3682 78.7898 81.8741 78.5529 82.2399 78.1276C82.3927 77.9499 82.572 77.7193 82.633 77.4842C82.7132 77.1754 82.5142 76.9165 82.3605 76.6758C81.5453 75.3994 78.4541 72.8206 76.8455 72.3297Z" fill="#3D2216"/>
<path fill-rule="evenodd" clip-rule="evenodd" d="M61.8045 236.094C82.664 236.094 99.574 219.942 99.574 200.016C99.574 180.091 82.664 163.938 61.8045 163.938C40.9451 163.938 24.0351 180.091 24.0351 200.016C24.0351 219.942 40.9451 236.094 61.8045 236.094Z" fill="#C5CFD6"/>
<path fill-rule="evenodd" clip-rule="evenodd" d="M120.524 198.092C122.349 204.487 126.894 216.608 133.179 230.528L139.151 228.784C133.926 196.753 129.578 175.547 127.087 169.093C125.441 164.829 112.991 165.329 114.424 173.909C115.024 177.507 117.401 187.142 120.524 198.092ZM95.9771 175.405C86.2378 177.425 66.0445 184.563 60.2782 186.843C56.6542 188.277 58.9904 193.138 62.082 192.713C62.6057 192.641 64.4579 192.434 67.2216 192.124C76.0988 191.13 94.3802 189.084 108.245 187.087C115.546 186.035 111.619 172.351 104.039 173.799C101.488 174.286 98.7758 174.825 95.9771 175.405Z" fill="#D4A181"/>
<path fill-rule="evenodd" clip-rule="evenodd" d="M127.469 165.479C126.473 162.227 81.2103 150.685 81.2103 150.685H77.501V154.144L108.691 170.033C108.65 170.546 108.675 171.088 108.776 171.659C108.55 183.438 113.588 192.238 118.576 200.95C121.838 206.647 125.078 212.307 126.811 218.738L138.27 217.027C137.936 216.173 137.409 212.321 136.687 207.055C134.867 193.775 131.815 171.502 127.533 165.609C127.518 165.588 127.503 165.568 127.488 165.548C127.482 165.525 127.476 165.502 127.469 165.479Z" fill="#191847"/>
<path fill-rule="evenodd" clip-rule="evenodd" d="M80.0926 179.469C77.2387 178.898 74.6106 178.387 72.3618 177.993C57.8361 175.443 53.6002 167.662 56.1047 150.685H82.8681C87.24 151.942 109.96 161.477 121.749 166.548C129.551 169.904 127.091 182.004 122.673 185.153C122.649 185.346 122.569 185.477 122.428 185.536C105.676 192.484 91.3914 191.965 82.2184 191.632C78.3764 191.493 75.4312 191.386 73.577 191.874L70.6718 182.703L80.0926 179.469Z" fill="#2F3676"/>
<path fill-rule="evenodd" clip-rule="evenodd" d="M63.4138 187.473C63.2965 186.309 62.3198 185.362 61.162 185.534C60.324 185.658 59.4448 185.838 58.9337 186.088C57.7412 186.67 55.6471 188.184 55.6471 188.184C56.3219 189.569 67.775 213.067 67.775 213.067C67.775 213.067 71.4521 212.473 70.6891 210.259C69.926 208.045 69.4582 206.562 69.4582 206.562L68.9917 193.005C68.9723 192.442 68.4921 192.006 67.9301 192.041L66.2883 192.145C66.2883 192.145 64.4434 190.65 63.8539 189.441C63.6194 188.96 63.4875 188.206 63.4138 187.473Z" fill="#E4E4E4"/>
<path fill-rule="evenodd" clip-rule="evenodd" d="M132.706 227.816C131.607 227.411 130.327 227.875 129.974 228.991C129.719 229.799 129.495 230.669 129.495 231.238C129.495 232.565 129.937 235.113 129.937 235.113C131.476 235.113 157.603 235.113 157.603 235.113C157.603 235.113 158.681 231.545 156.358 231.26C154.035 230.976 152.498 230.747 152.498 230.747L140.118 225.224C139.603 224.994 139.001 225.235 138.786 225.756L138.159 227.278C138.159 227.278 136.008 228.282 134.664 228.282C134.129 228.282 133.396 228.071 132.706 227.816Z" fill="#E4E4E4"/>
<path fill-rule="evenodd" clip-rule="evenodd" d="M119.037 155.415L103.391 143.917L99.9319 152.473L115.426 158.903C119.808 164.054 122.258 166.201 122.777 165.345C123.214 164.623 122.873 163.947 122.558 163.324C122.312 162.839 122.083 162.386 122.252 161.969C122.637 161.017 125.58 161.118 128.37 161.332C131.159 161.547 130.346 160.305 129.674 159.692C126.826 157.986 123.281 156.561 119.037 155.415ZM36.9836 175.674C38.421 172.756 43.3161 144.314 43.3161 144.314L53.5665 144.354C53.5665 144.354 44.0728 175.023 43.3161 176.9C42.3331 179.337 44.0028 182.879 45.135 185.281C45.3101 185.652 45.4724 185.997 45.61 186.305C44.0391 187.009 43.2845 186.158 42.4889 185.262C41.5903 184.25 40.6395 183.178 38.4012 184.22C37.5364 184.623 36.7181 185.099 35.9186 185.564C33.157 187.17 30.6201 188.646 27.169 186.515C26.6218 186.177 26.0223 184.905 27.4709 183.911C31.08 181.435 36.2809 177.1 36.9836 175.674Z" fill="#D4A181"/>
<path fill-rule="evenodd" clip-rule="evenodd" d="M72.4463 101.272L76.6878 100.544C92.4251 114.148 98.889 140.283 118.179 154.128L113.536 159.888C80.0714 155.741 71.7769 123.862 72.4463 101.272Z" fill="#E87613"/>
<path fill-rule="evenodd" clip-rule="evenodd" d="M53.9565 154.612C53.9565 154.612 79.4669 154.612 91.4863 154.612C93.2012 154.612 92.8781 152.134 92.6302 150.884C89.7691 136.452 78.6005 120.896 78.6005 100.353L67.7751 98.6544C58.8211 113.065 55.7247 130.808 53.9565 154.612Z" fill="#DDE3E9"/>
<path fill-rule="evenodd" clip-rule="evenodd" d="M55.3945 112.65C53.4247 112.509 51.6467 111.685 50.5228 109.655C46.5661 102.511 47.9951 98.5771 52.2235 97.2841C54.5487 96.5731 56.7355 97.0584 59.3532 97.6393C61.496 98.1148 63.9275 98.6544 66.9599 98.6544C67.2536 98.6544 67.521 98.6741 67.7636 98.7118L71.3556 98.9169C71.3556 98.9169 85.9403 148.381 79.4004 164.92H49.7366C48.0499 168.974 46.3959 172.511 44.8374 175.228H36.7886C35.9227 147.209 46.523 125.65 55.3945 112.65Z" fill="#FF9B21"/>
<path fill-rule="evenodd" clip-rule="evenodd" d="M49.7366 164.92C51.9496 159.601 54.2189 153.393 56.4027 146.982C57.2157 154.042 58.5695 161.134 60.8235 164.92H49.7366Z" fill="black" fill-opacity="0.1"/>
<path fill-rule="evenodd" clip-rule="evenodd" d="M202.447 100.629C199.016 102.698 195.645 103.697 194.062 103.289C190.094 102.266 189.729 87.7486 192.799 82.0253C195.87 76.302 211.655 73.8074 212.451 85.1471C212.727 89.0827 211.074 92.595 208.633 95.4609L213.011 115.866H200.294L202.447 100.629Z" fill="#D4A181"/>
<path fill-rule="evenodd" clip-rule="evenodd" d="M201.811 86.3995C200.712 84.7616 199.655 83.5123 198.282 82.7867C192.691 82.8751 192.036 81.8728 192.036 78.4947C192.939 77.8486 196.126 76.7606 199.694 76.4545C201.514 75.9336 203.67 76.0316 205.747 76.9005C208.312 77.628 210.483 79.1949 211.442 82.1283C214.912 88.1163 212.278 94.3496 208.729 96.4789C207.784 95.3596 206.96 94.2749 206.224 93.2366C206.815 92.6593 207.182 91.8536 207.182 90.9622C207.182 89.2064 205.759 87.783 204.003 87.783C203.874 87.783 203.746 87.7907 203.621 87.8056C203.542 90.0009 203.217 97.4281 202.363 100.008C201.356 103.05 195.48 103.796 193.431 103.796C191.661 103.796 191.721 102.12 191.765 100.919C191.771 100.746 191.777 100.583 191.777 100.436C191.777 100.129 192.176 100.13 192.627 100.131C193.212 100.132 193.885 100.133 193.885 99.4615C193.885 98.7291 192.873 98.1674 191.968 97.6647C191.403 97.3511 190.879 97.0604 190.668 96.7657C190.004 95.8359 189.78 94.5819 190.782 94.5819C191.33 94.5819 192.082 94.8976 192.986 95.2776C194.351 95.8511 196.064 96.5708 197.948 96.5708C201.061 96.5708 201.802 86.5285 201.811 86.3995Z" fill="#3D2216"/>
<path fill-rule="evenodd" clip-rule="evenodd" d="M214.777 160.612L192.13 220.536L176.257 264.703H167.206L189.025 160.612L214.777 160.612Z" fill="#191847"/>
<path fill-rule="evenodd" clip-rule="evenodd" d="M220.374 160.612C220.62 181.173 220.442 208.855 221.016 210.137C221.589 211.419 256.696 239.343 256.696 239.343L252.031 247.276C252.031 247.276 210.351 220.398 208.22 216.817C206.089 213.236 195.384 180.282 189.814 160.612H220.374Z" fill="#2F3676"/>
<path fill-rule="evenodd" clip-rule="evenodd" d="M264.904 244.681L257.024 238.684L250.666 246.261C249.932 254.829 244.992 265.48 244.992 265.48L246.436 266.691L257.94 252.98L261.154 247.684L261.876 248.29L264.904 244.681Z" fill="#F2F2F2"/>
<path fill-rule="evenodd" clip-rule="evenodd" d="M177.097 273.181L176.626 263.29L166.735 263.29C159.7 268.236 148.366 271.297 148.366 271.297V273.181H166.264L172.387 272.239V273.181H177.097Z" fill="#F2F2F2"/>
<path fill-rule="evenodd" clip-rule="evenodd" d="M156.674 102.661L174.527 108.02L169.969 115.613L156.088 107.444C149.608 107.058 146.547 106.419 146.903 105.527C147.204 104.775 147.92 104.647 148.579 104.528C149.092 104.436 149.571 104.351 149.793 103.981C150.301 103.136 148.523 100.936 146.746 98.9213C144.97 96.9062 146.392 96.8123 147.25 96.974C150.202 98.1725 153.344 100.068 156.674 102.661ZM161.08 150.528L176.104 139.496L179.426 147.706L164.548 153.875C160.34 158.818 157.987 160.878 157.489 160.057C157.069 159.364 157.398 158.715 157.7 158.118C157.935 157.652 158.155 157.218 157.993 156.818C157.624 155.904 154.797 156.001 152.119 156.207C149.441 156.413 150.221 155.221 150.867 154.632C153.601 152.996 157.005 151.628 161.08 150.528Z" fill="#D4A181"/>
<path fill-rule="evenodd" clip-rule="evenodd" d="M199.441 109.784C191.259 125.04 179.428 136.734 162.276 148.891L168.771 156.214C187.921 149.097 198.029 144.803 202.992 130.39C204.238 126.772 205.108 115.24 205.855 109.173L199.441 109.784Z" fill="#1F28CF"/>
<path fill-rule="evenodd" clip-rule="evenodd" d="M222.313 160.612H186.046C186.046 160.612 198.368 123.03 198.635 109.024C198.645 108.548 199.524 107.709 199.913 107.819C204.179 109.024 209.044 106.917 209.044 106.917C217.642 120.745 220.615 137.77 222.313 160.612Z" fill="#89C5CC"/>
<path fill-rule="evenodd" clip-rule="evenodd" d="M199.947 128.014C194.282 152.311 194.544 172.201 207.049 172.201H226.386C229.458 151.561 221.386 122.943 213.903 108.508C213.617 107.957 213.008 106.917 211.575 106.917H205.956C205.954 106.925 205.952 106.932 205.949 106.94C204.258 106.954 202.396 107.015 200.38 107.082C189.998 107.427 175.523 107.908 159.235 102.678L157.315 112.274C172.016 121.73 186.903 129.054 199.947 128.014Z" fill="#2B44FF"/>
</svg>
