<svg width="447" height="439" viewBox="0 0 447 439" fill="none" xmlns="http://www.w3.org/2000/svg">
<path fill-rule="evenodd" clip-rule="evenodd" d="M6.36056 311.875C17.5432 261.946 130.699 290.39 204.882 274.954C279.065 259.518 366.83 187.632 424.915 222.845C482.999 258.059 421.198 343.181 287.977 362.39C154.756 381.599 -4.82211 361.804 6.36056 311.875Z" fill="#F2F2F2"/>
<g opacity="0.5">
<path fill-rule="evenodd" clip-rule="evenodd" d="M35.9159 78.6791C34.8372 79.6128 35.2562 82.9315 35.2336 84.1596C35.1989 86.0715 35.3361 87.9664 35.5205 89.8714C35.644 91.147 36.3404 103.319 38.2782 102.385C39.3706 101.858 38.6857 98.3366 38.6838 97.2228C38.6794 94.7467 38.5606 92.2767 38.3702 89.8061C38.1932 87.5125 38.082 85.2455 38.1839 82.9475C38.2088 82.3866 38.814 76.1619 35.9159 78.6791Z" fill="#C5CFD6"/>
<path fill-rule="evenodd" clip-rule="evenodd" d="M82.8936 77.1785C73.6261 77.2424 64.3626 77.6388 55.0996 77.8816C50.6423 77.9984 46.1878 78.147 41.7353 78.3611C40.2181 78.4342 36.9641 78.013 35.7 78.7139C32.8939 80.27 37.4194 80.6338 38.6258 80.5958C56.9572 80.0195 75.2949 79.2605 93.6419 79.2246C102.642 79.2073 111.637 79.4294 120.638 79.3795C124.079 79.3605 127.889 78.0753 128.758 81.5475C129.738 85.4656 128.612 89.828 128.305 93.7651C128.1 96.3934 128.173 98.967 128.31 101.593C128.397 103.275 128.169 105.171 128.512 106.822C128.842 108.412 130.161 109.365 131.369 107.584C132.091 106.52 131.732 103.893 131.78 102.66C131.844 101 131.784 99.3399 131.784 97.6794C131.783 93.6262 132.443 89.589 132.356 85.5367C132.3 82.9236 132.14 78.1864 128.338 77.5586C124.152 76.867 119.007 77.5624 114.723 77.52C104.108 77.415 93.5116 77.1066 82.8936 77.1785Z" fill="#C5CFD6"/>
<path fill-rule="evenodd" clip-rule="evenodd" d="M57.3576 102.53C53.8631 102.53 50.3684 102.548 46.8742 102.598C43.8774 102.641 39.1657 102.1 36.3765 103.029C34.467 103.666 33.9598 105.514 36.3765 106.006C39.0122 106.543 42.9846 105.665 45.7423 105.623C59.5705 105.411 73.5318 105.135 87.3406 105.894C100.28 106.604 113.468 107.293 126.427 106.543C127.517 106.48 133.077 106.288 130.54 104.481C129.06 103.426 123.06 104.12 121.136 104.069C114.351 103.892 107.559 103.852 100.776 103.63C94.0808 103.409 87.4157 102.757 80.7188 102.595C72.9383 102.407 65.1406 102.53 57.3576 102.53Z" fill="#C5CFD6"/>
<path fill-rule="evenodd" clip-rule="evenodd" d="M53.8611 85.2977C59.3077 85.5039 64.6963 92.3523 59.1854 95.6621C54.0155 98.7677 44.3262 95.3642 47.2011 89.342C46.7878 90.2127 47.7236 88.3961 47.7354 88.384C48.2821 87.8256 49.2637 87.2074 49.9374 86.7673C50.7086 86.2634 51.5116 85.7089 52.4413 85.4565C53.0517 85.2908 52.9559 85.9142 53.8611 85.2977ZM51.2085 82.8276C48.6594 83.6905 47.496 84.664 45.7441 86.4254C44.532 87.6444 42.9868 88.2858 43.0005 89.9331C43.0033 90.2978 43.5437 90.6985 43.6369 91.0496C43.7659 91.535 43.6166 92.1568 43.7188 92.6724C44.7733 97.9934 52.0959 99.7874 57.4559 98.7828C62.125 97.9077 65.6169 94.0218 64.5353 89.7964C63.4463 85.5429 56.1712 81.1447 51.2085 82.8276Z" fill="#C5CFD6"/>
<path fill-rule="evenodd" clip-rule="evenodd" d="M48.938 90.2557C48.938 92.1698 52.4254 92.1698 52.4254 90.2557C52.4254 88.3633 48.938 88.282 48.938 90.2557Z" fill="#C5CFD6"/>
<path fill-rule="evenodd" clip-rule="evenodd" d="M53.301 89.8682C53.301 91.3893 56.0721 91.3893 56.0721 89.8682C56.0721 88.3645 53.301 88.3002 53.301 89.8682Z" fill="#C5CFD6"/>
<path fill-rule="evenodd" clip-rule="evenodd" d="M54.1591 93.0051C53.2717 93.3008 52.1461 92.6876 51.4176 93.0916C50.1274 93.8076 51.4208 94.4556 52.1124 94.7433C55.226 96.0387 55.78 92.4668 54.1591 93.0051Z" fill="#C5CFD6"/>
<path fill-rule="evenodd" clip-rule="evenodd" d="M101.712 88.7627C101.619 88.7969 101.289 88.9181 101.712 88.7627V88.7627ZM88.1522 87.0445C85.8219 87.5006 83.8541 89.3875 81.3222 89.135C79.3819 88.9415 78.0681 87.3182 76.1526 87.0822C73.7022 86.7802 67.0333 91.6265 70.5395 92.4581C72.5852 92.9434 73.72 89.7022 75.5273 89.5299C76.9569 89.3938 78.9011 90.9138 80.3826 91.1302C83.1463 91.5339 85.0443 90.214 87.4705 89.3629C90.1069 88.438 91.6069 89.2709 93.8997 90.2989C95.7095 91.1103 97.4139 91.6387 99.4848 91.3038C101.428 90.9899 103.87 89.2571 105.826 89.4349C107.742 89.609 109.11 91.3426 111.081 91.5036C111.893 91.5698 113.103 91.8098 112.966 90.7228C112.857 89.8524 111.737 89.9999 111.036 89.6835C109.234 88.8699 107.548 87.4287 105.373 87.5516C103.737 87.6442 102.248 88.6408 100.74 89.1176C95.8025 90.679 93.0267 86.0966 88.1522 87.0445Z" fill="#C5CFD6"/>
<path fill-rule="evenodd" clip-rule="evenodd" d="M92.2771 114.615C82.7525 114.69 73.1956 114.813 63.6977 115.475C61.446 115.632 38.4535 117.514 38.4971 117.65C38.5777 117.9 41.535 118.284 41.5165 118.343C41.3172 117.914 40.8616 117.737 40.15 117.811C61.9564 117.811 83.6937 116.118 105.529 116.423C111.015 116.499 116.522 116.467 122.005 116.617C123.374 116.654 126.765 117.505 127.84 116.969C130.661 115.563 125.536 115.4 124.687 115.341C113.942 114.596 103.053 114.521 92.2771 114.615Z" fill="#C5CFD6"/>
<path fill-rule="evenodd" clip-rule="evenodd" d="M35.6743 118.627C34.2504 119.865 35.5616 124.318 35.6177 125.991C35.6989 128.411 35.632 130.847 35.8768 133.261C36.1564 136.017 36.5901 138.954 37.4243 141.629C37.8837 143.102 39.4964 145.444 40.1355 142.767C40.5917 140.854 39.8989 138.318 39.6579 136.37C39.3353 133.764 39.2573 131.192 39.2452 128.573C39.2344 126.291 39.1838 124 38.9679 121.726C38.8558 120.545 38.1706 116.474 35.6743 118.627Z" fill="#C5CFD6"/>
<path fill-rule="evenodd" clip-rule="evenodd" d="M71.4989 141.304C64.7398 141.404 57.9661 141.542 51.2186 141.908C48.4529 142.058 45.6895 142.282 42.934 142.536C42.3718 142.587 36.1483 142.806 38.9292 144.798C40.1843 145.697 45.3475 144.454 47.0529 144.324C49.9211 144.106 52.7886 143.964 55.665 143.859C62.3298 143.613 69.015 143.397 75.6865 143.497C87.8704 143.68 99.9761 143.762 112.164 143.527C113.895 143.493 127.461 143.808 127.921 142.246C128.293 140.987 123.441 141.564 122.557 141.587C119.312 141.671 116.067 141.652 112.821 141.637C99.0699 141.576 85.2392 141.102 71.4989 141.304Z" fill="#C5CFD6"/>
<path fill-rule="evenodd" clip-rule="evenodd" d="M125.625 116.539C125.839 121.756 126.864 126.968 127.192 132.201C127.341 134.593 127.518 136.984 127.653 139.377C127.696 140.149 127.338 142.009 128.391 142.453C129.835 143.062 130.029 141.835 130.3 141.004C131.081 138.607 130.553 135.492 130.481 133.029C130.413 130.644 130.408 128.255 130.205 125.874C129.998 123.442 129.433 121.055 129.171 118.632C129.06 117.607 129.447 115.901 128.192 115.265C127.107 114.715 125.578 115.408 125.625 116.539Z" fill="#C5CFD6"/>
<path fill-rule="evenodd" clip-rule="evenodd" d="M59.1893 125.218C59.2151 125.235 59.2406 125.252 59.266 125.27C59.2406 125.252 59.2148 125.235 59.1893 125.218ZM53.4453 123.672C55.5872 124.203 57.3464 124.005 59.3924 125.357C61.0886 126.477 62.8283 128.117 63.3909 129.93C64.6907 134.117 60.2843 136.412 56.1533 136.457C51.9221 136.503 45.6591 135.652 45.876 130.95C46.0422 127.337 49.0848 123.812 53.4453 123.672ZM53.5964 121.306C48.0422 121.545 43.5619 126.953 43.61 131.505C43.668 137.022 50.8782 138.443 56 138.482C61.7806 138.525 67.5449 135.064 65.9959 129.428C64.7548 124.912 58.9376 121.065 53.5964 121.306Z" fill="#C5CFD6"/>
<path fill-rule="evenodd" clip-rule="evenodd" d="M48.0093 128.713C48.0093 130.251 50.8128 130.251 50.8128 128.713C50.8128 127.192 48.0093 127.127 48.0093 128.713Z" fill="#C5CFD6"/>
<path fill-rule="evenodd" clip-rule="evenodd" d="M53.8898 128.038C53.8898 129.588 56.7156 129.588 56.7156 128.038C56.7156 126.505 53.8898 126.439 53.8898 128.038Z" fill="#C5CFD6"/>
<path fill-rule="evenodd" clip-rule="evenodd" d="M50.648 131.547C48.8232 133.126 55.2336 135.896 56.7454 133.698C57.9871 131.893 55.2836 132.492 54.3252 132.394C53.2837 132.288 51.4981 130.812 50.648 131.547Z" fill="#C5CFD6"/>
<path fill-rule="evenodd" clip-rule="evenodd" d="M101.9 128.07C101.724 128.134 101.724 128.134 101.9 128.07V128.07ZM77.8272 125.498C75.9796 125.799 69.9159 127.572 69.8341 129.473C69.6844 132.927 75.6229 129.389 76.9125 128.935C80.4155 127.7 82.2562 130.218 85.7752 130.351C88.8315 130.466 91.6417 128.199 94.5207 128.467C97.5373 128.748 98.9882 131.53 102.471 130.053C104.313 129.271 104.266 128.067 102.198 127.953C100.948 127.885 100.09 128.332 98.7864 127.866C96.7483 127.137 95.9274 125.951 93.4885 126.139C91.6481 126.281 89.9848 127.181 88.1884 127.529C84.0749 128.326 81.7933 124.854 77.8272 125.498Z" fill="#C5CFD6"/>
<path fill-rule="evenodd" clip-rule="evenodd" d="M116.091 129.57C115.964 129.616 115.964 129.616 116.091 129.57V129.57ZM116.557 128.131C116.578 128.139 116.717 128.306 116.557 128.131V128.131ZM114.439 127.033C114.36 127.086 114.36 127.086 114.439 127.033V127.033ZM114.485 127.02C114.896 127.233 118.198 129.19 115.8 129.651C114.582 129.885 113.575 127.761 114.485 127.02ZM113.392 124.851C108.103 126.942 113.795 134.425 117.946 131.384C119.693 130.105 119.923 127.519 118.223 126.186C117.205 125.388 114.774 124.303 113.392 124.851Z" fill="#C5CFD6"/>
<path fill-rule="evenodd" clip-rule="evenodd" d="M63.7377 154.339C57.1372 154.34 50.4788 154.22 43.8872 154.559C42.7779 154.616 38.5521 154.433 37.9805 155.439C36.9349 157.278 41.283 156.365 41.9147 156.31C55.0392 155.171 68.749 155.826 81.9168 156.151C92.6861 156.416 103.398 156.581 114.154 157.062C116.982 157.189 119.807 157.328 122.632 157.476C123.553 157.524 125.871 158.054 126.065 156.778C126.244 155.598 123.353 155.865 122.631 155.832C116.888 155.569 111.148 155.295 105.407 155.015C91.5864 154.339 77.5799 154.336 63.7377 154.339Z" fill="#C5CFD6"/>
<path fill-rule="evenodd" clip-rule="evenodd" d="M37.7686 156.383C36.5357 157.446 37.1136 161.503 37.0792 162.844C37.0191 165.19 36.8914 167.533 36.8341 169.878C36.7745 172.329 36.8573 174.791 37.0245 177.238C37.0945 178.266 38.0672 183.232 39.5988 180.39C40.283 179.12 39.5822 175.582 39.5927 174.143C39.6115 171.525 39.7742 168.917 39.9245 166.301C40.0538 164.053 40.0585 161.803 40.1719 159.554C40.2079 158.837 40.3056 154.177 37.7686 156.383Z" fill="#C5CFD6"/>
<path fill-rule="evenodd" clip-rule="evenodd" d="M127.175 177.334C120.752 177.904 114.225 177.635 107.777 178.056C102.22 178.42 96.6682 178.568 91.0968 178.67C78.4807 178.901 65.8433 179.127 53.2639 180.038C50.397 180.246 47.5336 180.466 44.6591 180.577C43.2215 180.633 37.1891 180.066 36.7398 181.38C35.9747 183.617 42.4258 182.732 43.8173 182.697C46.8771 182.62 49.9226 182.428 52.9739 182.227C65.8004 181.38 78.6759 181.126 91.5298 180.774C98.5206 180.583 105.463 180.139 112.438 179.736C115.915 179.535 119.401 179.528 122.877 179.334C123.787 179.283 127.006 179.383 127.661 178.748C128.11 178.313 128.224 177.249 127.175 177.334Z" fill="#C5CFD6"/>
<path fill-rule="evenodd" clip-rule="evenodd" d="M124.998 156.764C125.218 162.105 125.566 167.441 125.774 172.782C125.837 174.388 125.277 177.266 126.309 178.683C127.967 180.96 129.262 178.55 129.566 177.131C130.524 172.652 129.494 167.704 129.226 163.197C129.124 161.478 129.74 157.652 128.781 156.113C127.869 154.647 124.916 154.794 124.998 156.764Z" fill="#C5CFD6"/>
<path fill-rule="evenodd" clip-rule="evenodd" d="M114.214 164.37C116.675 164.948 117.034 169.587 114.257 169.93C110.124 170.441 111.932 165.327 114.214 164.37ZM113.524 162.526C112.773 162.505 111.041 162.326 110.578 162.856C110.191 163.299 110.582 164.234 110.537 164.657C110.374 166.166 108.959 167.037 109.592 168.819C110.021 170.029 111.171 171.165 112.573 171.585C119.969 173.801 119.879 161.411 113.524 162.526Z" fill="#C5CFD6"/>
<path fill-rule="evenodd" clip-rule="evenodd" d="M46.7472 163.358C46.7287 163.378 46.7102 163.399 46.6921 163.419C46.7102 163.399 46.7287 163.378 46.7472 163.358ZM52.5564 160.678C52.5274 160.464 52.4984 160.249 52.4695 160.035C56.4797 161.676 59.6708 164.729 58.3392 168.827C57.3232 171.953 53.6523 173.062 50.2324 172.29C46.4466 171.435 44.6374 168.73 45.6582 165.408C46.1291 163.875 47.5753 161.815 49.4446 161.322C50.3148 161.093 52.2393 161.678 52.5564 160.678ZM50.2115 159.381C49.197 159.44 48.2097 159.806 47.3818 160.307C48.1568 159.739 49.1897 159.401 50.2115 159.381ZM50.2404 157.361C47.7346 157.428 46.0926 158.743 44.6063 160.323C44.1398 160.818 42.5628 162.133 42.758 162.801C42.9124 163.329 43.3164 164.101 44.1672 163.513C39.7112 171.212 51.2227 177.78 58.2501 172.425C64.8086 167.429 58.3017 157.127 50.2404 157.361Z" fill="#C5CFD6"/>
<path fill-rule="evenodd" clip-rule="evenodd" d="M47.9636 164.514C47.9636 165.539 49.7995 165.539 49.7995 164.514C49.7995 163.489 47.9636 163.489 47.9636 164.514Z" fill="#C5CFD6"/>
<path fill-rule="evenodd" clip-rule="evenodd" d="M51.0967 164.689C51.0967 165.731 52.9622 165.731 52.9622 164.689C52.9622 163.647 51.0967 163.647 51.0967 164.689Z" fill="#C5CFD6"/>
<path fill-rule="evenodd" clip-rule="evenodd" d="M52.5185 168.348C51.6457 168.41 48.4512 168.153 47.8905 168.816C46.9535 169.923 48.449 169.962 49.1835 170.081C49.8452 170.189 52.7213 170.128 53.1266 169.619C53.4848 169.169 53.4011 168.283 52.5185 168.348Z" fill="#C5CFD6"/>
<path fill-rule="evenodd" clip-rule="evenodd" d="M91.0074 165.476C90.8575 165.53 90.8575 165.53 91.0074 165.476V165.476ZM78.9368 164.711C76.9703 164.836 75.3047 165.817 73.4246 166.208C71.4177 166.626 70.5491 165.858 68.7243 165.355C66.826 164.832 65.4757 165.038 63.9499 166.162C63.0854 166.799 61.1887 168.265 61.729 169.397C62.9663 171.986 65.767 167.773 67.0842 167.577C69.1392 167.271 70.9675 168.829 73.337 168.383C75.4843 167.98 77.3896 166.702 79.6325 166.688C81.5078 166.676 83.2753 167.566 85.1268 167.781C87.9533 168.11 89.8092 167.24 92.422 166.594C94.6878 166.034 96.2766 166.773 98.4077 167.394C99.3817 167.678 102.632 168.71 102.033 166.838C101.864 166.309 97.5814 165.364 96.9176 165.182C94.576 164.541 93.0932 164.791 90.8628 165.528C89.0027 166.143 87.4381 166.443 85.4436 166.104C83.2463 165.732 81.248 164.559 78.9368 164.711Z" fill="#C5CFD6"/>
</g>
<g opacity="0.5">
<path fill-rule="evenodd" clip-rule="evenodd" d="M169.416 78.8809C169.734 72.961 170.17 67.0494 170.4 61.1259C170.514 58.1906 170.603 55.255 170.689 52.3192C170.709 51.6655 170.728 51.012 170.745 50.3583C170.801 48.1374 170.497 47.9557 173.075 47.7586C184.575 46.8785 196.121 46.5868 207.635 45.7905C221.521 44.8302 235.48 44.1671 249.405 43.8699C255.593 43.7375 261.808 43.4635 267.997 43.6303C269.368 43.6672 272.06 43.3579 272.6 44.2821C272.833 44.6813 272.344 46.0552 272.282 46.5159C272.088 47.9552 271.907 49.3994 271.795 50.8458C271.136 59.3765 271.529 68.1222 273.434 76.5236C268.965 74.3385 263.318 72.4589 258.109 72.832C252.798 73.2122 248.825 75.8726 244.574 78.3212C242.169 79.7062 241.359 80.0704 238.96 78.7287C236.893 77.5724 234.937 76.2503 232.987 74.9528C229.977 72.9503 227.137 70.779 224.218 68.6797C218.851 64.8197 211.458 59.3254 204.045 60.9431C198.75 62.0989 193.86 64.6222 189.264 67.0918C182.435 70.7608 176.253 75.2539 169.416 78.8809ZM261.452 41.0013C235.067 41.0013 208.88 43.2188 182.57 44.4185C179.823 44.5437 177.084 44.7281 174.346 44.9572C172.521 45.11 168.059 44.4687 166.863 45.8205C166.065 46.7224 166.751 46.8578 166.863 47.7147C167.005 48.7947 166.921 50.0743 166.884 51.2174C166.796 53.9718 166.704 56.7259 166.632 59.4806C166.359 69.8917 166.189 80.3008 166.675 90.7092C166.781 92.9791 167.735 96.122 167.213 98.3278C166.836 99.9247 165.572 100.897 168.485 101.192C171.352 101.482 174.857 100.743 177.727 100.507C180.612 100.269 183.498 100.01 186.387 99.8037C198.949 98.9062 211.632 99.0419 224.227 98.7435C236.935 98.4427 249.648 98.4234 262.361 98.4174C267.68 98.4149 273.758 98.6741 278.947 97.4049C280.774 96.9583 281.069 96.7383 280.619 95.1675C280.533 94.8694 279.982 94.7594 279.82 94.2207C279.6 93.4876 279.713 92.5964 279.661 91.8332C279.493 89.3408 279.435 86.8439 279.299 84.3497C279.073 80.1826 278.245 76.1383 277.632 72.0131C276.925 67.249 276.961 62.4118 276.947 57.6165C276.939 54.9567 277.017 52.3057 277.264 49.6533C277.422 47.9521 278.388 45.4122 277.898 43.8257C277.654 43.0358 277.254 42.4093 276.306 42.0694C275.705 41.8538 275.2 42.0225 274.606 41.9679C273.902 41.9031 273.462 41.8174 272.618 41.6517C269.003 40.9412 265.136 41.0013 261.452 41.0013Z" fill="#C5CFD6"/>
<path fill-rule="evenodd" clip-rule="evenodd" d="M246.85 52.3273C246.848 53.9852 246.55 56.4317 247.431 57.9928C248.55 59.973 249.948 59.354 250.319 57.4932C250.531 56.427 250.526 53.2717 250.131 52.3273C249.572 50.9907 246.85 50.0803 246.85 52.3273Z" fill="#C5CFD6"/>
<path fill-rule="evenodd" clip-rule="evenodd" d="M250.059 52.9675C248.263 53.0224 243.035 52.6488 241.821 53.9002C239.737 56.0467 243.364 56.4269 244.921 56.3067C246.724 56.1677 252.292 56.5069 253.499 55.254C255.518 53.158 251.47 52.9228 250.059 52.9675Z" fill="#C5CFD6"/>
<path fill-rule="evenodd" clip-rule="evenodd" d="M180.394 108.353C188.286 109.541 185.831 119.974 178.363 117.558C175.761 116.716 171.927 114.283 173.366 111.416C174.44 109.274 177.941 108.149 180.394 108.353ZM177.127 105.109C171.994 105.858 168.485 110.674 170.245 114.874C171.943 118.927 178.382 121.894 183.131 120.438C187.664 119.047 189.926 113.818 188.397 109.992C186.8 105.995 181.598 104.456 177.127 105.109Z" fill="#C5CFD6"/>
<path fill-rule="evenodd" clip-rule="evenodd" d="M225.131 109.573C223.166 109.714 221.468 110.907 219.491 111.118C217.642 111.316 216.11 110.767 214.379 110.329C212.287 109.799 210.368 109.566 208.23 110.037C206.596 110.397 204.984 111.361 203.287 111.477C199.947 111.706 196.065 108.402 193.458 112.138C192.208 113.93 194.023 115.084 195.893 114.248C197.842 113.378 196.885 113.066 199.303 113.58C201.32 114.009 202.95 114.242 204.971 113.641C206.802 113.097 208.409 112.1 210.398 111.988C212.346 111.879 214.04 112.648 215.902 112.98C218.192 113.388 220.219 113.08 222.388 112.457C224.452 111.865 225.275 111.542 227.358 112.07C228.676 112.404 231.557 113.466 232.84 112.61C235.06 111.13 232.089 110.914 230.919 110.703C229.035 110.365 227.086 109.434 225.131 109.573Z" fill="#C5CFD6"/>
<path fill-rule="evenodd" clip-rule="evenodd" d="M270.096 108.579C270.112 108.589 270.128 108.6 270.143 108.61C270.128 108.6 270.112 108.589 270.096 108.579ZM268.167 108.229C271.036 108.389 274.138 112.92 270.337 113.08C267.662 113.194 264.669 109.227 268.167 108.229ZM267.765 104.522C258.694 106.718 262.84 117.805 271.59 116.525C275.564 115.943 276.911 111.951 275.597 108.996C275.033 107.727 273.933 106.657 272.618 105.927C271.648 105.388 268.873 104.254 267.765 104.522Z" fill="#C5CFD6"/>
<path fill-rule="evenodd" clip-rule="evenodd" d="M225.446 127.668C233.428 127.431 241.41 127.193 249.4 127.129C253.731 127.094 258.037 127.16 262.361 127.375C264.279 127.47 266.196 127.562 268.115 127.633C268.445 127.645 268.903 127.625 269.408 127.604C270.596 127.553 272.046 127.491 272.728 127.804C276.545 129.555 268.769 129.747 267.823 129.733C265.706 129.702 263.592 129.612 261.477 129.521C259.628 129.442 257.78 129.362 255.93 129.323C244.061 129.07 232.12 129.533 220.231 129.993L220.231 129.993C217.505 130.098 214.782 130.204 212.064 130.3C209.178 130.403 206.292 130.47 203.407 130.536C199.282 130.631 195.158 130.726 191.034 130.927C189.459 131.004 187.884 131.085 186.31 131.166L186.31 131.166L186.31 131.166L186.309 131.166C184.054 131.283 181.798 131.399 179.541 131.502C177.775 131.583 176.008 131.661 174.238 131.7C173.92 131.707 173.505 131.745 173.052 131.787C171.955 131.889 170.635 132.011 169.923 131.758C169.065 131.454 168.371 131.029 168.843 130.128C169.242 129.366 170.691 129.457 171.747 129.524C172.036 129.542 172.295 129.558 172.496 129.555C175.872 129.498 179.242 129.334 182.612 129.155C183.845 129.089 185.078 129.022 186.311 128.955C192.727 128.605 199.138 128.255 205.571 128.16C212.199 128.062 218.822 127.865 225.446 127.668ZM267.134 173.215L269.429 173.191C270.614 173.28 271.144 174.359 270.383 175.187C269.801 175.822 267.559 175.851 266.097 175.87C265.692 175.875 265.347 175.879 265.114 175.896C261.299 176.162 257.491 176.281 253.665 176.313C245.607 176.379 237.579 176.679 229.534 177.077C221.299 177.484 213.057 177.637 204.814 177.79C198.75 177.902 192.686 178.015 186.624 178.229C183.152 178.351 179.681 178.443 176.208 178.522C175.834 178.53 175.338 178.577 174.777 178.629L174.776 178.629C172.583 178.835 169.395 179.133 168.673 177.623C168.032 176.282 168.923 175.665 170.226 175.384C170.02 174.591 170.058 173.475 170.08 172.836C170.086 172.644 170.091 172.495 170.088 172.411C170.055 171.609 170.032 170.808 170.01 170.006C169.984 169.098 169.958 168.19 169.917 167.283C169.881 166.459 169.847 165.634 169.813 164.809C169.678 161.555 169.544 158.294 169.255 155.053C169.122 153.557 168.91 152.079 168.699 150.603C168.362 148.247 168.026 145.897 168.01 143.491C168.007 143.059 167.983 142.518 167.954 141.907C167.81 138.784 167.582 133.847 169.818 132.343C173.761 130.349 172.981 136.106 172.634 138.675C172.576 139.1 172.53 139.437 172.52 139.638C172.293 143.91 172.601 147.995 173.097 152.24C173.431 155.107 173.236 157.965 173.04 160.827C172.97 161.849 172.9 162.872 172.854 163.896C172.831 164.403 172.811 164.91 172.791 165.416C172.729 166.974 172.667 168.531 172.532 170.088C172.517 170.256 172.512 170.579 172.506 170.992C172.488 172.155 172.46 174.033 172.173 175.172C172.784 175.15 173.378 175.155 173.868 175.16C174.181 175.163 174.451 175.166 174.658 175.16C175.599 175.135 176.541 175.112 177.482 175.088L177.483 175.088L177.485 175.088C180.264 175.017 183.043 174.946 185.821 174.856C192.383 174.642 198.947 174.57 205.511 174.499H205.511C213.263 174.414 221.015 174.33 228.765 174.011C241.535 173.485 254.35 173.35 267.134 173.215H267.134ZM269.503 131.447C269.496 138.765 270.149 145.883 270.912 153.172C271.383 157.681 271.762 162.207 272.063 166.727C272.077 166.937 272.074 167.286 272.072 167.724C272.056 170.223 272.024 175.609 274.873 174.321C277.024 173.348 276.197 167.707 275.74 164.586C275.639 163.901 275.557 163.338 275.527 162.971C275.465 162.191 275.403 161.41 275.341 160.629L275.341 160.629C275.055 157.005 274.768 153.385 274.392 149.766L274.312 149.003C273.876 144.823 273.439 140.646 273.362 136.445C273.356 136.098 273.394 135.614 273.438 135.068C273.564 133.487 273.731 131.381 272.974 130.542C271.908 129.36 269.505 129.709 269.503 131.447Z" fill="#C5CFD6"/>
<path fill-rule="evenodd" clip-rule="evenodd" d="M225.811 149.388C236.006 145.389 246.32 141.343 256.922 138.463C257.688 138.255 258.173 138.94 257.999 139.515C257.82 140.107 256.161 140.612 255.061 140.948C254.732 141.048 254.453 141.133 254.279 141.2C252.798 141.774 251.313 142.34 249.828 142.907C248.308 143.487 246.788 144.067 245.271 144.654C242.118 145.876 238.962 147.092 235.806 148.308C232.426 149.61 229.046 150.912 225.67 152.221C225.542 152.271 225.414 152.32 225.286 152.37C229.877 153.784 234.441 155.262 238.986 156.784C240.539 157.305 242.087 157.836 243.635 158.367C244.51 158.667 245.386 158.967 246.263 159.266C246.548 159.363 247.045 159.495 247.643 159.653C249.589 160.168 252.6 160.965 252.822 161.77C253.184 163.082 249.028 161.813 247.459 161.334C247.251 161.271 247.089 161.221 246.989 161.193C244.674 160.552 242.388 159.838 240.102 159.123L239.786 159.025C237.975 158.459 236.166 157.887 234.358 157.315C230.825 156.198 227.292 155.081 223.74 154.01C223.238 153.858 222.735 153.707 222.232 153.557C216.532 155.777 210.843 158.018 205.172 160.295C202.132 161.516 199.108 162.765 196.092 164.031C195.434 164.307 194.619 164.734 193.733 165.198C191.611 166.311 189.085 167.634 187.347 167.601C186.415 167.584 185.787 167.41 185.689 166.431C185.589 165.421 187.085 164.891 188.16 164.509C188.417 164.418 188.651 164.335 188.832 164.257C192.056 162.859 195.299 161.497 198.551 160.152C205.011 157.48 211.532 154.915 218.075 152.402C218.113 152.387 218.151 152.373 218.189 152.358C214.559 151.293 210.92 150.254 207.273 149.236C206.909 149.135 206.162 148.956 205.181 148.72C200.544 147.607 190.667 145.235 191.107 143.849C191.611 142.265 200.871 145.161 204.971 146.444C205.739 146.684 206.326 146.867 206.64 146.954C211.541 148.309 216.429 149.701 221.291 151.157C222.796 150.571 224.302 149.98 225.811 149.388Z" fill="#C5CFD6"/>
<path fill-rule="evenodd" clip-rule="evenodd" d="M182.126 184.194C185.11 184.647 187.215 187.129 186.888 189.729C186.445 193.241 182.408 194.851 178.678 194.392C174.446 193.872 173.556 190.771 175.606 187.786C176.06 187.126 176.582 186.335 177.407 185.987C177.975 185.748 178.698 185.96 179.154 185.767C180.756 185.091 179.793 184.014 182.126 184.194ZM180.767 181.899C177.125 182.303 170.397 185.956 170.737 189.612C171.033 190.036 171.477 190.209 172.071 190.132C171.928 190.924 171.974 191.707 172.21 192.482C172.556 193.488 173.246 194.313 174.171 194.968C176.075 196.318 178.678 196.649 181.05 196.412C185.478 195.971 188.968 193.347 189.217 189.354C189.459 185.457 185.535 181.377 180.767 181.899Z" fill="#C5CFD6"/>
<path fill-rule="evenodd" clip-rule="evenodd" d="M198.405 186.656C196.771 187.407 194.186 188.56 193.228 189.986C192.216 191.492 193.264 193.14 195.397 192.427C197.09 191.862 198.167 190.065 199.973 189.489C201.566 188.981 202.209 189.24 203.893 189.746C205.629 190.267 207.146 190.771 209.023 190.643C211.381 190.482 213.423 189.297 215.732 189.027C217.675 188.8 219.278 189.456 221.139 189.717C223.299 190.019 224.71 189.31 226.731 188.942C228.105 188.69 230.527 189.712 231.53 189.33C233.784 188.471 231.399 187.42 230.152 187.073C228.05 186.488 226.756 187.004 224.757 187.489C222.587 188.015 221.649 187.62 219.574 187.136C215.377 186.158 212.134 188.523 208.155 188.093C204.471 187.695 202.266 184.884 198.405 186.656Z" fill="#C5CFD6"/>
<path fill-rule="evenodd" clip-rule="evenodd" d="M267.045 184.909C271.086 188.193 266.547 192.866 262.091 190.241C260.524 189.318 260.499 187.834 261.719 186.506C262.835 185.292 265.287 184.818 267.045 184.909ZM265.548 182.255C261.773 182.892 258.212 184.393 257.87 188.171C257.536 191.856 261.897 193.568 265.56 193.326C273.783 192.783 273.189 180.974 265.548 182.255Z" fill="#C5CFD6"/>
</g>
<g opacity="0.5">
<path fill-rule="evenodd" clip-rule="evenodd" d="M37.6996 206.924C31.9224 206.98 26.148 207.165 20.3822 207.481C14.8991 207.782 8.94979 207.554 3.556 208.475C2.02441 208.737 -0.0445298 209.947 1.99197 211.278C3.42341 212.214 8.66045 211.137 10.3698 211.046C16.6647 210.711 22.9627 210.309 29.2665 210.116C35.2342 209.933 41.2016 209.869 47.1721 209.817C48.0837 209.809 49.5969 209.556 50.5046 209.785C51.8089 210.115 51.4995 210.205 51.5971 211.64C51.7742 214.241 51.7253 216.851 51.6658 219.454C51.6083 221.973 51.5008 224.492 51.5113 227.012C51.5186 228.81 50.8557 232.383 51.8963 233.945C53.3942 236.193 54.9481 233.751 55.06 232.258C55.2743 229.401 55.1783 226.509 55.1792 223.649C55.1799 220.964 55.2021 218.279 55.093 215.596C55.0139 213.657 55.3334 210.274 54.129 208.511C52.9023 206.717 49.9489 207.104 47.7938 207.018C44.432 206.884 41.0642 206.893 37.6996 206.924Z" fill="#C5CFD6"/>
<path fill-rule="evenodd" clip-rule="evenodd" d="M0.941755 210.163C0.948114 215.208 0.275003 220.219 0.0864555 225.258C-2.83272e-05 227.574 -0.17554 230.118 0.500433 232.392C1.18276 234.688 3.34995 235.186 3.59954 232.623C4.10509 227.432 3.98109 222.049 4.37472 216.816C4.51366 214.969 5.41793 211.583 4.57376 209.853C3.83038 208.329 0.938575 208.037 0.941755 210.163Z" fill="#C5CFD6"/>
<path fill-rule="evenodd" clip-rule="evenodd" d="M55.1165 232.399C45.0834 233.55 34.5947 233.131 24.4901 233.312C19.6422 233.399 14.7953 233.404 9.9468 233.448C8.25465 233.463 3.95748 232.905 2.49361 233.73C0.16332 235.043 2.6917 236.056 4.23442 236.085C13.8026 236.267 23.4774 235.885 33.0437 235.613C37.3418 235.491 41.6539 235.431 45.9406 235.114C48.5796 234.919 51.4635 234.73 54.0262 234.115C54.5721 233.984 55.761 234.011 55.8834 233.366C55.9588 232.966 55.822 232.315 55.1165 232.399Z" fill="#C5CFD6"/>
<path fill-rule="evenodd" clip-rule="evenodd" d="M13.396 239.732C10.6075 239.746 2.2046 238.623 1.04979 240.98C-0.489751 244.124 5.51611 243.39 7.13132 243.355C10.7999 243.273 14.4659 243.264 18.1354 243.265C21.736 243.267 25.3362 243.247 28.9361 243.173C29.9789 243.151 32.4065 243.526 33.0065 242.437C33.4625 241.61 33.1022 240.957 32.2612 240.519C30.2378 239.464 24.981 240.076 22.6119 239.981C19.5446 239.859 16.4671 239.732 13.396 239.732Z" fill="#C5CFD6"/>
<path fill-rule="evenodd" clip-rule="evenodd" d="M47.3196 240.314C45.726 240.396 42.5026 239.826 41.075 240.459C39.4525 241.177 40.0241 242.303 41.425 242.797C42.3951 243.14 46.3747 242.96 47.3196 242.563C48.3046 242.15 49.4184 240.202 47.3196 240.314Z" fill="#C5CFD6"/>
<path fill-rule="evenodd" clip-rule="evenodd" d="M64.7908 210.658C63.0888 211.063 63.6052 219.441 63.5613 220.769C63.4411 224.407 62.9692 228.984 64.3638 232.488C65.2531 234.722 66.9612 234.419 66.6702 232.067C66.4146 230.003 65.9761 227.962 65.7863 225.885C65.3571 221.183 64.773 216.169 65.1784 211.463C65.351 211.737 66.9656 214.273 67.3456 214.083C67.2308 214.142 65.4833 210.5 64.7908 210.658Z" fill="#C5CFD6"/>
<path fill-rule="evenodd" clip-rule="evenodd" d="M83.936 207.573C80.4916 207.617 77.0472 207.67 73.6038 207.753C70.8659 207.819 66.5636 207.429 64.0527 208.427C61.063 209.616 62.4814 212.265 65.2896 212.321C67.7737 212.371 70.4229 211.885 72.9297 211.811C79.7006 211.609 86.4835 211.567 93.2575 211.517C99.3839 211.471 105.771 212.037 111.843 211.24C112.744 218.174 110.308 225.138 111.136 232.152C111.265 233.241 111.207 234.779 112.806 235.027C114.824 235.34 114.907 233.607 114.984 232.366C115.203 228.823 115.084 225.277 115.383 221.729C115.661 218.441 116.207 215.081 115.745 211.788C115.178 207.735 112.938 208.06 108.979 207.892C100.617 207.536 92.3072 207.466 83.936 207.573Z" fill="#C5CFD6"/>
<path fill-rule="evenodd" clip-rule="evenodd" d="M72.3927 232.196C70.6376 232.234 67.7226 231.766 66.598 233.225C65.4279 234.743 66.8161 236.067 68.5175 236.379C70.5314 236.747 73.1574 236.242 75.2477 236.236C77.4244 236.231 79.6017 236.252 81.7785 236.259C91.1108 236.291 100.483 236.413 109.809 236.079C111.111 236.032 114.807 236.411 115.709 235.328C116.509 234.367 115.949 233.505 114.896 233.016C113.167 232.213 109.617 232.519 107.695 232.455C105.321 232.377 102.944 232.351 100.568 232.319C91.1925 232.193 81.7676 231.995 72.3927 232.196Z" fill="#C5CFD6"/>
<path fill-rule="evenodd" clip-rule="evenodd" d="M80.2871 239.214C76.7947 239.266 73.0686 239.133 69.6108 239.592C66.5705 239.996 66.1963 242.544 69.469 242.842C72.4765 243.117 76.1228 242.604 79.145 242.436C80.2184 242.376 81.4667 242.461 81.9812 241.432C82.5182 240.357 81.4915 239.327 80.2871 239.214Z" fill="#C5CFD6"/>
<path fill-rule="evenodd" clip-rule="evenodd" d="M106.69 239.482C104.825 239.522 99.3807 238.828 98.4573 240.673C96.9203 243.747 104.291 242.579 105.705 242.534C107.487 242.477 114.433 243.379 114.435 240.919C114.436 238.507 108.396 239.445 106.69 239.482Z" fill="#C5CFD6"/>
<path fill-rule="evenodd" clip-rule="evenodd" d="M0.640241 254.753C0.644693 260.344 0.243433 265.987 0.83165 271.563C1.07489 273.869 1.03323 278.287 2.57405 280.243C3.66781 281.631 5.18478 281.533 5.78221 279.867C6.18157 278.753 5.54279 276.525 5.47157 275.333C5.40289 274.189 5.32277 273.046 5.26172 271.902C5.10497 268.954 5.11737 266.011 5.16411 263.062C5.20417 260.533 5.90653 257.186 5.24423 254.753C4.62676 252.486 0.640241 251.956 0.640241 254.753Z" fill="#C5CFD6"/>
<path fill-rule="evenodd" clip-rule="evenodd" d="M65.4451 249.835C54.2578 250.078 43.0454 249.861 31.868 250.341C26.3557 250.578 20.8649 251.097 15.3802 251.616C12.6855 251.871 9.9924 252.133 7.3025 252.421C6.49076 252.507 -0.254343 252.734 2.28262 254.958C3.39038 255.929 6.91555 254.915 8.31042 254.771C11.0111 254.495 13.7172 254.254 16.4218 254.006C21.5682 253.534 26.721 253.087 31.8893 252.839C44.0616 252.254 56.2841 252.43 68.4685 252.04C71.7644 251.935 75.0505 251.859 78.3477 251.972C79.2135 252.001 85.5758 252.281 82.8134 250.244C81.5072 249.28 76.5824 249.778 74.95 249.749C71.7819 249.692 68.6119 249.766 65.4451 249.835Z" fill="#C5CFD6"/>
<path fill-rule="evenodd" clip-rule="evenodd" d="M80.696 259.254C80.6406 256.671 80.5853 254.087 80.4496 251.507C80.3069 248.789 84.577 248.377 85.8434 250.577C86.7551 252.161 86.5948 254.856 86.4574 257.166C86.402 258.097 86.3504 258.965 86.3741 259.673C86.4285 261.295 86.5662 262.972 86.7056 264.672C87.0565 268.949 87.419 273.368 86.4968 277.405C86.0486 279.367 84.1395 280.399 82.8689 279.329C82.8672 279.332 82.8654 279.334 82.8637 279.336C82.3858 279.947 80.8979 279.945 79.8022 279.944C79.5005 279.944 79.2285 279.944 79.0155 279.956C76.0137 280.133 73.0675 280.432 70.0924 280.818C64.1644 281.589 58.288 282.062 52.2958 282.191C48.23 282.278 44.1585 282.307 40.0859 282.337C32.2874 282.393 24.4849 282.449 16.7112 282.911C14.0903 283.067 11.5091 283.335 8.93113 283.763C8.7117 283.799 8.46801 283.846 8.2086 283.896C6.29175 284.266 3.51677 284.801 3.32717 282.478C3.10181 279.722 9.99267 279.361 13.5388 279.175C14.0802 279.146 14.5436 279.122 14.8918 279.094C25.6591 278.226 36.5954 278.36 47.4083 278.493C47.9323 278.5 48.4559 278.506 48.9792 278.512C49.8231 278.523 50.6667 278.535 51.5101 278.547C56.1397 278.613 60.7638 278.679 65.392 278.433C67.4982 278.322 69.6318 278.264 71.7694 278.207C75.1797 278.115 78.6001 278.023 81.9354 277.71C81.4325 276.019 81.3445 274.023 81.2616 272.142C81.2293 271.41 81.1977 270.695 81.1428 270.023C80.8498 266.438 80.7729 262.846 80.696 259.254Z" fill="#C5CFD6"/>
<path fill-rule="evenodd" clip-rule="evenodd" d="M89.7501 253.498C88.2388 253.676 86.9781 254.797 87.6528 256.22C88.5027 258.011 91.034 257.311 92.7061 257.198C98.021 256.837 103.57 257.558 108.821 257.014C110.255 256.865 112.335 256.188 111.048 254.517C110.08 253.262 106.554 253.482 105.055 253.362C99.9288 252.95 94.8698 253.06 89.7501 253.498Z" fill="#C5CFD6"/>
<path fill-rule="evenodd" clip-rule="evenodd" d="M98.7206 261.311C96.6593 261.431 91.8611 261.337 90.9924 263.37C89.4344 267.018 95.5373 265.733 97.3954 265.525C99.554 265.284 104.643 265.93 105.792 264.115C107.847 260.869 100.528 261.203 98.7206 261.311Z" fill="#C5CFD6"/>
<path fill-rule="evenodd" clip-rule="evenodd" d="M93.42 269.317C92.4423 270.165 92.4407 271.679 93.42 272.528C94.619 273.566 97.2314 273.35 98.8068 273.426C101.004 273.533 107.315 274.54 108.407 272.297C109.879 269.27 104.164 269.334 102.284 269.162C100.111 268.963 95.2206 267.755 93.42 269.317Z" fill="#C5CFD6"/>
<path fill-rule="evenodd" clip-rule="evenodd" d="M16.3909 217.505C16.3909 220.76 22.253 220.76 22.253 217.505C22.253 214.269 16.3909 214.22 16.3909 217.505Z" fill="#C5CFD6"/>
<path fill-rule="evenodd" clip-rule="evenodd" d="M27.5103 217.542C27.5103 221.263 34.1873 221.255 34.1873 217.542C34.1873 213.835 27.5103 213.797 27.5103 217.542Z" fill="#C5CFD6"/>
<path fill-rule="evenodd" clip-rule="evenodd" d="M20.7835 222.489C17.5378 223.266 20.5279 225.651 22.035 226.195C24.4302 227.061 27.6991 227.7 30.0949 226.401C31.0481 225.885 31.822 225.198 31.1234 224.196C30.3791 223.128 29.3601 223.603 28.2269 223.701C26.7913 223.826 25.6311 223.807 24.2448 223.408C23.2102 223.11 21.912 222.22 20.7835 222.489Z" fill="#C5CFD6"/>
<path fill-rule="evenodd" clip-rule="evenodd" d="M79.6569 217.711C79.6569 219.913 83.5989 219.913 83.5989 217.711C83.5989 215.51 79.6569 215.51 79.6569 217.711Z" fill="#C5CFD6"/>
<path fill-rule="evenodd" clip-rule="evenodd" d="M88.3746 218.043C88.3746 220.488 92.7538 220.489 92.7538 218.043C92.7538 215.597 88.3746 215.597 88.3746 218.043Z" fill="#C5CFD6"/>
<path fill-rule="evenodd" clip-rule="evenodd" d="M88.0503 223.35C85.7499 223.607 79.0967 224.192 78.7244 226.65C78.1502 230.443 85.4402 227.373 87.1041 227.075C89.2233 226.696 91.1158 226.795 93.2314 226.869C94.3929 226.909 95.9379 227.072 95.8161 225.538C95.6164 223.019 90.0611 223.127 88.0503 223.35Z" fill="#C5CFD6"/>
<path fill-rule="evenodd" clip-rule="evenodd" d="M30.2125 258.327C28.5452 258.712 26.364 261.212 27.5112 262.741C29.3922 265.25 30.2218 261.398 31.009 261.027C32.4414 260.353 33.6042 262.818 35.1011 261.525C37.4632 259.484 31.6996 257.981 30.2125 258.327Z" fill="#C5CFD6"/>
<path fill-rule="evenodd" clip-rule="evenodd" d="M49.3177 256.472C47.3404 256.488 43.1659 258.915 42.8702 260.707C42.6947 261.772 43.509 262.795 44.833 262.81C46.6358 262.829 47.2087 260.797 48.7715 260.371C50.4573 259.913 50.2071 260.969 51.663 261.516C52.7284 261.917 54.061 261.749 54.4311 260.613C55.1293 258.471 51.3495 256.439 49.3177 256.472Z" fill="#C5CFD6"/>
<path fill-rule="evenodd" clip-rule="evenodd" d="M34.1819 266.734C31.0192 268.341 36.2232 271.785 38.0272 272.216C40.7508 272.866 46.2324 271.652 46.8778 268.768C47.1347 267.62 46.3065 266.58 44.8451 266.786C43.642 266.955 42.8703 268.263 41.7559 268.732C40.2516 269.364 38.9143 269.321 37.6361 268.369C36.5948 267.594 36.0372 265.796 34.1819 266.734Z" fill="#C5CFD6"/>
<path fill-rule="evenodd" clip-rule="evenodd" d="M36.4741 290.476C33.6485 290.999 30.7761 290.648 27.9367 291.139C25.0414 291.64 23.3111 292.589 20.6212 291.633C20.4947 291.587 20.3684 291.541 20.2422 291.494C18.1602 290.717 15.9781 290.487 13.7989 291.726C12.5092 292.459 8.59424 294.995 9.06609 296.543C10.0886 299.898 14.4939 294.637 15.6172 294.124C17.7593 293.146 19.2279 294.396 21.4333 294.748C24.0748 295.17 26.2004 293.96 28.6887 293.478C31.5989 292.915 34.8729 292.718 37.8337 292.416C39.0035 292.297 43.4342 293.099 43.8342 291.837C44.5213 289.669 37.5848 290.272 36.4741 290.476Z" fill="#C5CFD6"/>
<path fill-rule="evenodd" clip-rule="evenodd" d="M56.8607 297.233C57.0455 297.355 56.8973 297.257 56.8607 297.233V297.233ZM64.7746 290.345C67.1936 290.132 74.9333 288.634 76.5224 290.801C77.5573 292.213 75.9148 297.423 74.3479 298.097C73.0955 298.635 70.1782 298.04 68.804 297.998C66.247 297.92 63.6846 297.885 61.1305 297.747C60.2739 297.7 57.5176 297.837 56.8461 297.18C56.0531 296.403 56.0884 292.266 55.9017 291.24C58.1258 291.864 62.4491 290.55 64.7746 290.345ZM69.9401 288.22C66.842 288.337 63.7445 288.539 60.6695 288.899C58.9554 289.1 57.2187 289.634 55.6356 289.887C55.1253 289.968 54.2971 289.742 53.6713 290.004C51.8428 290.77 53.444 295.948 53.885 297.332C54.5622 299.457 56.2668 299.801 58.655 300.001C61.8008 300.266 65.0112 300.183 68.1669 300.149C71.2088 300.117 75.3104 300.701 77.0172 298.055C78.1205 296.344 79.3039 292.36 78.3609 290.453C77.1202 287.944 72.4879 288.128 69.9401 288.22Z" fill="#C5CFD6"/>
<path fill-rule="evenodd" clip-rule="evenodd" d="M104.634 298.657C104.468 298.841 104.468 298.841 104.634 298.657V298.657ZM105.313 297.947C105.261 298.015 105.024 298.232 105.313 297.947V297.947ZM97.9243 297.752C99.2899 297.529 100.656 297.309 102.023 297.093C100.729 298.664 99.3653 298.014 97.1536 297.878C97.4105 297.836 97.6674 297.794 97.9243 297.752ZM91.4089 297.196C91.7552 297.096 92.1011 296.995 92.4474 296.895C92.4369 297.123 92.4935 297.337 92.6172 297.536C92.0245 297.481 91.4325 297.421 90.8411 297.358C91.0302 297.304 91.2197 297.25 91.4089 297.196ZM88.3895 295.263C88.3701 294.851 89.0852 295.134 89.4951 295.106C88.7049 295.709 88.3364 295.762 88.3895 295.263ZM99.1877 290.587C99.2917 290.472 99.4293 290.478 99.6007 290.605C99.4137 290.659 98.6936 290.924 99.1877 290.587ZM106.19 289.873C106.209 289.873 106.597 290.328 106.19 289.873V289.873ZM105.994 289.724C106.095 289.791 106.095 289.791 105.994 289.724V289.724ZM105.12 289.635C106.551 289.845 106.443 291.302 105.12 289.635V289.635ZM88.2982 289.536C88.0073 289.746 88.1068 289.543 88.2982 289.536V289.536ZM93.7738 286.435C91.343 286.557 86.8811 286.434 84.851 287.557C82.2018 289.022 83.5957 294.068 83.8329 296.28C84.1833 299.549 85.9575 300.48 89.5087 300.823C93.7468 301.233 98.1012 301.309 102.361 301.212C106.198 301.124 108.383 299.98 109.085 296.478C109.301 295.407 109.847 293.749 109.83 292.723C109.818 292.011 109.409 291.686 109.254 291.081C108.373 287.634 106.899 287.225 102.825 287.075C99.8257 286.964 96.7165 286.301 93.7738 286.435Z" fill="#C5CFD6"/>
</g>
<g opacity="0.5">
<path fill-rule="evenodd" clip-rule="evenodd" d="M222.536 207.251C228.716 207.366 235.728 210.331 234.75 216.613C234.034 221.216 229.439 224.952 224.116 225.274C218.395 225.62 212.346 221.813 211.569 216.763C210.695 211.083 216.492 207.138 222.536 207.251ZM219.505 204.694C216.999 205.018 214.605 206.159 212.399 207.181C211.557 207.571 207.288 209.95 210.636 210.541C202.568 221.822 221.556 232.301 232.231 224.969C237.025 221.676 239.549 215.434 236.45 210.548C233.245 205.494 225.645 203.894 219.505 204.694Z" fill="#C5CFD6"/>
<path fill-rule="evenodd" clip-rule="evenodd" d="M218.028 214.297C218.028 216.404 221.8 216.404 221.8 214.297C221.8 212.19 218.028 212.19 218.028 214.297Z" fill="#C5CFD6"/>
<path fill-rule="evenodd" clip-rule="evenodd" d="M225.022 214.634C225.022 216.918 229.112 216.918 229.112 214.634C229.112 212.35 225.022 212.35 225.022 214.634Z" fill="#C5CFD6"/>
<path fill-rule="evenodd" clip-rule="evenodd" d="M220.302 219.152C219.752 220.885 226.027 221.774 226.236 219.768C226.336 218.809 220.685 217.943 220.302 219.152Z" fill="#C5CFD6"/>
<path fill-rule="evenodd" clip-rule="evenodd" d="M238.698 218.08C245.919 217.329 253.364 217.676 260.62 217.857C262.436 217.902 264.251 217.946 266.067 217.972C267.222 217.989 269.715 218.47 270.723 218.001C274.849 216.082 266.755 215.155 265.609 215.066C258.391 214.552 247.253 214.368 240.015 214.611C237.874 214.683 237.411 218.214 238.698 218.08Z" fill="#C5CFD6"/>
<path fill-rule="evenodd" clip-rule="evenodd" d="M271.191 249.203C271.253 242.643 271.524 236.039 272.106 229.499C272.342 226.833 272.627 224.171 272.862 221.506C272.973 220.25 273.488 218.491 272.636 217.389C271.759 216.254 269.835 216.018 268.675 217.024C267.287 218.582 267.691 221.197 267.518 223.081C267.253 225.979 266.932 228.874 266.773 231.778C266.465 237.399 266.392 243.117 266.913 248.729C267.159 251.378 267.693 253.962 268.402 256.545C268.726 257.72 271.295 262.958 270.755 263.68C269.918 264.8 263.728 264.377 262.386 264.408C258.941 264.488 255.494 264.54 252.049 264.597C249.098 264.646 246.148 264.681 243.197 264.704C242.025 264.713 235.142 264.532 236.669 266.038C219.593 267.07 202.191 265.347 185.219 264.757C184.362 264.727 182.959 264.516 181.665 264.455C181.51 263.913 181.382 263.428 181.351 263.092C181.127 260.727 181.069 258.354 180.827 255.99C180.385 251.664 179.527 247.382 179.017 243.064C178.507 238.75 178.559 234.423 178.262 230.099C178.211 229.358 178.091 223.288 176.324 221.814C177.162 222.089 178.512 222.125 179.29 222.07C185.586 221.63 191.836 220.681 198.078 219.867C199.863 219.635 203.916 219.8 205.397 219.026C206.679 218.356 207.186 216.007 204.956 216.197C198.732 216.775 192.542 217.672 186.367 218.555C184.715 218.791 183.068 219.044 181.421 219.302C180.32 219.474 177.417 219.461 176.564 220.036C175.527 220.734 175.417 221.209 175.769 221.525C175.28 221.408 174.695 221.591 173.993 222.201C172.664 223.7 173.913 227.393 174.071 229.151C174.262 231.26 174.355 233.373 174.466 235.486C174.68 239.574 175.174 243.606 175.932 247.645C176.783 252.17 177.506 256.714 178.358 261.237C178.58 262.415 178.869 263.564 179.239 264.702C176.942 265.72 178.504 267.34 180.325 267.627C180.338 267.629 180.352 267.631 180.365 267.633C180.932 268.833 181.726 269.945 182.346 268.337C182.394 268.213 182.416 268.061 182.422 267.891C187.126 268.352 192.296 268.066 196.928 268.23C206.959 268.585 217.053 269.119 227.094 268.848C231.07 268.741 235.057 268.435 238.999 267.975C241.309 267.706 243.627 267.384 245.9 266.938C246.063 266.906 246.311 266.872 246.596 266.831C246.643 266.83 246.69 266.829 246.735 266.829C250.214 266.783 253.692 266.702 257.169 266.577C260.087 266.472 263.019 266.418 265.928 266.179C267.735 266.031 271.554 266.058 272.663 264.483C273.672 263.05 271.986 259.36 271.746 257.751C271.325 254.917 271.164 252.057 271.191 249.203Z" fill="#C5CFD6"/>
<path fill-rule="evenodd" clip-rule="evenodd" d="M235.925 230.262C233.144 230.469 230.573 231.601 227.767 231.615C225.411 231.626 223.092 231.016 220.724 231.106C217.946 231.211 216.417 232.769 213.984 233.29C212.046 233.705 210.826 232.419 209.122 231.85C206.97 231.132 205.381 231.503 203.537 232.589C202.182 233.387 199.021 235.179 199.046 236.794C199.118 241.684 205.7 234.928 207.027 234.846C208.79 234.738 210.759 236.48 212.635 236.579C215.115 236.711 216.705 235.325 218.988 234.82C221.297 234.309 223.793 234.935 226.108 235.129C228.75 235.35 231.061 234.84 233.616 234.293C236.093 233.763 238.203 233.791 240.719 234.236C242.418 234.537 246.648 236.282 247.391 234.038C248.403 230.981 237.869 230.119 235.925 230.262Z" fill="#C5CFD6"/>
<path fill-rule="evenodd" clip-rule="evenodd" d="M236.771 239.59C231.074 240.069 225.341 240.49 219.618 240.625C217.139 240.683 207.609 239.762 208.454 242.493C209.178 244.835 222.147 243.36 224.788 243.182C227.704 242.986 230.616 242.711 233.518 242.393C234.546 242.28 237.029 242.397 237.755 241.649C238.447 240.935 238.106 239.474 236.771 239.59Z" fill="#C5CFD6"/>
<path fill-rule="evenodd" clip-rule="evenodd" d="M197.465 252.028C197.336 252.075 197.336 252.075 197.465 252.028V252.028ZM198.667 252.014C200.088 251.975 199.783 251.326 201.2 251.664C201.854 251.82 201.921 251.588 202.428 252.13C203.416 253.187 202.485 255.487 201.511 256.339C197.903 259.491 193.573 252.154 198.667 252.014ZM198.667 248.921C188.79 249.209 192.923 262.438 201.519 259.737C205.07 258.622 207.302 253.598 205.213 250.774C204.197 249.401 202.902 249.156 201.2 249.061C200.805 249.039 200.308 249.537 200.061 249.514C199.475 249.46 199.53 248.893 198.667 248.921Z" fill="#C5CFD6"/>
<path fill-rule="evenodd" clip-rule="evenodd" d="M222.288 252.481C222.112 252.434 225.407 253.265 225.046 252.94C225.815 253.633 224.781 255.274 223.911 255.56C221.803 256.254 220.621 253.412 222.288 252.481ZM223.75 248.894C220.657 249.274 218.27 250.391 217.848 253.373C217.458 256.125 219.603 258.912 222.986 258.966C230.36 259.083 230.585 248.067 223.75 248.894Z" fill="#C5CFD6"/>
<path fill-rule="evenodd" clip-rule="evenodd" d="M257.415 252.602C257.847 257.489 252.002 253.016 257.415 252.602V252.602ZM254.907 247.373C254.396 248.131 254.831 248.935 255.603 249.375C248.708 250.638 250.269 259.634 257.286 258.305C260.854 257.629 261.51 254.376 260.978 251.69C260.725 250.413 257.054 244.19 254.907 247.373Z" fill="#C5CFD6"/>
</g>
<g opacity="0.5">
<path fill-rule="evenodd" clip-rule="evenodd" d="M368.303 228.867C368.301 232.244 368.104 235.69 368.822 239.025C369.039 240.035 369.21 241.969 370.439 242.493C371.674 243.02 372.87 242.428 373.177 241.332C373.535 240.055 372.75 238.145 372.67 236.805C372.561 234.975 372.554 233.142 372.553 231.31C372.552 229.986 373.055 227.857 371.253 227.176C369.913 226.67 368.303 227.611 368.303 228.867Z" fill="#C5CFD6"/>
<path fill-rule="evenodd" clip-rule="evenodd" d="M429.864 223.528C416.963 224.65 403.875 224.884 390.927 225.469C384.942 225.74 377.708 225.395 372.069 227.403C371.023 227.776 367.272 229.852 370.317 230.698C371.266 230.962 372.23 230.075 373.009 229.778C374.307 229.284 375.809 229.131 377.193 228.938C388.959 227.3 401.265 227.585 413.152 226.82C416.198 226.624 419.245 226.422 422.284 226.162C424.456 225.977 429.02 224.62 431.024 225.314C434.448 226.5 434.368 234.206 434.436 236.856C434.471 238.227 432.937 243.146 435.987 242.648C438.428 242.248 437.544 237.137 437.354 235.739C436.854 232.075 436.003 222.988 429.864 223.528Z" fill="#C5CFD6"/>
<path fill-rule="evenodd" clip-rule="evenodd" d="M434.622 242.47C423.416 243.347 411.951 242.486 400.698 242.831C394.8 243.013 388.908 243.301 383.009 243.47C380.458 243.543 377.904 243.546 375.351 243.562C374.131 243.569 368.575 244.211 372.012 246.309C373.533 247.238 378.383 246.49 380.129 246.472C382.752 246.445 385.373 246.35 387.994 246.261C394.065 246.056 400.132 245.77 406.206 245.628C412.017 245.492 417.83 245.462 423.64 245.326C426.531 245.258 429.461 245.181 432.326 244.815C432.973 244.732 435.073 244.667 435.522 244.042C435.946 243.451 435.648 242.384 434.622 242.47Z" fill="#C5CFD6"/>
<path fill-rule="evenodd" clip-rule="evenodd" d="M379.545 235.175C379.484 235.299 379.484 235.299 379.545 235.175V235.175ZM384.398 233.896C384.575 233.961 384.575 233.961 384.398 233.896V233.896ZM384.17 233.861C386.786 236.172 382.764 238.931 380.314 236.675C377.714 234.281 382.487 233.869 384.17 233.861ZM381.397 230.364C372.388 231.754 375.578 242.163 383.991 240.659C387.685 239.998 389.797 236.772 388.526 233.673C388.029 232.463 386.947 231.134 385.439 230.752C384.687 230.562 384.022 230.861 383.306 230.791C382.623 230.724 382.244 230.232 381.397 230.364Z" fill="#C5CFD6"/>
<path fill-rule="evenodd" clip-rule="evenodd" d="M415.872 233.294C410.44 233.309 405.007 233.509 399.576 233.598C397.91 233.625 393.628 232.979 393.621 235.256C393.614 237.689 398.383 236.791 399.971 236.758C405.358 236.646 410.759 236.441 416.125 235.997C417.48 235.884 422.173 236.078 422.168 234.48C422.163 232.787 416.967 233.294 415.872 233.294Z" fill="#C5CFD6"/>
<path fill-rule="evenodd" clip-rule="evenodd" d="M428.846 249.174C415.411 249.487 401.997 249.596 388.573 250.192C383.552 250.415 378.537 250.581 373.509 250.581C372.541 250.581 370.59 250.256 369.679 250.784C367.205 252.219 370.022 253.45 371.634 253.527C382.662 254.058 393.85 252.737 404.871 252.439C411.323 252.265 417.777 252.213 424.225 251.928C425.985 251.851 427.744 251.761 429.501 251.642C430.51 251.575 433.182 251.761 433.998 251.248C437.562 249.012 430.048 249.146 428.846 249.174Z" fill="#C5CFD6"/>
<path fill-rule="evenodd" clip-rule="evenodd" d="M367.205 254.87C367.079 257.89 367.066 260.857 367.521 263.86C367.701 265.042 367.783 266.383 369.381 266.683C370.832 266.956 371.568 266.004 371.868 264.949C372.602 262.373 371.956 258.665 371.948 255.989C371.944 254.666 371.942 253.185 370.056 252.886C368.618 252.657 367.26 253.559 367.205 254.87Z" fill="#C5CFD6"/>
<path fill-rule="evenodd" clip-rule="evenodd" d="M443.086 262.15C421.339 263.144 399.62 264.011 377.857 264.809C376.16 264.871 362.975 264.746 367.584 268.733C369.008 269.964 372.676 269.13 374.517 269.052C377.284 268.934 380.052 268.844 382.819 268.722C393.79 268.238 404.788 268.107 415.751 267.564C421.783 267.265 427.802 266.797 433.803 266.188C436.657 265.898 440.201 265.928 442.874 264.958C444.25 264.459 445.734 262.028 443.086 262.15Z" fill="#C5CFD6"/>
<path fill-rule="evenodd" clip-rule="evenodd" d="M430.582 246.831C428.928 248.259 429.778 251.076 429.903 252.841C430.074 255.27 430.283 257.701 430.633 260.116C430.86 261.686 430.74 264.128 431.705 265.483C432.836 267.071 435.326 266.895 436.348 265.362C437.252 264.005 436.795 261.152 436.771 259.649C436.739 257.57 436.59 255.489 436.447 253.414C436.328 251.681 436.781 248.902 435.681 247.419C434.564 245.911 432.132 245.494 430.582 246.831Z" fill="#C5CFD6"/>
<path fill-rule="evenodd" clip-rule="evenodd" d="M380.874 257.913C380.68 258.043 380.68 258.043 380.874 257.913V257.913ZM384.736 257.494C388.341 258.122 382.512 261.77 380.671 259.266C380.383 258.875 380.233 258.394 380.695 258.054C381.117 257.744 381.382 258.293 381.78 258.146C382.466 257.891 384.005 257.47 384.736 257.494ZM384.239 254.498C381.779 254.667 378.395 254.799 377.177 256.937C375.541 259.81 378.339 262.623 381.577 263.06C384.692 263.481 389.344 261.985 389.593 258.835C389.794 256.295 387.007 254.303 384.239 254.498Z" fill="#C5CFD6"/>
<path fill-rule="evenodd" clip-rule="evenodd" d="M404.783 256.017C402.236 256.053 397.229 255.4 395.009 256.476C392.813 257.542 393.793 259.438 395.796 259.892C397.12 260.192 399.284 259.708 400.663 259.659C402.477 259.595 404.292 259.582 406.106 259.56C409.158 259.524 412.209 259.554 415.261 259.554C418.379 259.554 421.549 259.628 424.661 259.43C428.598 259.178 428.492 256.622 424.642 256.302C418.1 255.76 411.346 255.928 404.783 256.017Z" fill="#C5CFD6"/>
<path fill-rule="evenodd" clip-rule="evenodd" d="M398.276 284.646C398.276 285.86 399.519 284.646 399.51 284.646C399.519 284.646 398.276 283.431 398.276 284.646Z" fill="#C5CFD6"/>
<path fill-rule="evenodd" clip-rule="evenodd" d="M370.162 274.869C370.242 278.4 370.295 281.933 370.469 285.46C370.524 286.576 370.155 288.754 371.715 289.323C373.45 289.956 373.99 288.378 374.19 287.309C374.823 283.922 374.202 280.055 374.141 276.628C374.121 275.477 374.408 273.875 372.901 273.301C371.671 272.833 370.137 273.702 370.162 274.869Z" fill="#C5CFD6"/>
<path fill-rule="evenodd" clip-rule="evenodd" d="M437.121 274.925C437.224 275.135 437.224 275.135 437.121 274.925V274.925ZM437.266 274.889C437.35 274.919 437.687 275.042 437.266 274.889V274.889ZM404.373 272.036C398.123 272.12 391.868 272.185 385.621 272.417C382.955 272.516 380.258 272.596 377.601 272.814C375.72 272.968 371.045 273.033 369.824 274.366C367.306 277.118 372.647 276.367 373.797 276.144C375.891 275.737 378.028 275.607 380.167 275.509C384.808 275.297 389.451 275.183 394.097 275.102C406.698 274.882 419.309 274.916 431.912 274.866C433.133 274.862 435.338 274.436 436.465 274.864C437.594 275.293 437.53 276.348 437.648 277.572C437.804 279.201 436.564 282.305 437.508 283.676C438.973 285.801 441.103 283.996 441.429 282.447C441.879 280.306 441.166 277.735 440.468 275.688C439.483 272.8 438.116 272.685 434.894 272.46C431.13 272.196 427.38 272.036 423.604 272.006C417.195 271.955 410.782 271.949 404.373 272.036Z" fill="#C5CFD6"/>
<path fill-rule="evenodd" clip-rule="evenodd" d="M429.096 286.628C415.539 287.993 401.595 287.189 387.965 287.237C384.651 287.249 381.333 287.272 378.022 287.411C376.273 287.485 372.127 287.067 370.929 288.236C368.403 290.702 372.953 291.061 374.614 290.959C377.972 290.752 381.338 290.658 384.705 290.635C396.564 290.556 408.49 291.035 420.34 290.528C425.304 290.316 430.158 289.579 435.03 288.757C436.11 288.574 443.499 287.356 439.285 285.897C436.795 285.034 431.712 286.364 429.096 286.628Z" fill="#C5CFD6"/>
<path fill-rule="evenodd" clip-rule="evenodd" d="M389.511 282.114C389.417 282.22 389.417 282.22 389.511 282.114V282.114ZM389.421 282.096C389.388 282.172 389.289 282.358 389.421 282.096V282.096ZM388.565 281.14C388.585 281.162 388.666 281.251 388.565 281.14V281.14ZM388.532 281.133C388.859 281.47 389.079 281.847 389.192 282.263C386.383 282.923 385.3 280.953 388.532 281.133ZM388.355 281.04C388.356 281.041 388.751 281.185 388.355 281.04V281.04ZM383.74 278.105C381.922 280.068 380.422 282.356 382.688 284.598C384.715 286.602 388.792 286.861 391.364 285.523C394.014 284.143 393.785 281.24 391.937 279.346C390.747 278.125 389.782 278.159 388.055 277.96C386.88 277.825 384.738 277.032 383.74 278.105Z" fill="#C5CFD6"/>
<path fill-rule="evenodd" clip-rule="evenodd" d="M402.533 281.738C402.533 284.352 415.55 283.227 417.866 283.224C419.806 283.221 431.536 284.149 430.694 281.459C430.002 279.249 418.448 280.348 415.988 280.345C413.861 280.342 402.533 279.076 402.533 281.738Z" fill="#C5CFD6"/>
</g>
<g opacity="0.5">
<path fill-rule="evenodd" clip-rule="evenodd" d="M232.594 306.227C239.114 307.047 245.895 309.706 245.838 316.285C245.79 321.816 240.439 327.703 233.568 327.373C227.384 327.076 221.562 321.213 220.788 316.189C220.386 313.586 221.137 310.783 222.903 308.642C225.217 305.836 228.889 305.841 232.594 306.227ZM229.515 302.651C224.8 302.673 221.35 304.152 218.432 307.273C217.386 308.393 216.169 309.597 215.372 310.865C214.628 312.05 214.758 315.061 217.312 313.649C216.683 319.48 220.613 325.138 226.263 328.126C232.404 331.373 239.346 330.74 244.457 326.188C249.135 322.021 250.782 314.984 247.359 309.83C243.938 304.68 236.012 302.596 229.515 302.651Z" fill="#C5CFD6"/>
<path fill-rule="evenodd" clip-rule="evenodd" d="M243.654 301.088C240.635 303.007 237.879 305.532 235.589 308.094C233.352 310.599 231.872 313.725 229.184 315.909C227.827 314.627 226.236 311.165 223.529 312.539C221.281 313.678 222.728 315.638 223.823 316.925C226.649 320.249 229.787 321.586 233.412 318.303C236.703 315.321 238.573 311.343 241.65 308.189C243 306.806 245.086 305.432 246.161 303.905C247.136 302.52 245.93 299.638 243.654 301.088Z" fill="#C5CFD6"/>
</g>
<g opacity="0.5">
<path fill-rule="evenodd" clip-rule="evenodd" d="M357.734 93.0711C357.739 93.3326 357.743 93.5786 357.75 93.8048C357.89 98.7424 357.809 103.933 357.346 108.859C357.186 110.56 355.759 112.716 354.131 110.371C353.415 109.34 353.516 107.223 353.589 105.666C353.609 105.249 353.627 104.871 353.627 104.566C353.625 102.828 353.731 101.073 353.836 99.3128C354.043 95.8717 354.25 92.4127 353.663 89.0331C353.651 88.9647 353.639 88.8989 353.629 88.8356C353.373 87.3494 353.356 87.2467 351.471 87.2805C350.685 87.2947 349.899 87.3131 349.113 87.3315C348.341 87.3496 347.568 87.3678 346.795 87.3818C346.027 87.3958 345.26 87.4086 344.492 87.4214C342.085 87.4615 339.678 87.5017 337.272 87.578C336.87 87.5909 336.121 87.6724 335.175 87.7752C333.285 87.9807 330.611 88.2716 328.36 88.2699C328.36 88.2783 328.361 88.2867 328.362 88.2951C328.363 88.3102 328.364 88.3253 328.365 88.3407C328.39 89.418 328.07 90.6207 327.748 91.8289C327.479 92.8407 327.209 93.8564 327.139 94.8057C326.974 97.0646 326.972 99.3473 326.971 101.63C326.968 104.41 326.966 107.189 326.669 109.926C326.655 110.059 326.646 110.2 326.637 110.343C326.636 110.362 326.635 110.381 326.634 110.4C326.735 110.387 326.835 110.377 326.93 110.372C328.552 110.283 330.188 110.275 331.821 110.267C332.722 110.262 333.622 110.258 334.519 110.24C336.129 110.208 337.759 110.209 339.395 110.211C343.007 110.214 346.651 110.217 350.185 109.857C351.228 109.739 351.593 110.9 351.125 111.502C350.706 112.04 349.552 112.127 348.707 112.191C348.492 112.207 348.298 112.222 348.14 112.242C345.861 112.535 343.552 112.637 341.253 112.725C338.838 112.818 336.421 112.888 334.004 112.946C333.429 112.96 332.662 113.027 331.81 113.102C329.564 113.298 326.735 113.546 325.33 112.995C323.821 112.404 323.857 111.746 324.472 111.237C324.202 110.722 324.16 109.97 324.127 109.381C324.114 109.156 324.103 108.956 324.08 108.801C323.745 106.458 323.544 104.144 323.539 101.781C323.529 97.1511 323.54 92.3428 325.017 87.8615C324.426 87.6369 324.069 87.3059 324.07 86.8286C324.077 84.4244 332.708 84.5467 336.811 84.6049C337.544 84.6153 338.133 84.6236 338.502 84.6151C341.491 84.5474 344.48 84.5386 347.469 84.5526C348.101 84.5555 348.804 84.5197 349.532 84.4826C351.081 84.4036 352.745 84.3188 354.084 84.5884C357.599 85.2959 357.683 90.1499 357.734 93.0711Z" fill="#C5CFD6"/>
<path fill-rule="evenodd" clip-rule="evenodd" d="M379.72 85.1153C382.984 84.9656 386.25 84.9312 389.518 84.9207C392.978 84.9056 396.442 84.9595 399.901 85.0517L399.981 85.0538C401.513 85.0937 410.031 85.3156 406.118 87.1558C405.889 87.2631 405.632 87.3528 405.352 87.4273C405.518 88.2794 405.538 89.1592 405.511 89.583C405.41 91.1902 405.343 92.7991 405.277 94.408L405.277 94.4083L405.277 94.4092C405.232 95.4993 405.186 96.5895 405.131 97.679C404.977 100.69 404.83 103.702 404.71 106.714C404.696 107.084 404.718 107.568 404.743 108.107C404.827 109.889 404.938 112.277 403.822 113.16C402.842 113.935 402.173 113.78 401.721 113.253C398.918 113.959 393.16 113.73 390.265 113.614C389.567 113.587 389.036 113.565 388.752 113.565C388.245 113.566 387.302 113.621 386.111 113.69C381.153 113.979 371.899 114.518 371.88 112.399C371.878 112.195 371.954 112.012 372.098 111.848C371.705 111.501 371.352 110.991 371.125 110.354C370.31 108.069 370.233 105.602 370.173 103.233C370.088 99.8861 370.087 96.5359 370.086 93.1863C370.085 91.4661 370.085 89.7461 370.073 88.0269C369.543 87.4098 369.857 86.7039 370.519 86.2115C371.927 85.1639 375.421 85.1512 377.949 85.1421C378.629 85.1396 379.24 85.1374 379.72 85.1153ZM374.41 110.919C377.556 110.336 382.856 110.524 385.696 110.624C386.439 110.651 387.014 110.671 387.337 110.67C390.238 110.66 393.139 110.695 396.037 110.795C396.337 110.806 396.782 110.796 397.306 110.785C398.358 110.762 399.73 110.732 400.895 110.844C400.879 110.707 400.869 110.582 400.862 110.473C400.732 108.237 400.826 105.981 400.92 103.738V103.738L400.92 103.737C400.94 103.261 400.96 102.784 400.977 102.309C401.04 100.632 401.122 98.956 401.205 97.2797L401.205 97.279L401.205 97.2785C401.257 96.223 401.309 95.1675 401.356 94.1117C401.376 93.6484 401.346 93.0192 401.311 92.3113C401.241 90.871 401.155 89.1051 401.452 87.7488C400.379 87.7311 399.28 87.6652 398.271 87.6047L398.271 87.6047C397.3 87.5464 396.412 87.4932 395.715 87.4932C394.831 87.4931 393.946 87.4907 393.062 87.4884H393.062C390.611 87.4819 388.161 87.4753 385.71 87.5174L385.013 87.5292H385.013C381.638 87.5856 378.236 87.6425 374.89 88.0279C374.694 88.0505 374.458 88.0941 374.198 88.147C374.564 89.4762 374.385 91.3497 374.227 92.9904C374.151 93.7873 374.08 94.5294 374.079 95.1275C374.074 98.8471 374.187 102.552 374.301 106.253C374.343 107.654 374.386 109.053 374.422 110.453C374.427 110.62 374.422 110.775 374.41 110.919Z" fill="#C5CFD6"/>
<path fill-rule="evenodd" clip-rule="evenodd" d="M338.607 112.838C336.462 113.925 337.619 118.27 338.362 119.773C339.583 122.244 342.062 124.178 344.736 125.461C350.142 128.053 357.934 127.364 362.022 131.859C362.064 131.906 363.477 133.119 363.799 131.548C364.063 130.259 361.425 128.29 360.403 127.644C357.496 125.807 353.767 125.214 350.405 124.296C346.819 123.317 342.884 121.513 341.38 118.308C340.848 117.172 341.863 111.181 338.607 112.838Z" fill="#C5CFD6"/>
<path fill-rule="evenodd" clip-rule="evenodd" d="M387.638 114.927C385.672 115.397 386.972 117.742 386.969 118.916C386.965 120.381 386.425 121.914 385.384 123.083C382.743 126.047 377.573 126.491 373.697 127.341C370.883 127.959 364.149 129.283 363.885 132.583C363.591 136.268 369.536 131.783 370.038 131.599C375.595 129.832 382.783 129.491 387.072 125.601C388.842 123.995 389.889 121.852 390.055 119.64C390.149 118.395 390.165 114.329 387.638 114.927Z" fill="#C5CFD6"/>
<path fill-rule="evenodd" clip-rule="evenodd" d="M347.026 147.617C346.98 140.798 354.507 136.673 361.313 135.122C369.494 133.253 377.114 138.223 378.078 145.372C379.096 152.916 372.537 158.99 363.888 159.323C356.28 159.616 347.075 154.893 347.026 147.617ZM365.3 138.4C365.742 138.922 366.142 139.754 365.25 140.207C364.393 140.64 363.964 140.12 363.533 139.595C363.261 139.264 362.988 138.932 362.604 138.838C361.609 138.595 360.011 139.502 359.183 140.031C358.847 140.245 358.368 140.707 357.809 141.247C356.029 142.967 353.429 145.477 351.992 143.317C346.262 151.896 360.548 158.317 368.672 155.07C377.594 151.504 375.857 138.468 365.3 138.4Z" fill="#C5CFD6"/>
<path fill-rule="evenodd" clip-rule="evenodd" d="M357.812 145.334C357.812 146.899 360.663 146.899 360.663 145.334C360.663 143.787 357.812 143.72 357.812 145.334Z" fill="#C5CFD6"/>
<path fill-rule="evenodd" clip-rule="evenodd" d="M362.828 145.04C362.828 146.957 366.322 146.957 366.322 145.04C366.322 143.145 362.828 143.064 362.828 145.04Z" fill="#C5CFD6"/>
<path fill-rule="evenodd" clip-rule="evenodd" d="M359.239 149.508C356.382 150.965 364.552 153.86 364.875 150.901C365.014 149.625 363.588 149.969 362.638 149.875C361.728 149.785 360.101 149.072 359.239 149.508Z" fill="#C5CFD6"/>
<path fill-rule="evenodd" clip-rule="evenodd" d="M357.999 159.845C358.124 163.566 358.064 167.285 358.878 170.955C359.033 171.652 359.14 174.18 359.776 174.698C361.338 175.971 361.364 173.53 361.425 172.595C361.642 169.244 361.236 165.789 361.146 162.431C361.127 161.709 361.348 160.212 360.954 159.512C360.33 158.402 357.939 158.072 357.999 159.845Z" fill="#C5CFD6"/>
<path fill-rule="evenodd" clip-rule="evenodd" d="M354.944 156.827C348.68 162.922 340.055 162.473 331.366 163.007C326.775 163.289 322.133 163.868 318.439 166.443C316.721 167.64 315.239 169.141 314.244 170.85C313.809 171.598 311.744 175.91 314.844 174.887C315.944 174.524 317.026 171.672 317.737 170.829C319.091 169.222 320.824 167.896 322.903 167.034C326.913 165.37 331.701 165.399 336.049 165.188C340.593 164.967 345.472 164.761 349.649 163.048C351.615 162.241 353.458 161.236 355.04 159.941C355.605 159.477 356.817 158.691 356.907 157.983C357.011 157.173 356.113 155.692 354.944 156.827Z" fill="#C5CFD6"/>
<path fill-rule="evenodd" clip-rule="evenodd" d="M323.324 175.535C317.441 175.705 311.565 175.911 305.69 176.234C304.486 176.3 300.471 176.089 301.494 178.228C302.313 179.943 307.209 178.808 308.828 178.725C314.951 178.41 321.098 178.301 327.207 177.823C328.58 177.716 334.783 177.759 332.222 175.65C331.003 174.646 325.008 175.485 323.324 175.535Z" fill="#C5CFD6"/>
<path fill-rule="evenodd" clip-rule="evenodd" d="M297.758 177.995C295.903 180.106 296.756 185.239 296.896 187.777C297.031 190.238 296.48 194.736 300.184 195.117C299.008 194.983 301.077 195.179 301.414 195.195C302.166 195.23 302.921 195.241 303.674 195.248C305.414 195.265 307.154 195.245 308.893 195.214C312.833 195.146 316.783 195.047 320.718 194.858C322.372 194.778 331.345 194.845 331.701 193.355C332.155 191.451 323.551 192.528 322.011 192.589C318.26 192.738 314.504 192.77 310.75 192.812C308.889 192.833 307.027 192.849 305.166 192.818C304.398 192.805 301.355 193.078 300.888 192.634C300.49 192.255 300.801 188.777 300.792 188.245C300.765 186.511 300.767 184.772 300.838 183.039C300.886 181.872 301.614 179.651 301.021 178.554C300.444 177.489 298.763 177.125 297.758 177.995Z" fill="#C5CFD6"/>
<path fill-rule="evenodd" clip-rule="evenodd" d="M328.053 178.093C328.161 181.956 328.194 185.898 329.246 189.676C329.597 190.933 330.087 193.526 331.544 194.177C333.073 194.86 334.394 193.885 334.494 192.572C334.619 190.92 333.599 188.752 333.39 187.057C333.146 185.08 333.004 183.101 332.92 181.114C332.857 179.62 333.381 177.38 331.738 176.416C330.262 175.551 328.005 176.422 328.053 178.093Z" fill="#C5CFD6"/>
<path fill-rule="evenodd" clip-rule="evenodd" d="M339.762 177.15C337.932 178.73 338.75 183.734 338.978 185.764C339.146 187.252 341.024 194.568 343.837 190.753C345.081 189.065 343.5 184.603 343.511 182.635C343.519 181.381 344.03 179.797 343.783 178.593C343.457 177.001 341.421 175.713 339.762 177.15Z" fill="#C5CFD6"/>
<path fill-rule="evenodd" clip-rule="evenodd" d="M352.431 175.846C357.928 175.354 363.43 174.985 368.957 174.94C369.222 174.938 369.501 174.935 369.791 174.932C373.579 174.89 379.271 174.827 381.82 177.293C383.209 178.637 383.838 180.713 384.386 182.524C384.488 182.861 384.588 183.19 384.689 183.502C384.775 183.77 384.887 184.074 385.009 184.404C385.581 185.957 386.356 188.061 385.57 189.362C385.14 190.076 384.446 190.685 383.394 190.432C383.148 190.373 382.955 190.298 382.804 190.208C383.207 190.587 383.386 191.125 383.124 191.653C382.618 192.672 381.019 192.694 379.759 192.711C379.454 192.715 379.168 192.719 378.923 192.736C374.727 193.04 370.511 193.242 366.3 193.274C364.295 193.289 362.29 193.275 360.285 193.261C358.221 193.246 356.157 193.231 354.093 193.249C352.595 193.262 351.069 193.385 349.543 193.509C347.616 193.665 345.689 193.821 343.815 193.754C342.413 193.704 340.916 193.306 341.271 191.735C341.561 190.453 342.953 190.341 344.201 190.241C344.309 190.232 344.417 190.223 344.522 190.214C348.495 189.863 352.469 189.739 356.462 189.752C364.85 189.777 373.231 189.739 381.619 189.701C381.964 189.726 382.289 189.84 382.556 190.014C382.254 189.697 382.26 189.273 382.266 188.823C382.269 188.619 382.272 188.409 382.246 188.201C382.195 187.783 382.148 187.367 382.101 186.952C381.946 185.579 381.792 184.216 381.49 182.835C381.444 182.627 381.4 182.397 381.354 182.155C381.079 180.721 380.716 178.821 379.401 178.047C378.079 177.269 375.486 177.306 373.466 177.336C372.921 177.343 372.417 177.351 371.991 177.341C366.6 177.221 361.178 177.552 355.811 177.975C355.399 178.008 354.986 178.039 354.573 178.07C352.531 178.225 350.479 178.38 348.466 178.696C348.098 178.754 347.536 178.925 346.89 179.12C345.174 179.639 342.872 180.335 342.09 179.568C339.498 177.027 350.885 175.984 352.431 175.846Z" fill="#C5CFD6"/>
<path fill-rule="evenodd" clip-rule="evenodd" d="M410.905 170.061C411.144 170.327 411.144 170.327 410.905 170.061V170.061ZM373.711 154.318C370.373 156.019 376.552 161.011 378.125 161.783C381.667 163.52 386.534 163.782 390.488 164.271C395.493 164.889 400.94 165.117 405.749 166.539C407.799 167.145 409.101 168.09 410.443 169.543C411.123 170.28 412.76 173.453 414.251 172.702C417.253 171.189 409.164 164.84 407.382 164.157C403.33 162.606 398.54 162.171 394.208 161.569C390.18 161.008 386.065 160.591 382.136 159.603C379.975 159.06 378.44 158.184 377.195 156.507C376.418 155.461 375.782 153.268 373.711 154.318Z" fill="#C5CFD6"/>
<path fill-rule="evenodd" clip-rule="evenodd" d="M424.884 173.817C421.035 173.891 417.194 174.148 413.354 174.405C411.199 174.549 409.045 174.692 406.89 174.804C406.216 174.839 405.541 174.871 404.866 174.902L404.866 174.902C402.967 174.991 401.066 175.08 399.177 175.245C398.89 175.27 398.557 175.294 398.195 175.32L398.195 175.32C396.59 175.434 394.403 175.59 393.004 176.097C391.722 175.257 389.744 175.971 389.713 177.469C389.66 180.199 389.689 182.879 390.073 185.592C390.162 186.221 390.621 189.409 391.62 191.069C391.264 192.636 392.805 193.075 394.239 193.195C399.794 193.66 405.619 193.299 411.364 192.943C414.287 192.762 417.189 192.582 420.025 192.513C420.968 192.49 421.923 192.481 422.884 192.471C426.019 192.441 429.215 192.41 432.25 191.896C432.373 191.875 432.504 191.855 432.64 191.834C433.84 191.647 435.496 191.39 435.622 190.245C435.697 189.557 435.25 188.928 434.502 188.84C434.553 188.267 434.47 187.642 434.409 187.183C434.395 187.076 434.382 186.978 434.372 186.892C434.19 185.299 433.733 183.717 433.281 182.155C433.179 181.804 433.078 181.454 432.98 181.105C432.872 180.719 432.772 180.259 432.664 179.763L432.664 179.763C432.282 178.014 431.802 175.815 430.527 174.794C429.189 173.724 427.012 173.771 425.267 173.809L425.267 173.809C425.137 173.812 425.009 173.815 424.884 173.817ZM431.656 189.011C431.2 187.975 431.066 186.575 430.939 185.244C430.86 184.408 430.782 183.6 430.63 182.926C430.515 182.421 430.421 181.888 430.326 181.346C430.094 180.03 429.853 178.663 429.283 177.51C428.521 175.966 427.842 176.025 426.236 176.165C425.937 176.191 425.606 176.22 425.237 176.242C423.6 176.338 421.964 176.461 420.329 176.583C419.545 176.642 418.76 176.701 417.976 176.757C414.618 176.996 411.259 177.18 407.899 177.364C405.936 177.472 403.973 177.579 402.01 177.698C400.469 177.791 398.966 178.045 397.469 178.297L397.469 178.297C396.283 178.498 395.101 178.697 393.907 178.816C393.89 179.169 393.856 179.525 393.823 179.863C393.779 180.323 393.737 180.753 393.746 181.104C393.785 182.663 393.944 184.212 394.103 185.764L394.103 185.764C394.127 186.002 394.152 186.241 394.176 186.48C394.204 186.766 394.275 187.133 394.354 187.541C394.476 188.172 394.616 188.898 394.648 189.568C394.793 189.567 394.937 189.567 395.079 189.568C395.263 189.568 395.443 189.569 395.617 189.566C399.847 189.502 404.074 189.391 408.302 189.25C408.842 189.232 409.381 189.214 409.921 189.196C413.693 189.068 417.465 188.941 421.24 188.903C422.74 188.889 424.259 188.929 425.783 188.97C427.744 189.023 429.712 189.076 431.656 189.011Z" fill="#C5CFD6"/>
</g>
<path fill-rule="evenodd" clip-rule="evenodd" d="M196.008 88.074C203.238 90.286 209.868 90.5687 212.578 89.0959C219.374 85.4029 213.382 58.6593 205.135 49.5907C196.889 40.5222 166.848 43.1969 170.593 64.3205C171.893 71.6518 176.53 77.3234 182.314 81.4498L183.66 120.813L206.941 114.979L196.008 88.074Z" fill="#D4A181"/>
<path fill-rule="evenodd" clip-rule="evenodd" d="M181.696 86.571C175.517 74.3041 164.972 67.529 164.788 61.4003C164.603 55.2717 169.753 52.476 169.753 52.476C169.753 52.476 169.714 40.2437 185.664 38.0747C201.614 35.9058 212.702 39.977 212.165 55.1837C208.405 56.126 203.525 55.9036 197.832 59.8064C195.122 61.6639 195.282 67.7548 195.282 67.7548L192.445 68.4656C192.445 68.4656 186.6 62.6547 183.041 65.475C179.482 68.2953 183.425 74.7471 183.425 74.7471L184.714 85.8148L181.696 86.571Z" fill="#191847"/>
<path fill-rule="evenodd" clip-rule="evenodd" d="M189 200L263.306 324.227L319.015 429.25H331.014L237.674 200L189 200Z" fill="#D4A181"/>
<path fill-rule="evenodd" clip-rule="evenodd" d="M314.45 423.284C313.378 422.813 312.104 423.29 311.705 424.391C310.977 426.398 310 429.409 310 431.106C310 433.811 310.901 439 310.901 439C314.039 439 367.303 439 367.303 439C367.303 439 369.502 431.732 364.765 431.152C360.028 430.573 356.895 430.106 356.895 430.106L330.68 418.419C330.165 418.189 329.563 418.43 329.348 418.951L327.663 423.039C327.663 423.039 323.278 425.085 320.537 425.085C318.868 425.085 316.246 424.074 314.45 423.284Z" fill="#E4E4E4"/>
<path fill-rule="evenodd" clip-rule="evenodd" d="M303.543 412.433L326.683 405.433C326.683 405.433 311.476 359.971 289.405 305.374C267.335 250.778 242 200 242 200H176.644C176.644 200 204.811 264.232 236.366 316.725C267.921 369.219 303.543 412.433 303.543 412.433Z" fill="#1F28CF"/>
<path fill-rule="evenodd" clip-rule="evenodd" d="M184.117 200C177.104 243.654 163.577 299.427 162.301 301.149C161.45 302.296 130.813 312.562 70.3899 331.947L72.9818 342.528C145.036 332.132 183.002 324.066 186.881 318.331C192.699 309.728 221.749 241.763 233 200H184.117Z" fill="#D4A181"/>
<path fill-rule="evenodd" clip-rule="evenodd" d="M91.6295 322.8L96.195 339.842C150.087 344.569 183.108 341.153 195.258 329.596C207.407 318.039 221.255 274.84 236.799 200H174.478C164.63 261.284 159.124 293.212 157.96 295.785C156.797 298.357 134.687 307.363 91.6295 322.8Z" fill="#2B44FF"/>
<path fill-rule="evenodd" clip-rule="evenodd" d="M74.931 330.074C75.2093 328.937 74.5181 327.765 73.3647 327.563C71.261 327.195 68.1268 326.756 66.4556 327.05C63.7918 327.52 58.8377 329.309 58.8377 329.309C59.3826 332.399 68.6318 384.854 68.6318 384.854C68.6318 384.854 76.1714 385.757 75.9196 380.991C75.6678 376.226 75.5837 373.059 75.5837 373.059L82.5407 345.213C82.6773 344.667 82.3356 344.115 81.7853 343.994L77.4672 343.044C77.4672 343.044 74.6909 339.081 74.2149 336.381C73.925 334.738 74.4645 331.98 74.931 330.074Z" fill="#E4E4E4"/>
<path fill-rule="evenodd" clip-rule="evenodd" d="M303.564 147.75L265.212 158.57L274.685 175.103L304.647 158.074C318.511 157.504 325.078 156.252 324.348 154.316C323.732 152.684 322.207 152.379 320.802 152.098C319.708 151.88 318.687 151.675 318.225 150.87C317.171 149.03 321.05 144.366 324.918 140.099C328.787 135.832 325.752 135.573 323.911 135.886C317.557 138.348 310.775 142.303 303.564 147.75ZM126.818 270.483C128.894 264.188 143.655 184.854 143.655 184.854L165.352 181.893C165.352 181.893 140.946 267.162 139.95 271.162C138.656 276.359 143.029 283.031 145.995 287.556C146.453 288.256 146.879 288.904 147.244 289.488C144.271 291.352 142.507 289.851 140.647 288.268C138.546 286.479 136.323 284.587 132.099 287.324C130.468 288.381 128.95 289.573 127.468 290.738C122.347 294.761 117.643 298.457 110.072 295.135C108.872 294.609 107.301 292.212 109.945 289.796C116.53 283.778 125.803 273.56 126.818 270.483Z" fill="#D4A181"/>
<path fill-rule="evenodd" clip-rule="evenodd" d="M193.403 107.744L210.54 106.493C220.03 143.737 246.159 164.436 296.019 149.192L309.63 196.958C262.831 209.806 218.354 196.589 202.538 146.126C198.443 133.062 194.739 119.389 193.403 107.744Z" fill="#191847"/>
<path fill-rule="evenodd" clip-rule="evenodd" d="M128.416 260.254C131.404 195.878 149.476 143.862 182.633 104.206L184.263 103.978L184.318 103.97L184.334 103.984L210.885 106.266C215.221 137.167 225.336 159.292 235.06 180.563C239.259 189.748 243.386 198.775 246.942 208.28L177.467 218.028C178.065 229.406 179.085 241.044 180.437 252.954L128.416 260.254Z" fill="#2F3676"/>
<path fill-rule="evenodd" clip-rule="evenodd" d="M177.467 218.028C176.248 194.864 176.777 172.775 179.811 151.657C181.567 173.539 184.987 200.511 191.587 216.047L177.467 218.028Z" fill="black" fill-opacity="0.1"/>
</svg>
