<svg width="551" height="446" viewBox="0 0 551 446" fill="none" xmlns="http://www.w3.org/2000/svg">
<g opacity="0.504511">
<path opacity="0.504511" fill-rule="evenodd" clip-rule="evenodd" d="M472.862 330.082C479.406 379.059 320.692 411.005 184.083 388.71C47.4734 366.416 -15.1964 279.355 49.9912 232.965C115.179 186.575 466.317 281.105 472.862 330.082Z" fill="#F2F2F2"/>
</g>
<path fill-rule="evenodd" clip-rule="evenodd" d="M276.524 125.994C278.994 124.105 282.825 125.309 285.311 126.423C286.269 126.853 288.717 128.228 290.532 129.776C290.292 128.703 290.078 127.621 289.892 126.53C289.123 122.045 288.594 117.475 288.34 112.931C288.274 111.746 288.36 110.421 288.447 109.08C288.477 108.625 288.507 108.169 288.531 107.715C288.431 107.608 288.364 107.46 288.336 107.259C288.326 107.343 288.32 107.409 288.315 107.46C288.308 107.543 288.304 107.584 288.291 107.588C288.278 107.591 288.255 107.556 288.209 107.486C288.191 107.458 288.17 107.426 288.144 107.388C286.307 104.638 284.764 101.539 284.552 98.1328C284.373 95.2438 286.744 89.7775 290.106 93.5616C291.61 95.2515 291.22 107.12 288.961 107.848C289.564 111.78 290.323 115.707 291.273 119.583C291.416 119.558 291.561 119.556 291.705 119.575C291.691 118.612 291.69 117.56 291.729 117.198C292.068 114.083 294.667 107.759 298.806 108.987C301.986 109.931 300.037 113.815 298.955 115.515C297.212 118.252 295.242 119.438 292.746 120.861C292.696 121.449 292.317 121.791 291.869 121.903C293.541 128.163 295.736 134.268 298.61 140.035L298.686 139.669C299.051 137.918 299.476 135.877 299.746 135.449C301.154 133.205 304.271 130.465 307.146 131.792C313.184 134.584 306.63 142.608 301.49 143.481C301.276 143.777 301.05 144.015 300.81 144.151C301.808 145.892 302.876 147.596 304.018 149.257C305.731 151.755 307.572 154.245 309.502 156.72C309.561 154.784 310.325 150.469 310.542 150.005C311.86 147.189 315.659 144.292 318.741 146.292C322.207 148.547 319.064 152.809 317.087 154.738C316.277 155.529 312.269 158.427 310.855 158.44C315.518 164.277 320.664 170.015 325.897 175.545C325.464 173.069 324.897 166.251 324.961 165.495C325.285 161.589 327.85 155.342 332.901 156.864C337.802 158.339 335.634 164.828 333.956 167.922C332.94 169.794 331.535 171.697 329.841 173.002C329.535 173.238 329.136 173.43 328.738 173.621V173.622C328.258 173.853 327.779 174.084 327.466 174.389C327.187 174.661 327.101 174.974 327.016 175.284C326.926 175.611 326.838 175.935 326.522 176.206C329.35 179.182 332.198 182.095 335.005 184.928C336.33 186.265 337.678 187.576 339.04 188.871C339.785 188.561 340.847 188.968 340.792 190.025C340.784 190.178 340.748 190.31 340.701 190.432C341.733 191.393 342.771 192.347 343.818 193.291C343.794 193.016 343.801 192.629 343.849 192.093C343.095 193.166 343.127 191.603 343.151 190.411C343.159 189.99 343.167 189.615 343.139 189.42C343.028 188.654 342.885 187.896 342.742 187.139C342.436 185.521 342.131 183.909 342.147 182.24C342.18 178.697 344.421 172.758 349.137 174.868C353.473 176.804 351.896 182.055 350.26 185.347C349.224 187.431 347.807 189.291 346.326 191.072C346.062 191.389 345.769 191.82 345.478 192.246C345.048 192.879 344.623 193.502 344.309 193.734C348.336 197.348 352.457 200.855 356.578 204.363L356.579 204.364C358.425 205.935 360.271 207.506 362.108 209.087C362.188 208.74 362.254 208.396 362.311 208.074C362.196 208.204 362.04 208.265 361.839 208.253C361.786 207.987 361.709 207.633 361.616 207.209C360.481 202.027 357.024 186.245 366.384 189.304C373.241 191.551 368.401 205.294 363.286 210.101C366.39 212.785 369.464 215.503 372.467 218.303C374.639 220.328 376.748 222.423 378.776 224.588C377.726 221.785 376.737 218.156 377.386 215.268C378.331 211.065 382.759 207.097 387.082 209.489C392.471 212.483 388.325 216.572 384.437 220.407C382.452 222.365 380.534 224.256 379.987 225.902C386.434 233.003 391.939 240.893 395.616 249.879C399.616 259.652 403.329 272.784 401.276 283.718C401.655 278.911 400.033 272.874 398.895 268.634C398.74 268.057 398.593 267.513 398.462 267.01C396.751 260.435 394.32 254.037 391.117 248.049C385.985 238.459 379.207 230.318 371.382 222.926C369.6 223.548 367.664 224.7 366.062 225.653C365.078 226.238 364.22 226.749 363.6 227.017C360.605 228.311 354.857 230.165 352.949 226.09C351.073 222.082 355.861 219.841 358.828 218.943C361.695 218.076 364.28 218.181 366.954 218.891C362.812 215.213 358.569 211.651 354.326 208.089L354.321 208.085C353.543 207.431 352.764 206.778 351.986 206.124C350.908 207.009 349.717 208.29 348.452 209.649C344.439 213.963 339.684 219.074 335.437 214.899C329.028 208.597 341.285 202.192 346.507 202.692C347.149 202.753 347.769 202.888 348.373 203.072C343.048 198.544 337.805 193.922 332.847 188.976C331.957 189.138 330.54 190.45 328.838 192.025C325.014 195.566 319.749 200.441 315.783 196.603C312.921 193.832 313.901 189.517 316.668 187.049C319.446 184.571 323.474 184.575 326.897 185.41C328.377 185.769 329.742 186.454 331.015 187.289L331.095 187.294L331.173 187.298C326.293 182.379 321.384 177.349 316.656 172.148C316.574 172.175 316.489 172.202 316.404 172.23C316.118 172.581 315.64 172.709 315.201 172.632C314.96 172.715 314.713 172.8 314.461 172.887C310.716 174.182 305.902 175.846 302.169 175.128C299.422 174.6 296.929 172.363 299.254 169.608C301.145 167.368 306.275 167.69 308.776 168.22C309.997 168.48 311.326 169.231 312.659 169.985C313.22 170.301 313.781 170.618 314.335 170.899C314.479 170.609 314.73 170.422 315.016 170.332C310.347 165.106 305.891 159.698 301.85 154.056C300.627 154.246 299.271 154.784 297.872 155.339C294.505 156.675 290.892 158.108 288.299 155.021C284.471 150.462 291.67 147.801 295.093 148.234C296.249 148.38 297.388 148.708 298.488 149.142C295.548 144.496 293.302 139.531 291.725 134.316C291.709 134.324 291.695 134.332 291.681 134.34C291.659 134.352 291.636 134.365 291.609 134.377C291.633 134.364 291.654 134.35 291.675 134.337C291.69 134.327 291.705 134.317 291.722 134.307C291.564 133.786 291.413 133.262 291.27 132.736C291.002 132.587 290.752 132.477 290.633 132.432C292.188 133.506 285.627 134.031 284.399 134.13C281.683 134.347 278.044 134.428 276.051 132.199C274.378 130.327 274.476 127.56 276.524 125.994ZM401.567 283.734C401.452 285.318 401.166 286.769 400.633 287.966C401.033 286.603 401.34 285.188 401.567 283.734Z" fill="#F2F2F2"/>
<path opacity="0.2" fill-rule="evenodd" clip-rule="evenodd" d="M153.201 24.8031C151.399 23.4383 148.601 24.3101 146.786 25.1171C146.086 25.4284 144.298 26.4235 142.972 27.5432C143.148 26.7675 143.304 25.985 143.441 25.1961C144.004 21.9525 144.392 18.6475 144.579 15.3617C144.628 14.5047 144.565 13.5473 144.502 12.5773C144.481 12.2486 144.459 11.9185 144.442 11.5904C144.514 11.5129 144.563 11.4058 144.584 11.2608C144.592 11.321 144.596 11.3692 144.599 11.4061C144.605 11.4658 144.607 11.4957 144.617 11.4981C144.627 11.5006 144.643 11.4752 144.677 11.4244C144.69 11.4046 144.705 11.3811 144.724 11.3538C146.067 9.36456 147.194 7.12333 147.35 4.66007C147.482 2.57097 145.753 -1.38077 143.297 1.3567C142.198 2.57927 142.479 11.1613 144.128 11.6865C143.686 14.5305 143.13 17.3698 142.435 20.1731C142.331 20.155 142.225 20.1534 142.12 20.1676C142.13 19.4708 142.132 18.7104 142.103 18.4489C141.857 16.1966 139.961 11.6245 136.939 12.5139C134.617 13.1974 136.038 16.0055 136.828 17.2345C138.099 19.2132 139.538 20.0695 141.359 21.0979C141.395 21.5232 141.672 21.7704 141.999 21.8506C140.776 26.3779 139.171 30.7936 137.071 34.9649L137.015 34.6999V34.6998C136.749 33.4342 136.44 31.9585 136.243 31.6486C135.216 30.0269 132.94 28.0465 130.841 29.0075C126.431 31.0285 131.214 36.8283 134.967 37.4576C135.122 37.6713 135.287 37.8431 135.463 37.9416C134.733 39.2008 133.953 40.4338 133.118 41.6351C131.867 43.442 130.522 45.2431 129.112 47.0338C129.069 45.6337 128.513 42.5134 128.355 42.1782C127.394 40.1425 124.621 38.0489 122.37 39.4965C119.838 41.1286 122.131 44.2092 123.574 45.6032C124.166 46.1747 127.091 48.2688 128.123 48.2777C124.717 52.5004 120.957 56.651 117.134 60.6516C117.451 58.8613 117.867 53.9313 117.821 53.3842C117.586 50.5602 115.716 46.044 112.027 47.1466C108.448 48.2145 110.029 52.9063 111.253 55.1426C111.994 56.4961 113.019 57.8712 114.256 58.8148C114.479 58.9848 114.77 59.1235 115.06 59.262C115.411 59.4291 115.761 59.5957 115.989 59.8164C116.193 60.0132 116.255 60.2392 116.317 60.4633C116.382 60.7 116.447 60.9345 116.677 61.1303C114.611 63.2829 112.531 65.3908 110.48 67.4401C109.513 68.4074 108.528 69.3559 107.533 70.2926C106.989 70.0692 106.213 70.3637 106.253 71.1275C106.259 71.2384 106.285 71.3341 106.32 71.4219C105.566 72.1173 104.807 72.8078 104.043 73.4908C104.06 73.292 104.055 73.0115 104.02 72.6243C104.57 73.4001 104.548 72.2698 104.531 71.4081C104.525 71.1036 104.519 70.8325 104.54 70.6911C104.621 70.1374 104.726 69.589 104.831 69.0415C105.055 67.8718 105.278 66.7059 105.267 65.499C105.244 62.9371 103.61 58.6433 100.166 60.1706C96.9991 61.5725 98.1491 65.3689 99.3424 67.7489C100.098 69.2549 101.132 70.5995 102.212 71.8867C102.405 72.1165 102.619 72.4275 102.831 72.7355C103.145 73.1928 103.455 73.6434 103.684 73.8111C100.743 76.4255 97.7326 78.9634 94.7223 81.5013L94.7219 81.5015L94.7205 81.5027C93.3724 82.6392 92.0243 83.7758 90.6824 84.9193C90.6241 84.6685 90.5759 84.4196 90.5345 84.187C90.6184 84.2809 90.7325 84.3247 90.879 84.316C90.9182 84.1237 90.9748 83.8681 91.0428 83.5612C91.8734 79.8139 94.4032 68.4003 87.5682 70.6156C82.5604 72.2433 86.0894 82.1787 89.822 85.6529C87.5548 87.5948 85.3091 89.5616 83.1159 91.587C81.5289 93.0525 79.9888 94.5683 78.5071 96.1344C79.2744 94.107 79.9978 91.4827 79.525 89.3946C78.8366 86.356 75.6052 83.4882 72.448 85.219C68.5121 87.3861 71.5377 90.3415 74.3749 93.1128C75.8237 94.5279 77.2233 95.895 77.622 97.0847C72.9121 102.222 68.8904 107.929 66.2017 114.429C63.2776 121.497 60.5616 130.994 62.057 138.9C61.7819 135.423 62.9682 131.058 63.8013 127.992C63.9147 127.574 64.0216 127.181 64.1174 126.817C65.3692 122.062 67.1466 117.435 69.4878 113.104C73.2381 106.167 78.1901 100.278 83.9064 94.9298C85.2072 95.3788 86.6199 96.2108 87.7899 96.8998C88.5075 97.3224 89.1338 97.6912 89.587 97.885C91.7727 98.8195 95.9694 100.159 97.3637 97.2107C98.7346 94.3121 95.24 92.6933 93.0741 92.0449C90.981 91.4191 89.0936 91.4959 87.1405 92.0107C90.166 89.3493 93.2653 86.7722 96.364 84.1956L96.3644 84.1952C96.9344 83.7213 97.5044 83.2473 98.0739 82.7729C98.8609 83.4129 99.73 84.3382 100.653 85.3207C103.582 88.4388 107.052 92.1329 110.154 89.1118C114.836 84.5525 105.889 79.9255 102.076 80.2891C101.607 80.3334 101.155 80.4315 100.713 80.5649C104.603 77.2885 108.433 73.9448 112.055 70.3661C112.705 70.4833 113.739 71.4311 114.98 72.5698C117.772 75.129 121.614 78.652 124.511 75.875C126.602 73.8704 125.888 70.7503 123.868 68.9671C121.841 67.1763 118.9 67.1807 116.4 67.7856C115.32 68.0457 114.323 68.5417 113.393 69.1461C113.354 69.1481 113.316 69.1505 113.278 69.1525C116.842 65.5937 120.428 61.955 123.883 58.1923C123.943 58.2115 124.005 58.2312 124.066 58.2512C124.275 58.5048 124.624 58.5975 124.945 58.5412C125.121 58.6011 125.301 58.6627 125.485 58.7256C128.219 59.6606 131.733 60.8624 134.459 60.3419C136.465 59.9589 138.286 58.3401 136.589 56.3491C135.209 54.73 131.464 54.9645 129.637 55.3491C128.746 55.5371 127.775 56.0807 126.802 56.6262L126.801 56.6263C126.392 56.8554 125.983 57.0849 125.578 57.2884C125.473 57.0782 125.29 56.9432 125.081 56.8785C128.492 53.0974 131.747 49.1857 134.699 45.1043C135.592 45.2411 136.582 45.6298 137.604 46.0306C140.061 46.9953 142.699 48.0305 144.593 45.797C147.39 42.499 142.135 40.5776 139.636 40.892C138.792 40.998 137.96 41.2357 137.156 41.5495C139.305 38.1894 140.946 34.5981 142.1 30.8267C142.111 30.8323 142.121 30.838 142.132 30.8437C142.148 30.8527 142.164 30.8618 142.184 30.8704C142.167 30.8611 142.152 30.8514 142.136 30.8417C142.125 30.8345 142.114 30.8274 142.102 30.8204C142.217 30.4431 142.328 30.0641 142.433 29.6837C142.628 29.5758 142.811 29.4964 142.898 29.4637C141.762 30.2409 146.552 30.6185 147.449 30.6892C149.432 30.8452 152.089 30.9026 153.544 29.29C154.767 27.9354 154.697 25.9352 153.201 24.8031ZM61.7604 138.588C61.848 139.643 62.1083 140.607 62.6207 141.396C62.2445 140.494 61.9624 139.554 61.7604 138.588Z" fill="#C1DEE2"/>
<g opacity="0.5">
<path opacity="0.5" fill-rule="evenodd" clip-rule="evenodd" d="M127.512 116.084C130.504 111.815 136.058 100.972 140.27 99.4466C142.983 98.464 142.192 108.628 142.226 110.566C142.356 118.065 141.626 125.515 140.725 132.95C139.102 146.359 133.794 158.301 126.514 169.714C122.768 175.587 118.374 181.53 112.288 185.194C109.486 186.882 106.115 187.164 103.349 188.618C100.127 190.311 101.881 188.942 100.429 192.302C98.4128 196.965 97.7678 202.982 96.8348 207.958C92.5509 230.803 82.1796 351.563 83.9776 374.8C84.1373 376.859 81.2668 377.352 81.1235 374.838C80.3618 361.506 86.9526 269.183 90.2777 238.991C93.6029 208.798 96.9677 182.125 100.342 171.68C104.435 159.007 111.827 143.767 117.981 131.949C120.839 126.459 123.955 121.158 127.512 116.084Z" fill="#C5CFD6"/>
<path opacity="0.5" fill-rule="evenodd" clip-rule="evenodd" d="M149.725 264.164C157.512 258.444 165.941 269.239 158.894 274.96C154.999 278.122 150.926 276.997 148.633 274.362C147.145 276.177 145.752 278.075 144.413 279.678C140.335 284.563 136.48 289.565 132.796 294.683C125.144 305.315 118.585 316.548 111.728 327.576C104.961 338.46 98.2483 349.4 92.1147 360.559C86.9187 370.014 79.9931 381.137 78.2141 391.502C80.9133 369.519 91.1553 348.39 103.352 329.01C115.449 309.789 129.332 288.798 148.063 273.63C146.157 270.825 146.104 266.822 149.725 264.164Z" fill="#C5CFD6"/>
<path opacity="0.5" fill-rule="evenodd" clip-rule="evenodd" d="M1.95173 210.551C6.30957 211.404 13.4302 221.266 17.0224 225.024C21.2915 229.49 25.1646 234.25 28.8154 239.237C36.6749 249.971 43.7038 261.384 49.6808 273.285C59.4249 292.687 67.2312 312.604 72.8965 333.732C76.3645 346.665 78.6099 360.069 79.9406 373.38C80.1919 375.89 82.8226 395.245 79.0319 395.766C75.6226 396.236 76.6756 381.07 76.5111 379.007C74.6519 355.734 69.0823 333.088 61.335 311.152C59.6475 306.373 58.0798 300.52 55.3811 296.219C53.4377 293.122 55.3672 294.202 51.9518 293.03C49.0192 292.023 45.678 292.269 42.6749 291.036C36.1511 288.359 30.9274 283.163 26.3485 277.936C17.45 267.779 10.3985 256.79 6.72276 243.774C4.68374 236.558 2.80999 229.299 1.77017 221.859C1.50119 219.936 -0.855134 210.002 1.95173 210.551Z" fill="#C5CFD6"/>
<path opacity="0.5" fill-rule="evenodd" clip-rule="evenodd" d="M19.149 46.4533C35.5641 74.9347 49.0534 106.221 57.7635 137.909C63.0408 157.109 66.7314 176.81 70.3982 196.369C76.0757 226.654 81.446 256.937 82.9736 287.76C84.5104 318.761 87.5494 354.518 77.4029 384.377C82.4711 354.062 77.6458 321.794 76.7914 291.29C76.3832 276.728 75.2 262.309 73.648 247.832C72.1419 233.788 69.6814 219.812 67.39 205.879C66.2739 199.094 65.1017 192.318 63.9082 185.547C63.5519 183.526 63.4014 177.531 62.1205 176.151C60.8312 174.762 54.2532 174.195 52.188 173.176C48.0294 171.123 44.1177 168.207 40.6557 165.125C34.0191 159.218 28.2456 151.5 23.6886 143.891C13.1451 126.287 8.92973 104.802 9.14279 84.4135C9.18373 80.455 15.5469 37.8278 12.9914 37.2408C13.1452 37.0605 13.2908 36.8743 13.428 36.6807C15.3628 39.9217 17.2614 43.1846 19.149 46.4533Z" fill="#C5CFD6"/>
<path opacity="0.5" fill-rule="evenodd" clip-rule="evenodd" d="M196.322 149.174C196.576 148.809 198.224 146.267 197.394 146.429C199.084 146.099 195.069 149.233 199.28 147.31C197.281 149.199 198.435 151.653 198.462 154.196C198.505 158.325 197.815 162.419 197.038 166.459C195.809 172.845 193.98 179.053 191.325 184.993C185.537 197.936 175.709 210.397 164.042 218.489C158.282 222.484 152.637 223.845 146.068 225.684C141.919 226.846 141.59 228.993 139.387 233.022C134.802 241.412 130.298 249.772 126.254 258.445C121.425 268.802 116.738 279.17 112.316 289.71C97.4205 325.21 85.2967 361.989 78.9297 400.052C78.7738 377.622 83.9602 354.52 90.5024 333.141C95.268 317.564 101.472 302.548 108.089 287.685C109.692 284.084 112.122 279.452 112.803 275.476C113.28 272.691 111.822 270.012 111.155 267.078C108.553 255.651 108.739 242.85 111.024 231.362C113.543 218.695 120.829 212.815 133.153 211.021C137.661 210.365 143.39 210.605 147.523 208.683C152.025 206.589 153.883 199.707 156.443 195.289C163.321 183.421 171.492 172.04 180.875 162.04C183.473 159.271 186.267 156.717 189.231 154.349C191.1 152.855 195.048 151.015 196.322 149.174Z" fill="#C5CFD6"/>
<path opacity="0.5" fill-rule="evenodd" clip-rule="evenodd" d="M54.8454 381.557C54.4003 378.538 56.7402 375.828 59.7919 375.828H100.197C103.249 375.828 105.589 378.538 105.144 381.557L102.73 397.931C101.283 407.744 92.863 415.015 82.9438 415.015H77.0452C67.126 415.015 58.7055 407.744 57.259 397.931L54.8454 381.557Z" fill="#C5CFD6"/>
</g>
<path fill-rule="evenodd" clip-rule="evenodd" d="M18.6907 387.552C18.6907 402.719 19.887 415.014 35.9446 415.014C52.0023 415.014 53.1986 402.719 53.1986 387.552" fill="#F2F2F2"/>
<path fill-rule="evenodd" clip-rule="evenodd" d="M40.7216 378.089C40.133 379.107 39.6082 380.145 39.1446 381.2C39.1283 379.029 39.2482 376.842 39.5759 374.625C40.136 370.828 40.9914 367.05 41.7952 363.279C42.3729 360.569 42.3364 355.701 44.5288 353.541C45.13 353.074 45.2747 353.99 45.2747 354.387C45.2823 354.471 45.2731 352.765 44.6895 353.062C41.2209 354.854 40.0969 360.49 38.9865 363.312C37.3663 367.43 35.9877 371.64 35.4201 375.925C35.2766 377.008 35.1986 378.09 35.1805 379.17C35.0626 378.881 34.9519 378.59 34.8294 378.302C32.8274 373.605 30.1257 369.021 26.756 364.793C25.9266 363.753 15.4976 353.49 14.6812 355.061C14.7618 355.289 14.9304 355.478 15.1876 355.629C15.2027 355.646 15.2031 355.637 15.1943 355.611C15.8068 356.601 17.5483 358.13 18.0907 358.997C19.4559 361.18 20.5168 363.496 21.595 365.768C23.873 370.57 25.9862 375.42 28.0347 380.28C28.5117 381.412 29.0089 382.538 29.5161 383.66C24.2875 376.115 17.3125 369.266 7.71082 365.344C10.9902 367.013 13.1403 370.154 15.355 372.558C18.0261 375.459 20.8395 378.281 23.5156 381.178C26.6721 384.595 30.3862 388.194 33.4223 391.976C36.3632 398.153 39.221 404.337 40.9851 410.831C40.2622 408.587 40.9284 405.487 40.8047 403.132C40.7065 401.258 40.4875 399.399 40.1876 397.544C40.5584 398.381 40.8781 399.218 41.0228 399.997C40.8907 398.691 40.7384 397.393 40.5748 396.101C40.9947 394.892 41.4071 393.764 41.6857 392.834C43.1133 388.067 44.8133 383.381 47.1282 378.814C49.2703 374.59 51.7275 370.419 54.4049 366.376C55.6538 364.491 56.9199 362.612 58.1781 360.731C59.0016 359.499 59.7857 357.527 60.9323 356.347C53.5209 363.126 45.4237 369.954 40.7216 378.089Z" fill="#F2F2F2"/>
<path fill-rule="evenodd" clip-rule="evenodd" d="M224.336 69.1709C212.6 69.1709 203.086 78.6847 203.086 90.4206V108.365C203.086 119.01 210.913 127.826 221.127 129.374C221.131 129.461 221.136 129.548 221.141 129.636H248.53C253.187 125.085 247.923 94.2191 244.641 83.9895C244.177 82.5425 243.728 81.5023 243.286 80.795C239.775 73.8964 232.607 69.1709 224.336 69.1709Z" fill="#57331F"/>
<path fill-rule="evenodd" clip-rule="evenodd" d="M224.747 114.734C230.863 118.421 236.872 120.202 239.693 119.475C246.766 117.651 247.416 91.7756 241.943 81.5747C236.471 71.3737 208.336 66.9275 206.918 87.1388C206.425 94.1536 209.371 100.414 213.723 105.522L205.92 141.892H228.586L224.747 114.734Z" fill="#D4A181"/>
<path fill-rule="evenodd" clip-rule="evenodd" d="M203.919 87.257C204.577 86.6063 205.213 85.9767 205.845 85.4132L205.815 84.679C205.815 84.679 212.929 70.1152 223.865 70.1152C234.792 70.1152 238.248 75.195 241.185 79.513L241.193 79.5247C239.656 84.7967 235.026 86.9296 229.789 89.3419C227.534 90.3803 225.168 91.4705 222.887 92.885C221.994 92.1592 220.855 91.7242 219.614 91.7242C216.745 91.7242 214.419 94.0499 214.419 96.9186C214.419 99.7874 216.745 102.113 219.614 102.113C219.693 102.113 219.772 102.111 219.85 102.108C220.894 113.326 220.476 126.136 217.363 129.177H189.975C189.189 115.517 192.722 111.62 196.333 107.638C199.731 103.891 203.197 100.069 203.197 87.9676C203.441 87.7294 203.681 87.4919 203.918 87.2571L203.919 87.257Z" fill="#57331F"/>
<path fill-rule="evenodd" clip-rule="evenodd" d="M169.472 312.918C169.472 312.918 203.456 322.423 228.113 322.423C252.771 322.423 273.919 307.785 273.919 307.785C273.919 307.785 240.662 298.028 219.142 298.028C197.621 298.028 169.472 312.918 169.472 312.918Z" fill="#191847"/>
<path fill-rule="evenodd" clip-rule="evenodd" d="M247.727 331.557C247.508 331.229 247.324 330.872 247.177 330.485C244.149 322.476 195.641 236.076 190.808 220.28H245.421C249.096 232.29 265.633 307.659 267.961 322.696C275.304 346.416 290.423 423.235 292.353 428.556C294.383 434.155 282.959 439.987 279.915 433.104C275.071 422.153 263.529 391.851 258.39 373.349C253.572 356.003 249.648 340.397 247.727 331.557Z" fill="#D4A181"/>
<path fill-rule="evenodd" clip-rule="evenodd" d="M203.046 342.106C180.869 347.711 99.7499 357.844 94.1832 359.434C88.4568 361.068 83.4358 349.265 90.5139 346.708C101.776 342.64 132.81 333.24 151.626 329.404C166.76 326.318 180.57 323.801 189.842 322.326C189.056 296.282 185.466 233.779 187.819 220.28H236.141C233.885 233.225 214.807 327.679 211.261 337.134C210.135 340.509 206.778 342.001 203.046 342.106Z" fill="#D4A181"/>
<path fill-rule="evenodd" clip-rule="evenodd" d="M92.4932 346.079C92.7682 344.941 92.0784 343.768 90.9246 343.568C88.9402 343.225 86.0649 342.831 84.5176 343.104C82.0018 343.548 77.323 345.237 77.323 345.237C77.8376 348.156 86.5729 397.696 86.5729 397.696C86.5729 397.696 93.6935 398.548 93.4557 394.048C93.2179 389.547 93.1385 386.557 93.1385 386.557L99.6951 360.313C99.8316 359.767 99.4899 359.215 98.9397 359.094L94.9174 358.209C94.9174 358.209 92.2953 354.467 91.8457 351.917C91.578 350.398 92.0597 347.873 92.4932 346.079Z" fill="#E4E4E4"/>
<path fill-rule="evenodd" clip-rule="evenodd" d="M279.177 431.206C278.104 430.738 276.83 431.214 276.433 432.315C275.75 434.21 274.863 436.973 274.863 438.544C274.863 441.099 275.714 446 275.714 446C278.678 446 328.982 446 328.982 446C328.982 446 331.059 439.135 326.585 438.588C322.111 438.041 319.152 437.6 319.152 437.6L294.446 426.586C293.932 426.356 293.329 426.597 293.115 427.118L291.545 430.925C291.545 430.925 287.404 432.858 284.814 432.858C283.272 432.858 280.869 431.945 279.177 431.206Z" fill="#E4E4E4"/>
<path fill-rule="evenodd" clip-rule="evenodd" d="M187.975 220.28C187.975 220.28 219.916 211.141 248.419 220.28C255.03 250.443 271.094 262.414 273.919 308.659C241.808 324.614 202.142 297.28 169.087 312.84C159.642 291.076 172.864 238.663 187.975 220.28Z" fill="#2F3676"/>
<path fill-rule="evenodd" clip-rule="evenodd" d="M316.874 177.71L279.585 182.796L286.276 199.503L316.532 187.507C329.574 188.794 335.88 188.484 335.451 186.578C335.089 184.971 333.703 184.486 332.426 184.039C331.432 183.69 330.503 183.365 330.177 182.551C329.433 180.693 333.672 176.839 337.851 173.356C342.029 169.873 339.224 169.232 337.461 169.284C331.196 170.752 324.334 173.561 316.874 177.71ZM135.463 269.304C138.23 263.689 162.447 191.427 162.447 191.427L183.128 191.505C183.128 191.505 149.112 268.052 147.655 271.663C145.763 276.353 148.978 283.168 151.157 287.788C151.495 288.503 151.807 289.166 152.072 289.76C149.047 291.113 147.594 289.477 146.063 287.752C144.332 285.804 142.502 283.743 138.192 285.748C136.527 286.523 134.952 287.438 133.412 288.333C128.095 291.424 123.21 294.263 116.566 290.163C115.512 289.513 114.358 287.066 117.147 285.153C124.096 280.388 134.11 272.049 135.463 269.304Z" fill="#D4A181"/>
<path fill-rule="evenodd" clip-rule="evenodd" d="M219.094 125.837L235.286 126.915C239.274 162.994 260.995 185.782 309.629 178.068L316.09 224.529C270.635 230.403 230.77 212.205 222.6 162.933C220.485 150.177 218.815 136.903 219.094 125.837Z" fill="#E87613"/>
<path fill-rule="evenodd" clip-rule="evenodd" d="M138.299 259.946C149.542 200.13 173.27 153.852 209.485 121.115H211.039H211.092L211.105 121.13L235.639 126.748C235.639 156.218 242.195 178.238 248.498 199.408C251.22 208.551 253.895 217.534 255.974 226.891H189.716C188.783 237.611 188.21 248.63 187.911 259.946H138.299Z" fill="#FF9B21"/>
<path fill-rule="evenodd" clip-rule="evenodd" d="M189.716 226.891C191.617 205.066 195.01 184.477 200.619 165.124C199.39 185.82 199.049 211.495 203.183 226.891H189.716Z" fill="black" fill-opacity="0.1"/>
<path fill-rule="evenodd" clip-rule="evenodd" d="M409.856 104.345C415.972 108.032 421.981 109.813 424.802 109.086C431.875 107.262 432.525 81.3869 427.053 71.186C421.58 60.985 393.445 56.5388 392.027 76.7501C391.535 83.7648 394.48 90.025 398.832 95.1332L391.029 131.503H413.695L409.856 104.345Z" fill="#D4A181"/>
<path fill-rule="evenodd" clip-rule="evenodd" d="M410.99 78.9822C412.95 76.0629 414.832 73.8362 417.281 72.5431C427.246 72.7006 428.412 70.9142 428.412 64.8932C426.803 63.7415 421.124 61.8023 414.764 61.2568C411.52 60.3283 407.677 60.503 403.974 62.0516C399.404 63.3484 395.534 66.1411 393.825 71.3695C387.64 82.0422 392.334 93.1523 398.66 96.9475C400.344 94.9526 401.813 93.0193 403.125 91.1686C402.071 90.1396 401.417 88.7036 401.417 87.1148C401.417 83.9853 403.954 81.4482 407.084 81.4482C407.314 81.4482 407.541 81.4619 407.764 81.4886C407.905 85.4014 408.484 98.6394 410.007 103.238C411.801 108.659 422.274 109.99 425.927 109.99C429.082 109.99 428.974 107.003 428.897 104.862C428.886 104.553 428.875 104.262 428.875 104.001C428.875 103.454 428.164 103.455 427.36 103.457C426.316 103.459 425.117 103.461 425.117 102.264C425.117 100.958 426.921 99.957 428.535 99.061C429.542 98.502 430.475 97.984 430.851 97.4587C432.035 95.8015 432.433 93.5663 430.647 93.5663C429.671 93.5663 428.331 94.1292 426.72 94.8063C424.287 95.8286 421.234 97.1114 417.875 97.1114C412.326 97.1114 411.006 79.2063 410.99 78.9822Z" fill="#3D2216"/>
<path fill-rule="evenodd" clip-rule="evenodd" d="M388.195 219.336L422.436 339.493L447.418 428.056H465.639L439.092 219.336H388.195Z" fill="#AFB9C5"/>
<path fill-rule="evenodd" clip-rule="evenodd" d="M379.038 219.336C378.246 281.266 375.546 315.045 374.714 320.672C373.883 326.298 361.309 362.093 336.994 428.056H355.87C386.825 364.776 404.105 328.981 407.71 320.672C411.315 312.362 422.439 278.583 439.195 219.336H379.038Z" fill="#C5CFD6"/>
<path fill-rule="evenodd" clip-rule="evenodd" d="M335.307 445.056L336.251 425.222H356.085C370.191 435.139 392.918 441.278 392.918 441.278V445.056H357.029L344.751 443.167V445.056H335.307Z" fill="#191847"/>
<path fill-rule="evenodd" clip-rule="evenodd" d="M444.861 445.056L445.806 425.222H465.639C479.745 435.139 502.472 441.278 502.472 441.278V445.056H466.583L454.306 443.167V445.056H444.861Z" fill="#191847"/>
<path fill-rule="evenodd" clip-rule="evenodd" d="M490.836 222.769L460.71 200.646L454.051 217.109L483.883 229.48C492.32 239.391 497.038 243.522 498.037 241.874C498.879 240.485 498.221 239.185 497.614 237.987C497.142 237.053 496.701 236.183 497.026 235.38C497.767 233.549 503.434 233.741 508.805 234.154C514.175 234.567 512.61 232.178 511.315 230.998C505.833 227.716 499.007 224.973 490.836 222.769ZM332.85 261.748C335.617 256.134 345.042 201.41 345.042 201.41L364.778 201.488C364.778 201.488 346.499 260.496 345.042 264.107C343.15 268.797 346.364 275.612 348.544 280.233C348.882 280.947 349.194 281.61 349.459 282.204C346.434 283.557 344.981 281.921 343.449 280.196C341.719 278.248 339.889 276.187 335.579 278.192C333.914 278.967 332.338 279.883 330.799 280.777C325.482 283.868 320.597 286.707 313.952 282.607C312.899 281.957 311.745 279.51 314.534 277.597C321.483 272.833 331.497 264.493 332.85 261.748Z" fill="#D4A181"/>
<path fill-rule="evenodd" clip-rule="evenodd" d="M401.129 118.595L409.296 117.194C439.597 143.369 452.042 193.655 489.183 220.294L480.244 231.375C415.811 223.397 399.84 162.06 401.129 118.595Z" fill="#1F28CF"/>
<path fill-rule="evenodd" clip-rule="evenodd" d="M365.529 221.224C365.529 221.224 414.647 221.224 437.789 221.224C441.091 221.224 440.469 216.457 439.991 214.051C434.483 186.284 412.979 156.353 412.979 116.827L392.135 113.559C374.895 141.286 368.933 175.424 365.529 221.224Z" fill="#191847"/>
<path fill-rule="evenodd" clip-rule="evenodd" d="M368.298 140.487C364.505 140.216 361.082 138.629 358.918 134.725C351.3 120.978 354.051 113.41 362.192 110.922C366.669 109.554 370.88 110.488 375.92 111.606C380.046 112.521 384.727 113.559 390.566 113.559C391.131 113.559 391.646 113.597 392.113 113.669L399.029 114.064C399.029 114.064 427.111 209.235 414.519 241.057H357.404C354.156 248.857 350.972 255.663 347.971 260.891H332.474C330.806 206.981 351.216 165.499 368.298 140.487Z" fill="#2B44FF"/>
<path fill-rule="evenodd" clip-rule="evenodd" d="M357.404 241.058C361.665 230.824 366.034 218.879 370.239 206.543C371.804 220.128 374.411 233.773 378.751 241.058H357.404Z" fill="black" fill-opacity="0.1"/>
</svg>
