<svg width="70" height="110" viewBox="0 0 70 110" fill="none" xmlns="http://www.w3.org/2000/svg">
<path d="M54.0314 97.7491L53.9696 98.3932L53.5727 102.563H15.0883L14.6895 98.3932L10.9993 59.4763C11.868 59.7365 17.3874 61.3167 23.1035 61.3167C27.6437 61.3167 35.0317 56.3927 41.0023 53.9157L41.0772 53.8857C41.4423 53.7359 41.7961 53.5974 42.1481 53.4663C42.3354 53.3989 42.5095 53.3371 42.6873 53.2791C42.736 53.2622 42.7847 53.2454 42.8371 53.2304C43.0711 53.148 43.3052 53.0769 43.5355 53.0076L43.8781 52.914L44.1383 52.8466C44.5016 52.7567 44.8573 52.6818 45.198 52.6294C45.3853 52.5995 45.5725 52.577 45.7597 52.5602C45.9844 52.5377 46.1997 52.5283 46.4075 52.5283C46.5105 52.5283 46.6154 52.5283 46.7183 52.5283C46.7913 52.5283 46.8625 52.5283 46.9374 52.5283C47.2763 52.5283 47.6226 52.5527 47.9746 52.5826C52.2696 52.9271 57.1318 54.6028 58.0848 54.9304L54.0314 97.7491Z" fill="#F7DF1E"/>
<path d="M0 15.5718L2.77656 44.8128L8.90448 109.368H59.7889L65.8868 44.8128L68.6653 15.5718H0ZM59.0493 44.8128L54.0317 97.7492L53.9736 98.3932L53.5804 102.563H15.0886L14.6935 98.3932L10.9995 59.4764L9.60658 44.8128L7.48531 22.3775H61.1762L59.0493 44.8128Z" fill="black"/>
<path d="M0 15.5718L2.77656 44.8128L4.62075 64.1308L8.90449 109.368H59.817L64.1007 64.1308L65.9149 44.8128L68.6952 15.5718H0ZM59.0493 44.8128L58.087 54.9399L57.207 64.1308L54.0242 97.7492L53.9624 98.3932L53.5692 102.563H15.0886L11.4564 64.1308L11.0108 59.4801L9.6122 44.8128L7.48531 22.3775H61.1762L59.0493 44.8128Z" fill="black"/>
<path d="M70 0L69.3466 6.80755H52.075L51.2867 15.5716L50.6764 22.3773L47.9672 52.5919C47.6152 52.5619 47.2689 52.547 46.93 52.5376C46.8551 52.5376 46.7839 52.5376 46.7109 52.5376C46.608 52.5376 46.5031 52.5376 46.4001 52.5376C46.1923 52.5376 45.977 52.5469 45.7523 52.5694C45.5651 52.5863 45.3779 52.6087 45.1906 52.6387C44.8499 52.6911 44.4942 52.766 44.131 52.8559L43.8838 52.9214L43.5412 53.015C43.3109 53.0843 43.0769 53.1554 42.8428 53.2378C42.7904 53.2528 42.7417 53.2696 42.6931 53.2865C42.5152 53.3483 42.3355 53.4101 42.1538 53.4737C41.8019 53.6048 41.448 53.7433 41.0829 53.8931L41.008 53.9231L43.8445 22.381L44.4567 15.5754L45.8572 0.00374533L70 0Z" fill="black"/>
<path d="M24.3732 92.808L27.85 90.8102C28.4004 91.7838 28.9733 92.3081 30.3232 92.3081C32.0701 92.3081 32.5962 91.3101 32.5962 90.2355V78.3728H36.5916V90.2355C36.5916 94.0811 33.8937 96.2042 30.297 96.2042C27.5205 96.2042 25.5228 95.0303 24.3732 92.808Z" fill="black"/>
<path d="M37.9602 91.8833L41.407 89.8856C42.0324 91.3348 43.1052 92.3083 45.0786 92.3083C46.977 92.3083 47.4507 91.5594 47.4507 90.8854C47.4507 89.8107 46.4528 89.3876 43.8298 88.663C41.2067 87.9385 38.6848 86.6897 38.6848 83.3439C38.6848 79.9982 41.5325 78.0229 44.5543 78.0229C47.4264 78.0229 49.6731 79.3972 50.9481 81.9697L47.578 83.9431C46.9789 82.6943 46.1551 81.9191 44.5562 81.9191C43.3074 81.9191 42.6839 82.5445 42.6839 83.2428C42.6839 84.0423 43.1071 84.5909 45.8293 85.4165C48.4767 86.216 51.4461 87.139 51.4461 90.8349C51.4461 94.2049 48.7501 96.2045 44.9531 96.2045C41.2835 96.2045 38.9357 94.4558 37.9602 91.8833Z" fill="black"/>
<path d="M43.8502 22.3774L41.0138 53.9195C35.0431 56.404 27.6626 61.3205 23.1149 61.3205C17.3989 61.3205 11.8813 59.7403 11.0107 59.4801L9.61215 44.8128L7.48527 22.3774H43.8502Z" fill="white"/>
<path d="M61.1763 22.3774L59.0494 44.8128L58.0871 54.9398C57.1247 54.6122 52.2624 52.9365 47.9768 52.592L50.686 22.3774H61.1763Z" fill="white"/>
</svg>
