<!-- Generated by IcoMoon.io -->
<svg version="1.1" xmlns="http://www.w3.org/2000/svg" width="1024" height="1024" viewBox="0 0 1024 1024">
<title></title>
<g id="icomoon-ignore">
</g>
<path d="M967.509 0h-911.019c-31.189 0-56.491 25.301-56.491 56.491v911.019c0 31.232 25.301 56.491 56.491 56.491h490.411v-396.544h-133.504v-154.496h133.504v-114.133c0-132.224 80.811-204.16 198.784-204.16 56.533 0 105.131 4.139 119.296 6.016v138.24h-81.963c-64 0-76.459 30.763-76.459 75.563v98.603h152.917l-19.84 154.88h-133.077v396.032h260.907c31.275 0 56.533-25.259 56.533-56.491v-911.019c0-31.189-25.259-56.491-56.491-56.491z"></path>
</svg>
