<?xml version="1.0" encoding="UTF-8"?>
<svg width="2478px" height="534px" viewBox="0 0 2478 534" version="1.1" xmlns="http://www.w3.org/2000/svg" xmlns:xlink="http://www.w3.org/1999/xlink">
    <!-- Generator: Sketch 50.2 (55047) - http://www.bohemiancoding.com/sketch -->
    <title>HorchataJS</title>
    <desc>Created with Sketch.</desc>
    <defs></defs>
    <g id="HorchataJS" stroke="none" stroke-width="1" fill="none" fill-rule="evenodd">
        <g id="Logo">
            <path d="M264.189865,476.527506 L263.888039,479.667582 L263.903925,479.667582 L261.965884,500 L73.9531048,500 L71.9987709,479.667582 L72.0146565,479.667582 L54,289.875978 C54.0154783,289.875978 54.0154783,289.875978 54.0313638,289.892244 C58.2732214,291.160961 85.2318675,298.86842 113.159941,298.86842 C135.337028,298.86842 171.430698,274.857128 200.59744,262.772186 C200.724524,262.72461 200.835723,262.677033 200.962808,262.629456 C202.7424,261.899943 204.473929,261.218007 206.189164,260.583649 C207.079164,260.250204 207.952871,259.94929 208.826578,259.64797 C209.064862,259.568675 209.303145,259.488973 209.557315,259.410085 C210.701077,259.013204 211.844838,258.664307 212.972715,258.331268 C213.52871,258.173085 214.084705,258.014089 214.640701,257.871358 C215.053726,257.760346 215.451273,257.649333 215.848005,257.554179 C217.627597,257.110128 219.358718,256.745372 221.027112,256.491628 C221.948475,256.348897 222.854361,256.237885 223.743546,256.15859 C224.840059,256.047984 225.888507,256 226.905184,256 C227.413523,256 227.921861,256 228.4302,256.015859 C228.779275,256.015859 229.129166,256.015859 229.494534,256.031718 C231.146634,256.079701 232.846392,256.15859 234.562442,256.30132 C255.547702,257.982371 279.297868,266.150147 284,267.751903 L264.189865,476.527506 Z" id="Fill-7" fill="#FFDA1A"></path>
            <path d="M288.08586,218.784427 L263.605097,477.263811 L263.319529,480.407746 L263.303664,480.407746 L261.384011,500.765157 L73.6159892,500.765157 L71.6804713,480.407746 L53.6888597,290.382857 L46.8982752,218.784427 L36.522223,109.234843 L298.477777,109.234843 L288.08586,218.784427 Z M0,76 L13.5490324,218.784427 L43.4397267,534 L291.687192,534 L321.434696,218.784427 L335,76 L0,76 Z" id="Fill-9" fill="#000000"></path>
            <path d="M287.963124,218.784427 L283.268707,268.231588 L278.971151,313.105752 L263.492791,477.263811 L263.191486,480.407746 L261.272651,500.765157 L73.5846259,500.765157 L55.8702679,313.105752 L53.6977024,290.398736 L46.8782947,218.784427 L36.5066631,109.234843 L298.350614,109.234843 L287.963124,218.784427 Z M0,76 L13.54326,218.784427 L22.5352332,313.105752 L43.4212197,534 L291.705645,534 L312.591632,313.105752 L321.440882,218.784427 L335,76 L0,76 Z" id="Fill-11" fill="#000000"></path>
            <path d="M341,0 L337.820381,33.2001175 L253.802439,33.2001175 L249.974242,75.9498952 L247.00027,109.150013 L233.82264,256.52795 C232.113782,256.385193 230.42115,256.30629 228.775974,256.258298 C228.412137,256.242436 228.063713,256.242436 227.716101,256.242436 C227.209893,256.226574 226.703685,256.226574 226.197477,256.226574 C225.185061,256.226574 224.140602,256.27416 223.049091,256.385193 C222.163227,256.464502 221.261544,256.575535 220.344042,256.718292 C218.682642,256.972082 216.958371,257.336905 215.186643,257.781038 C214.791574,257.876209 214.395694,257.987242 213.9844,258.098275 C213.430735,258.241032 212.87707,258.399651 212.323405,258.558269 C211.200256,258.891369 210.061288,259.24033 208.92232,259.636876 C208.669216,259.716186 208.431931,259.795902 208.194646,259.874805 C207.324602,260.176587 206.454557,260.477556 205.568287,260.811062 C203.859835,261.445537 202.13597,262.127597 200.363837,262.856836 C200.237285,262.904829 200.126552,262.952414 200,263 L213.794977,109.150013 L216.768949,75.9498952 L223.586937,0 L341,0 Z" id="Fill-13" fill="#000000"></path>
            <path d="M119,453.427971 L136.053373,443.68125 C138.753105,448.433377 141.576557,450.991901 148.202985,450.991901 C156.791327,450.991901 159.367748,446.11732 159.367748,440.87741 L159.367748,383 L179,383 L179,440.87741 C179,459.643041 165.747144,470 148.079674,470 C134.458934,470 124.644037,464.272713 119,453.427971" id="Fill-15" fill="#000000"></path>
            <path d="M186,448.851255 L202.866449,439.069761 C205.921687,446.160977 211.17766,450.928863 220.833877,450.928863 C230.121198,450.928863 232.444354,447.260191 232.444354,443.960508 C232.444354,438.70322 227.55483,436.625612 214.722993,433.0798 C202.010721,429.533989 189.544925,423.421167 189.544925,407.0399 C189.544925,390.535773 203.478558,381 218.26751,381 C232.321524,381 243.322748,387.722634 249.55687,400.314817 L233.056462,409.973042 C230.121198,403.860221 226.08985,400.071137 218.26751,400.071137 C212.156218,400.071137 209.100571,403.127548 209.100571,406.550499 C209.100571,410.462443 211.17766,413.152721 224.499184,417.187935 C237.457115,421.099879 252,425.621636 252,443.716828 C252,460.220955 238.799265,470 220.221769,470 C202.256789,470 190.766694,461.443438 186,448.851255" id="Fill-17" fill="#000000"></path>
            <path d="M214,109 L200.196829,262.888194 C171.135086,274.978349 135.171352,299 113.074102,299 C85.2469738,299 58.3849719,291.289216 54.1587907,290.019951 L47.3521755,218.462297 L37,109 L214,109 Z" id="Fill-19" fill="#FFFFFE"></path>
            <path d="M298,109 L287.682487,218.551827 L283.019695,268 C278.357307,266.39665 254.80829,258.218667 234,256.535108 L247.121246,109 L298,109 Z" id="Fill-21" fill="#FFFFFE"></path>
        </g>
        <g id="Wordmark" transform="translate(493.000000, 133.000000)" fill="#000000">
            <polygon id="Fill-23" points="198 6 198 263 139.33362 263 139.33362 160.931856 58.6676707 160.931856 58.6676707 263 0 263 0 6 58.6676707 6 58.6676707 104.397233 139.33362 104.397233 139.33362 6"></polygon>
            <path d="M354.810319,171.496139 C354.810319,145.542742 336.412895,128.36874 312.496114,128.36874 C288.579333,128.36874 270.183205,145.542742 270.183205,171.496139 C270.183205,197.449537 288.579333,214.63126 312.496114,214.63126 C336.412895,214.63126 354.810319,197.449537 354.810319,171.496139 M215,171.496139 C215,117.032226 258.40875,75 312.496114,75 C366.583478,75 410,117.032226 410,171.496139 C410,225.960052 366.583478,268 312.496114,268 C258.40875,268 215,225.960052 215,171.496139" id="Fill-25"></path>
            <path d="M533,75 L533,137.338927 C510.270092,133.665097 477.996127,142.8316 477.996127,179.138745 L477.996127,262 L423,262 L423,78.6725389 L477.996127,78.6725389 L477.996127,111.305854 C485.333936,86.7327613 509.900878,75 533,75" id="Fill-27"></path>
            <path d="M540,171.496139 C540,117.032226 581.655516,75 637.688967,75 C673.449505,75 705.155459,93.6372341 721,121.788698 L672.708414,149.56438 C666.442241,136.772354 653.170101,129.097139 636.954366,129.097139 C612.990277,129.097139 595.291063,146.278862 595.291063,171.496139 C595.291063,196.721138 612.990277,213.904147 636.954366,213.904147 C653.170101,213.904147 666.813435,206.227646 672.708414,193.427899 L721,220.843242 C705.155459,249.355044 673.812911,268 637.688967,268 C581.655516,268 540,225.960052 540,171.496139" id="Fill-29"></path>
            <path d="M913,150.283627 L913,263 L857.686121,263 L857.686121,158.362218 C857.686121,135.603859 843.304278,124.95563 825.601552,124.95563 C805.324427,124.95563 791.30609,136.703839 791.30609,162.771189 L791.30609,263 L736,263 L736,6 L791.30609,6 L791.30609,96.6805631 C801.267444,83.1007755 819.704971,74.2905878 844.039079,74.2905878 C881.286726,74.2905878 913,100.719858 913,150.283627" id="Fill-31"></path>
            <path d="M1074.79261,171.496139 C1074.79261,144.079509 1056.39835,126.906795 1030.99935,126.906795 C1005.60294,126.906795 987.198319,144.079509 987.198319,171.496139 C987.198319,198.912769 1005.60294,216.094492 1030.99935,216.094492 C1056.39835,216.094492 1074.79261,198.912769 1074.79261,171.496139 Z M1130,80.11681 L1130,262.88319 L1074.79261,262.88319 L1074.79261,245.701467 C1062.65287,259.596386 1044.61235,268 1019.9558,268 C971.744086,268 932,225.960052 932,171.496139 C932,117.032226 971.744086,75 1019.9558,75 C1044.61235,75 1062.65287,83.4036141 1074.79261,97.2908115 L1074.79261,80.11681 L1130,80.11681 Z" id="Fill-33"></path>
            <path d="M1230.26349,132.548822 L1230.26349,197.705366 C1230.26349,213.536671 1243.82392,215.010285 1268,213.536671 L1268,263.60455 C1196.19022,270.963547 1175.30719,249.248155 1175.30719,197.705366 L1175.30719,132.548822 L1146,132.548822 L1146,79.5414924 L1175.30719,79.5414924 L1175.30719,44.5635756 L1230.26349,28 L1230.26349,79.5414924 L1268,79.5414924 L1268,132.548822 L1230.26349,132.548822 Z" id="Fill-35"></path>
            <path d="M1427.79391,171.496139 C1427.79391,144.079509 1409.39965,126.906795 1384.00065,126.906795 C1358.60294,126.906795 1340.19962,144.079509 1340.19962,171.496139 C1340.19962,198.912769 1358.60294,216.094492 1384.00065,216.094492 C1409.39965,216.094492 1427.79391,198.912769 1427.79391,171.496139 Z M1483,80.11681 L1483,262.88319 L1427.79391,262.88319 L1427.79391,245.701467 C1415.65416,259.596386 1397.61364,268 1372.9558,268 C1324.74409,268 1285,225.960052 1285,171.496139 C1285,117.032226 1324.74409,75 1372.9558,75 C1397.61364,75 1415.65416,83.4036141 1427.79391,97.2908115 L1427.79391,80.11681 L1483,80.11681 Z" id="Fill-37"></path>
            <path d="M1505,218.093085 L1556.15938,188.741396 C1564.25914,203.051636 1572.72955,210.756455 1592.6096,210.756455 C1618.37332,210.756455 1626.10243,196.076734 1626.10243,180.297617 L1626.10243,6 L1685,6 L1685,180.297617 C1685,236.809954 1645.24119,268 1592.23766,268 C1551.37599,268 1521.93174,250.750715 1505,218.093085" id="Fill-39"></path>
            <path d="M1705,203.55296 L1755.59824,174.208526 C1764.76623,195.482788 1780.53332,209.787006 1809.50118,209.787006 C1837.36274,209.787006 1844.33362,198.780583 1844.33362,188.880743 C1844.33362,173.109691 1829.6638,166.876937 1791.16778,156.238514 C1753.03192,145.601383 1715.63446,127.263372 1715.63446,78.1192572 C1715.63446,28.6071429 1757.43519,0 1801.80224,0 C1843.96313,0 1876.96636,20.1689719 1895.66896,57.9438292 L1846.16928,86.9202631 C1837.36274,68.5809604 1825.26956,57.2142857 1801.80224,57.2142857 C1783.46754,57.2142857 1774.30213,66.3832914 1774.30213,76.6511316 C1774.30213,88.3883886 1780.53332,96.4585598 1820.4971,108.563817 C1859.37006,120.299782 1903,133.865417 1903,188.151199 C1903,237.663314 1863.39639,267 1807.66423,267 C1753.76903,267 1719.29933,241.329108 1705,203.55296" id="Fill-41"></path>
        </g>
    </g>
</svg>