<!-- Generated by IcoMoon.io -->
<svg version="1.1" xmlns="http://www.w3.org/2000/svg" width="1024" height="1024" viewBox="0 0 1024 1024">
<title></title>
<g id="icomoon-ignore">
</g>
<path d="M421.504 469.12l44.16 131.627 136.747-45.824-44.16-131.157-136.747 46.080v-0.725z"></path>
<path d="M803.157 599.68l-66.347 22.229 23.040 68.693c9.301 27.733-5.76 57.813-33.536 67.157-6.4 1.92-12.16 2.859-18.56 2.688-21.803-0.64-41.643-14.421-49.28-36.224l-23.040-68.565-136.96 45.781 22.997 68.608c9.003 27.819-5.76 57.941-33.877 67.2-6.4 2.048-12.16 2.859-18.56 2.731-21.76-0.64-41.643-14.507-49.323-36.267l-22.997-69.077-66.603 22.357c-6.4 1.92-12.16 2.603-18.56 2.603-21.803-0.683-41.643-14.72-49.28-36.48-9.6-28.16 5.76-58.197 33.28-67.2l66.56-22.4-42.112-131.755-66.176 22.4c-6.016 2.048-12.16 2.816-18.261 2.731-21.12-0.683-41.6-14.421-48.683-36.181-8.917-27.733 5.76-57.771 33.963-67.157l66.56-22.187-23.040-68.48c-8.96-27.904 5.803-57.984 33.963-67.2 28.117-9.387 58.155 5.803 67.157 33.408l22.997 68.608 136.32-45.824-23.040-68.48c-8.917-27.52 5.76-57.6 33.664-67.157 27.819-9.003 57.984 5.76 67.2 33.749l23.040 69.163 66.347-21.76c27.776-9.344 57.856 5.76 67.2 33.237 9.301 27.904-5.76 57.984-33.451 67.2l-66.432 22.357 44.16 131.669 66.176-22.016c27.819-9.003 57.941 5.76 67.2 33.92 9.387 28.16-5.76 58.24-33.237 67.157l-0.469-1.237zM981.12 371.157c-105.6-351.701-258.091-433.92-609.963-328.277-351.701 105.557-433.92 257.963-328.277 609.963 105.6 351.787 257.963 433.92 609.963 328.277 351.787-105.6 433.92-257.963 328.277-609.963z"></path>
</svg>
